<svg width="1920" height="99" viewBox="0 0 1920 99" fill="none" xmlns="http://www.w3.org/2000/svg">
<path fill-rule="evenodd" clip-rule="evenodd" d="M0.000297082 79.7145C0.000297082 58.3755 -0.0967031 59 3.2148 59C4.1968 59 5.0003 58.775 5.0003 58.5C5.0003 58.225 5.9003 58 7.0003 58C8.1003 58 9.0003 58.225 9.0003 58.5C9.0003 58.775 9.6753 59 10.5003 59C11.3253 59 12.0003 59.225 12.0003 59.5C12.0003 59.775 12.4503 60 13.0003 60C13.5503 60 14.0003 60.225 14.0003 60.5C14.0003 60.775 14.6753 61 15.5003 61C16.3253 61 17.0003 61.225 17.0003 61.5C17.0003 61.775 17.6753 62 18.5003 62C19.3253 62 20.0003 61.775 20.0003 61.5C20.0003 61.225 20.9003 61 22.0003 61C23.1003 61 24.0003 60.775 24.0003 60.5C24.0003 60.225 24.4503 60 25.0003 60C25.5503 60 26.0003 59.775 26.0003 59.5C26.0003 59.225 26.6753 59 27.5003 59C28.3253 59 29.0003 58.775 29.0003 58.5C29.0003 58.1875 32.0003 58 37.0003 58C42.0003 58 45.0003 58.1875 45.0003 58.5C45.0003 58.775 45.6753 59 46.5003 59C47.3253 59 48.0003 59.225 48.0003 59.5C48.0003 59.775 48.6753 60 49.5003 60C50.3253 60 51.0003 60.225 51.0003 60.5C51.0003 60.775 51.9003 61 53.0003 61C54.1003 61 55.0003 61.225 55.0003 61.5C55.0003 61.775 56.1253 62 57.5003 62C58.8753 62 60.0003 62.225 60.0003 62.5C60.0003 62.775 60.6753 63 61.5003 63C62.3253 63 63.0003 63.225 63.0003 63.5C63.0003 63.7965 64.8338 64 67.5003 64C70.1668 64 72.0003 63.7965 72.0003 63.5C72.0003 63.225 72.6753 63 73.5003 63C74.3253 63 75.0003 62.775 75.0003 62.5C75.0003 62.225 75.6753 62 76.5003 62C77.3253 62 78.0003 61.775 78.0003 61.5C78.0003 61.225 78.6753 61 79.5003 61C80.3253 61 81.0003 61.225 81.0003 61.5C81.0003 61.775 81.4503 62 82.0003 62C82.5503 62 83.0003 62.225 83.0003 62.5C83.0003 62.775 83.4503 63 84.0003 63C84.5503 63 85.0003 63.225 85.0003 63.5C85.0003 63.775 85.4503 64 86.0003 64C86.5503 64 87.0003 64.225 87.0003 64.5C87.0003 64.775 87.6753 65 88.5003 65C89.3253 65 90.0003 65.225 90.0003 65.5C90.0003 65.775 90.4313 66 90.9588 66C91.4858 66 92.0483 66.2815 92.2088 66.625C92.4418 67.125 92.5588 67.125 92.7918 66.625C92.9523 66.281 93.7398 66 94.5418 66C95.3443 66 96.0003 65.775 96.0003 65.5C96.0003 65.225 96.6753 65 97.5003 65C98.3253 65 99.0003 64.775 99.0003 64.5C99.0003 64.225 99.4503 64 100 64C100.55 64 101 63.775 101 63.5C101 63.2085 102.667 63 105 63C107.334 63 109 63.2085 109 63.5C109 63.775 109.675 64 110.5 64C111.325 64 112 64.225 112 64.5C112 64.803 114.167 65 117.5 65C120.834 65 123 65.197 123 65.5C123 65.775 123.675 66 124.5 66C125.325 66 126 66.225 126 66.5C126 66.7915 127.667 67 130 67C132.334 67 134 67.2085 134 67.5C134 67.8 136 68 139 68C142 68 144 67.8 144 67.5C144 67.225 144.401 67 144.89 67C145.379 67 146.104 66.55 146.5 66C147.577 64.5055 155.423 64.5055 156.5 66C156.897 66.55 157.621 67 158.111 67C158.6 67 159 67.225 159 67.5C159 67.775 159.9 68 161 68C162.1 68 163 68.225 163 68.5C163 68.775 163.675 69 164.5 69C165.325 69 166 68.775 166 68.5C166 68.222 167.334 68 169 68C170.667 68 172 67.778 172 67.5C172 67.225 172.9 67 174 67C175.1 67 176 67.225 176 67.5C176 67.775 176.675 68 177.5 68C178.325 68 179 68.225 179 68.5C179 68.775 179.401 69 179.89 69C180.379 69 181.104 69.45 181.5 70C181.897 70.55 182.621 71 183.111 71C183.6 71 184 71.225 184 71.5C184 71.775 185.125 72 186.5 72C187.875 72 189 72.225 189 72.5C189 72.775 189.675 73 190.5 73C191.325 73 192 73.225 192 73.5C192 73.775 192.9 74 194 74C195.1 74 196 74.225 196 74.5C196 74.778 197.334 75 199 75C200.667 75 202 74.778 202 74.5C202 74.225 202.9 74 204 74C205.1 74 206 73.775 206 73.5C206 73.2 208 73 211 73C214 73 216 72.8 216 72.5C216 70.8045 223.58 72.001 225.5 74C226.557 75.1 227.727 76 228.101 76C228.474 76 229.104 76.45 229.5 77C230.288 78.0925 237 78.54 237 77.5C237 77.225 237.45 77 238 77C238.55 77 239 76.775 239 76.5C239 76.225 239.45 76 240 76C240.55 76 241 75.775 241 75.5C241 75.225 241.675 75 242.5 75C243.325 75 244 74.775 244 74.5C244 74.1785 249 74 258 74C267 74 272 74.1785 272 74.5C272 74.775 272.401 75 272.89 75C273.379 75 274.104 75.45 274.5 76C274.897 76.55 275.621 77 276.111 77C276.6 77 277 77.225 277 77.5C277 77.775 277.45 78 278 78C278.55 78 279 78.225 279 78.5C279 78.775 279.45 79 280 79C280.55 79 281 79.225 281 79.5C281 79.775 281.675 80 282.5 80C283.325 80 284 79.775 284 79.5C284 79.225 284.45 79 285 79C285.55 79 286 78.775 286 78.5C286 78.225 286.45 78 287 78C287.55 78 288 77.775 288 77.5C288 77.225 288.401 77 288.89 77C289.379 77 290.104 76.55 290.5 76C290.897 75.45 291.621 75 292.111 75C292.6 75 293 74.775 293 74.5C293 74.225 294.125 74 295.5 74C296.875 74 298 73.775 298 73.5C298 73.222 299.334 73 301 73C302.667 73 304 72.778 304 72.5C304 72.222 305.334 72 307 72C308.667 72 310 72.222 310 72.5C310 72.778 311.334 73 313 73C314.667 73 316 73.222 316 73.5C316 73.775 316.9 74 318 74C319.1 74 320 73.775 320 73.5C320 73.225 320.9 73 322 73C323.1 73 324 72.775 324 72.5C324 72.225 324.675 72 325.5 72C326.325 72 327 71.775 327 71.5C327 71.1775 332.5 71 342.5 71C352.5 71 358 71.1775 358 71.5C358 71.775 358.401 72 358.89 72C359.379 72 360.104 72.45 360.5 73C360.897 73.55 361.621 74 362.111 74C362.6 74 363 74.225 363 74.5C363 74.775 363.401 75 363.89 75C364.379 75 365.104 75.45 365.5 76C366.099 76.831 366.795 77 369.611 77C371.537 77 373 77.216 373 77.5C373 77.7855 374.5 78 376.5 78C378.5 78 380 78.2145 380 78.5C380 78.803 382.167 79 385.5 79C388.834 79 391 79.197 391 79.5C391 79.775 391.9 80 393 80C394.1 80 395 80.225 395 80.5C395 80.775 395.675 81 396.5 81C397.325 81 398 81.225 398 81.5C398 81.775 398.9 82 400 82C401.1 82 402 82.225 402 82.5C402 82.775 403.125 83 404.5 83C405.875 83 407 82.775 407 82.5C407 82.197 409.167 82 412.5 82C415.834 82 418 82.197 418 82.5C418 82.775 418.45 83 419 83C419.55 83 420 83.225 420 83.5C420 83.775 420.45 84 421 84C421.55 84 422 84.225 422 84.5C422 84.775 422.45 85 423 85C423.55 85 424 85.225 424 85.5C424 85.775 424.574 86 425.274 86C426.19 86 427.52 86.9855 430 89.5C431.899 91.425 433.8 93 434.226 93C434.652 93 435 93.225 435 93.5C435 93.8055 437.334 94 441 94C444.667 94 447 94.1945 447 94.5C447 94.775 447.9 95 449 95C450.1 95 451 95.225 451 95.5C451 95.775 452.125 96 453.5 96C454.875 96 456 96.225 456 96.5C456 96.7915 457.667 97 460 97H464V95.5C464 94.675 464.225 94 464.5 94C464.775 94 465 93.1 465 92C465 90.3335 465.167 90 466 90C466.667 90 467 89.6665 467 89C467 88.3335 467.334 88 468 88C468.55 88 469 87.775 469 87.5C469 87.2145 470.5 87 472.5 87C474.5 87 476 86.7855 476 86.5C476 86.225 476.9 86 478 86C479.1 86 480 85.775 480 85.5C480 85.225 480.345 85 480.767 85C481.637 85 485 81.817 485 80.994C485 80.178 487.348 78 488.228 78C488.653 78 489 77.775 489 77.5C489 77.1945 491.334 77 495 77C498.667 77 501 76.8055 501 76.5C501 76.225 501.348 76 501.773 76C502.773 76 505 73.773 505 72.7725C505 72.3335 505.432 72 506 72C506.576 72 507 71.6665 507 71.2145C507 70.204 508.204 69 509.215 69C509.647 69 510 68.775 510 68.5C510 68.225 511.125 68 512.5 68C513.875 68 515 68.225 515 68.5C515 68.7965 516.834 69 519.5 69C522.167 69 524 68.7965 524 68.5C524 68.225 524.45 68 525 68C525.55 68 526 67.775 526 67.5C526 67.225 526.401 67 526.89 67C527.379 67 528.104 66.55 528.5 66C528.897 65.45 529.621 65 530.111 65C530.6 65 531 64.775 531 64.5C531 64.225 531.45 64 532 64C532.55 64 533 63.775 533 63.5C533 63.225 533.45 63 534 63C534.55 63 535 62.775 535 62.5C535 62.225 535.675 62 536.5 62C537.325 62 538 61.775 538 61.5C538 61.225 538.45 61 539 61C539.55 61 540 60.775 540 60.5C540 60.225 540.675 60 541.5 60C542.325 60 543 59.775 543 59.5C543 59.225 543.675 59 544.5 59C545.325 59 546 58.775 546 58.5C546 58.222 547.334 58 549 58C550.667 58 552 57.778 552 57.5C552 57.225 553.076 57 554.39 57C556.206 57 556.952 56.76 557.5 56C557.897 55.45 558.523 55 558.893 55C559.263 55 560.661 53.875 562 52.5C563.34 51.125 564.787 50 565.218 50C565.648 50 566 49.775 566 49.5C566 49.225 566.401 49 566.89 49C567.379 49 568.104 48.55 568.5 48C568.897 47.45 569.621 47 570.111 47C570.667 47 571 46.6255 571 46C571 45.3745 571.334 45 571.89 45C572.379 45 573.104 44.55 573.5 44C574.002 43.3035 574.795 43 576.111 43C577.15 43 578 42.775 578 42.5C578 42.197 580.167 42 583.5 42C586.834 42 589 41.803 589 41.5C589 41.225 589.9 41 591 41C592.1 41 593 40.775 593 40.5C593 40.225 593.675 40 594.5 40C595.325 40 596 39.775 596 39.5C596 39.225 596.9 39 598 39C599.1 39 600 38.775 600 38.5C600 38.184 603.5 38 609.5 38C615.5 38 619 37.816 619 37.5C619 37.2085 620.667 37 623 37C625.334 37 627 37.2085 627 37.5C627 37.775 627.401 38 627.89 38C628.379 38 629.104 38.45 629.5 39C629.897 39.55 630.572 40 631 40C631.429 40 632.104 40.45 632.5 41C633.311 42.125 654 42.606 654 41.5C654 41.197 656.167 41 659.5 41C662.834 41 665 40.803 665 40.5C665 40.225 665.9 40 667 40C668.1 40 669 39.775 669 39.5C669 39.225 669.675 39 670.5 39C671.325 39 672 38.775 672 38.5C672 38.225 672.45 38 673 38C673.55 38 674 38.225 674 38.5C674 38.775 674.675 39 675.5 39C676.325 39 677 39.225 677 39.5C677 39.775 677.45 40 678 40C678.55 40 679 40.225 679 40.5C679 40.775 679.45 41 680 41C680.55 41 681 41.225 681 41.5C681 41.775 682.125 42 683.5 42C684.875 42 686 42.225 686 42.5C686 42.775 686.9 43 688 43C689.1 43 690 43.225 690 43.5C690 43.775 690.45 44 691 44C691.55 44 692 44.225 692 44.5C692 45.8845 699.557 45.0445 701 43.5C701.771 42.675 702.761 42 703.201 42C703.667 42 704 41.583 704 41C704 40.3335 704.334 40 705 40C705.55 40 706 39.775 706 39.5C706 39.222 707.334 39 709 39C710.667 39 712 39.222 712 39.5C712 39.775 712.675 40 713.5 40C714.325 40 715 40.225 715 40.5C715 40.7915 716.667 41 719 41C721.334 41 723 40.7915 723 40.5C723 40.225 723.45 40 724 40C724.76 40 725 39.6665 725 38.6105C725 37.7945 725.413 36.9235 726 36.5C726.55 36.1035 727 35.2505 727 34.604C727 33.254 728.067 32 729.215 32C729.647 32 730 31.775 730 31.5C730 31.225 730.45 31 731 31C731.55 31 732 31.225 732 31.5C732 31.775 733.125 32 734.5 32C735.875 32 737 32.225 737 32.5C737 33.54 743.713 33.0925 744.5 32C744.897 31.45 745.621 31 746.111 31C746.901 31 747 30.4685 747 26.2145C747 21.369 747.464 20 749.104 20C749.476 20 750.104 19.55 750.5 19C750.897 18.45 751.621 18 752.111 18C752.6 18 753 17.775 753 17.5C753 17.225 753.36 17 753.8 17C754.239 17 755.23 16.325 756 15.5C756.771 14.675 757.712 14 758.09 14C758.469 14 759.104 13.55 759.5 13C759.897 12.45 760.621 12 761.111 12C761.6 12 762 11.775 762 11.5C762 11.225 762.401 11 762.89 11C763.379 11 764.104 10.55 764.5 10C764.897 9.45 765.572 9 766 9C766.429 9 767.104 8.55 767.5 8C767.897 7.45 768.621 7 769.111 7C769.6 7 770 6.775 770 6.5C770 6.225 770.401 6 770.89 6C771.379 6 772.104 5.55 772.5 5C772.897 4.45 773.621 4 774.111 4C774.6 4 775 3.775 775 3.5C775 3.225 775.45 3 776 3C776.55 3 777 2.775 777 2.5C777 2.225 777.45 2 778 2C778.55 2 779 1.775 779 1.5C779 1.225 779.45 1 780 1C780.55 1 781 0.775002 781 0.5C781 0.224998 781.57 0 782.267 0C783.675 0 787 2.9735 787 4.2335C787 4.655 787.401 5 787.89 5C788.379 5 789.104 5.45 789.5 6C789.897 6.55 790.621 7 791.111 7C791.6 7 792 7.225 792 7.5C792 7.775 792.45 8 793 8C793.55 8 794 8.225 794 8.5C794 8.775 794.45 9 795 9C795.55 9 796 9.225 796 9.5C796 9.775 796.401 10 796.89 10C797.379 10 798.104 10.45 798.5 11C798.924 11.587 799.795 12 800.611 12C801.375 12 802 12.225 802 12.5C802 12.7855 803.5 13 805.5 13C807.5 13 809 13.2145 809 13.5C809 13.775 809.675 14 810.5 14C811.667 14 812 14.222 812 15C812 15.55 812.225 16 812.5 16C812.775 16 813 16.45 813 17C813 17.55 813.225 18 813.5 18C813.775 18 814 18.5725 814 19.2725C814 20.911 816.089 23 817.728 23C818.428 23 819 23.225 819 23.5C819 23.778 820.334 24 822 24C823.667 24 825 23.778 825 23.5C825 23.225 826.125 23 827.5 23C828.875 23 830 23.225 830 23.5C830 23.775 830.45 24 831 24C831.55 24 832 24.225 832 24.5C832 24.775 832.401 25 832.89 25C833.379 25 834.104 25.45 834.5 26C834.897 26.55 835.621 27 836.111 27C836.6 27 837 27.225 837 27.5C837 27.775 837.45 28 838 28C838.55 28 839 28.225 839 28.5C839 28.775 839.675 29 840.5 29C841.325 29 842 29.225 842 29.5C842 29.775 842.675 30 843.5 30C844.325 30 845 30.225 845 30.5C845 30.775 845.675 31 846.5 31C847.325 31 848 31.225 848 31.5C848 31.775 848.45 32 849 32C849.55 32 850 32.225 850 32.5C850 32.775 850.675 33 851.5 33C852.325 33 853 33.225 853 33.5C853 33.775 853.355 34 853.789 34C854.224 34 855.443 34.9 856.5 36C857.557 37.1 858.777 38 859.211 38C859.645 38 860 38.225 860 38.5C860 38.775 860.675 39 861.5 39C862.325 39 863 39.225 863 39.5C863 39.775 863.45 40 864 40C864.55 40 865 39.775 865 39.5C865 39.1945 867.334 39 871 39C874.667 39 877 39.1945 877 39.5C877 39.775 877.401 40 877.89 40C878.379 40 879.104 40.45 879.5 41C879.897 41.55 880.621 42 881.111 42C881.6 42 882 42.225 882 42.5C882 42.775 882.675 43 883.5 43C884.325 43 885 43.225 885 43.5C885 43.775 885.9 44 887 44C888.1 44 889 43.775 889 43.5C889 43.225 889.9 43 891 43C892.1 43 893 42.775 893 42.5C893 42.225 893.675 42 894.5 42C895.325 42 896 41.775 896 41.5C896 41.225 897.125 41 898.5 41C899.875 41 901 41.225 901 41.5C901 41.775 901.45 42 902 42C902.55 42 903 42.225 903 42.5C903 42.775 903.36 43 903.8 43C904.239 43 905.23 43.675 906 44.5C906.771 45.325 907.761 46 908.201 46C908.641 46 909 46.225 909 46.5C909 46.803 911.167 47 914.5 47C917.834 47 920 46.803 920 46.5C920 46.225 920.675 46 921.5 46C922.325 46 923 46.225 923 46.5C923 46.7855 924.5 47 926.5 47C928.5 47 930 47.2145 930 47.5C930 47.8055 932.334 48 936 48C939.667 48 942 47.8055 942 47.5C942 47.225 943.106 47 944.459 47C945.936 47 947.033 46.7505 947.209 46.375C947.442 45.875 947.559 45.875 947.792 46.375C947.952 46.7185 948.645 47 949.331 47C950.133 47 951.265 47.7145 952.5 49C953.557 50.1 954.777 51 955.211 51C955.645 51 956 51.225 956 51.5C956 51.775 956.45 52 957 52C957.55 52 958 52.225 958 52.5C958 52.815 961.334 53 967 53C972.667 53 976 52.815 976 52.5C976 52.225 976.45 52 977 52C977.55 52 978 51.775 978 51.5C978 51.225 978.45 51 979 51C979.55 51 980 50.775 980 50.5C980 50.225 980.45 50 981 50C981.55 50 982 49.775 982 49.5C982 49.225 982.45 49 983 49C983.55 49 984 48.775 984 48.5C984 48.225 985.125 48 986.5 48C987.875 48 989 48.225 989 48.5C989 48.803 991.167 49 994.5 49C997.834 49 1000 49.197 1000 49.5C1000 49.8055 1002.33 50 1006 50C1009.67 50 1012 50.1945 1012 50.5C1012 50.775 1012.45 51 1013 51C1013.55 51 1014 51.225 1014 51.5C1014 51.775 1014.68 52 1015.5 52C1016.33 52 1017 52.225 1017 52.5C1017 52.775 1017.45 53 1018 53C1018.55 53 1019 53.225 1019 53.5C1019 53.778 1020.33 54 1022 54C1023.67 54 1025 53.778 1025 53.5C1025 53.225 1026.13 53 1027.5 53C1028.88 53 1030 52.775 1030 52.5C1030 52.1875 1033 52 1038 52C1043 52 1046 51.8125 1046 51.5C1046 51.225 1047.13 51 1048.5 51C1049.88 51 1051 50.775 1051 50.5C1051 50.225 1051.45 50 1052 50C1052.55 50 1053 49.775 1053 49.5C1053 49.225 1053.45 49 1054 49C1054.55 49 1055 48.775 1055 48.5C1055 48.225 1055.66 48 1056.46 48C1057.26 48 1058.05 47.719 1058.21 47.375C1058.44 46.875 1058.56 46.875 1058.79 47.375C1058.95 47.7185 1059.74 48 1060.54 48C1061.34 48 1062 48.225 1062 48.5C1062 48.775 1062.45 49 1063 49C1063.67 49 1064 49.3335 1064 50C1064 50.6255 1064.33 51 1064.89 51C1065.38 51 1066.1 51.45 1066.5 52C1066.9 52.55 1067.62 53 1068.11 53C1068.6 53 1069 53.225 1069 53.5C1069 53.778 1070.33 54 1072 54C1073.67 54 1075 53.778 1075 53.5C1075 53.225 1076.13 53 1077.5 53C1078.88 53 1080 52.775 1080 52.5C1080 52.197 1082.17 52 1085.5 52C1088.83 52 1091 52.197 1091 52.5C1091 52.7915 1092.67 53 1095 53C1097.33 53 1099 52.7915 1099 52.5C1099 52.225 1099.9 52 1101 52C1102.1 52 1103 51.775 1103 51.5C1103 51.225 1103.45 51 1104 51C1104.55 51 1105 50.775 1105 50.5C1105 50.2145 1106.5 50 1108.5 50C1110.5 50 1112 49.7855 1112 49.5C1112 49.1905 1114.67 49 1119 49C1123.33 49 1126 48.8095 1126 48.5C1126 48.225 1126.9 48 1128 48C1129.1 48 1130 47.775 1130 47.5C1130 47.2035 1131.83 47 1134.5 47C1137.17 47 1139 47.2035 1139 47.5C1139 47.8195 1143.33 48 1151 48C1158.67 48 1163 48.1805 1163 48.5C1163 48.7915 1164.67 49 1167 49C1169.33 49 1171 49.2085 1171 49.5C1171 49.775 1171.9 50 1173 50C1174.1 50 1175 50.225 1175 50.5C1175 50.775 1175.68 51 1176.5 51C1177.33 51 1178 51.225 1178 51.5C1178 51.775 1178.9 52 1180 52C1181.1 52 1182 52.225 1182 52.5C1182 52.775 1182.68 53 1183.5 53C1184.33 53 1185 52.775 1185 52.5C1185 52.225 1185.9 52 1187 52C1188.1 52 1189 51.775 1189 51.5C1189 51.225 1189.68 51 1190.5 51C1191.33 51 1192 50.775 1192 50.5C1192 50.2035 1193.83 50 1196.5 50C1199.17 50 1201 50.2035 1201 50.5C1201 50.775 1201.68 51 1202.5 51C1203.33 51 1204 51.225 1204 51.5C1204 51.775 1205.13 52 1206.5 52C1207.88 52 1209 52.225 1209 52.5C1209 52.775 1209.45 53 1210 53C1210.55 53 1211 53.225 1211 53.5C1211 53.775 1211.4 54 1211.89 54C1212.38 54 1213.1 54.45 1213.5 55C1213.9 55.55 1214.62 56 1215.11 56C1215.6 56 1216 56.225 1216 56.5C1216 56.775 1216.45 57 1217 57C1217.55 57 1218 57.225 1218 57.5C1218 57.778 1219.33 58 1221 58C1222.67 58 1224 57.778 1224 57.5C1224 57.225 1224.4 57 1224.89 57C1225.38 57 1226.1 56.55 1226.5 56C1226.9 55.45 1227.62 55 1228.11 55C1228.6 55 1229 54.775 1229 54.5C1229 54.225 1229.45 54 1230 54C1230.55 54 1231 53.775 1231 53.5C1231 53.225 1231.45 53 1232 53C1232.55 53 1233 52.775 1233 52.5C1233 52.225 1233.45 52 1234 52C1234.55 52 1235 52.225 1235 52.5C1235 52.7855 1236.5 53 1238.5 53C1240.5 53 1242 53.2145 1242 53.5C1242 53.775 1243.13 54 1244.5 54C1245.88 54 1247 54.225 1247 54.5C1247 54.7855 1248.5 55 1250.5 55C1252.5 55 1254 55.2145 1254 55.5C1254 55.7855 1255.5 56 1257.5 56C1259.5 56 1261 56.2145 1261 56.5C1261 56.775 1261.9 57 1263 57C1264.1 57 1265 57.225 1265 57.5C1265 57.775 1266.13 58 1267.5 58C1268.88 58 1270 58.225 1270 58.5C1270 58.8095 1272.67 59 1277 59C1281.33 59 1284 58.8095 1284 58.5C1284 58.225 1284.57 58 1285.27 58C1286.68 58 1289 55.9875 1289 54.7725C1289 54.3475 1289.23 54 1289.5 54C1289.78 54 1290 53.55 1290 53C1290 52.3335 1290.33 52 1291 52C1291.55 52 1292 51.775 1292 51.5C1292 51.225 1292.45 51 1293 51C1293.55 51 1294 50.775 1294 50.5C1294 50.225 1294.9 50 1296 50C1297.1 50 1298 50.225 1298 50.5C1298 50.7855 1299.5 51 1301.5 51C1303.5 51 1305 50.7855 1305 50.5C1305 50.225 1305.58 50 1306.29 50C1307.73 50 1309 48.966 1309 47.7855C1309 47.3535 1309.23 47 1309.5 47C1309.78 47 1310 46.55 1310 46C1310 45.3335 1310.33 45 1311 45C1311.67 45 1312 44.6665 1312 44C1312 43.1335 1312.33 43 1314.5 43C1315.88 43 1317 43.225 1317 43.5C1317 43.775 1317.68 44 1318.5 44C1319.33 44 1320 44.225 1320 44.5C1320 45.562 1328.7 45.104 1329.5 44C1329.92 43.413 1330.79 43 1331.61 43C1332.37 43 1333 42.775 1333 42.5C1333 42.225 1333.45 42 1334 42C1334.55 42 1335 41.775 1335 41.5C1335 41.225 1335.9 41 1337 41C1338.1 41 1339 40.775 1339 40.5C1339 40.225 1339.9 40 1341 40C1342.1 40 1343 39.775 1343 39.5C1343 39.225 1344.13 39 1345.5 39C1346.88 39 1348 38.775 1348 38.5C1348 38.225 1348.45 38 1349 38C1349.55 38 1350 37.775 1350 37.5C1350 37.225 1350.4 37 1350.89 37C1351.38 37 1352.1 36.55 1352.5 36C1352.9 35.45 1353.62 35 1354.11 35C1354.6 35 1355 34.775 1355 34.5C1355 34.225 1355.45 34 1356 34C1356.55 34 1357 33.775 1357 33.5C1357 33.225 1357.68 33 1358.5 33C1359.33 33 1360 33.225 1360 33.5C1360 33.775 1360.45 34 1361 34C1361.55 34 1362 34.225 1362 34.5C1362 34.775 1362.68 35 1363.5 35C1364.33 35 1365 35.225 1365 35.5C1365 35.775 1365.68 36 1366.5 36C1367.33 36 1368 36.225 1368 36.5C1368 36.778 1369.33 37 1371 37C1372.67 37 1374 36.778 1374 36.5C1374 36.1925 1376.5 36 1380.5 36C1384.5 36 1387 35.8075 1387 35.5C1387 35.185 1390.33 35 1396 35C1401.67 35 1405 35.185 1405 35.5C1405 35.775 1405.45 36 1406 36C1406.57 36 1407 36.3335 1407 36.7665C1407 37.762 1410.24 41 1411.23 41C1411.66 41 1412 41.225 1412 41.5C1412 41.775 1412.9 42 1414 42C1415.1 42 1416 42.225 1416 42.5C1416 42.803 1418.17 43 1421.5 43C1424.83 43 1427 43.197 1427 43.5C1427 43.775 1427.45 44 1428 44C1428.55 44 1429 43.775 1429 43.5C1429 43.1945 1431.33 43 1435 43C1438.67 43 1441 43.1945 1441 43.5C1441 43.775 1441.45 44 1442 44C1442.55 44 1443 44.225 1443 44.5C1443 44.775 1443.45 45 1444 45C1444.55 45 1445 45.225 1445 45.5C1445 45.8125 1448 46 1453 46C1458 46 1461 45.8125 1461 45.5C1461 45.2145 1462.5 45 1464.5 45C1466.5 45 1468 44.7855 1468 44.5C1468 44.225 1468.68 44 1469.5 44C1470.33 44 1471 43.775 1471 43.5C1471 43.222 1472.33 43 1474 43C1475.67 43 1477 42.778 1477 42.5C1477 42.2035 1478.83 42 1481.5 42C1484.17 42 1486 41.7965 1486 41.5C1486 41.225 1486.8 41 1487.77 41C1489.96 41 1493 38.247 1493 36.2665C1493 35.57 1493.23 35 1493.5 35C1493.78 35 1494 34.325 1494 33.5C1494 32.3335 1494.22 32 1495 32C1495.55 32 1496 31.775 1496 31.5C1496 31.225 1496.45 31 1497 31C1497.55 31 1498 30.775 1498 30.5C1498 30.2035 1499.83 30 1502.5 30C1505.17 30 1507 29.7965 1507 29.5C1507 29.225 1507.68 29 1508.5 29C1509.33 29 1510 28.775 1510 28.5C1510 28.225 1510.45 28 1511 28C1511.55 28 1512 27.775 1512 27.5C1512 27.225 1512.68 27 1513.5 27C1514.33 27 1515 26.775 1515 26.5C1515 26.225 1515.45 26 1516 26C1516.55 26 1517 25.775 1517 25.5C1517 25.225 1517.68 25 1518.5 25C1519.33 25 1520 24.775 1520 24.5C1520 24.225 1520.45 24 1521 24C1521.55 24 1522 23.775 1522 23.5C1522 23.225 1522.45 23 1523 23C1523.55 23 1524 22.775 1524 22.5C1524 22.225 1524.4 22 1524.89 22C1525.38 22 1526.1 21.55 1526.5 21C1527.3 19.896 1536 19.438 1536 20.5C1536 20.775 1536.45 21 1537 21C1537.55 21 1538 21.225 1538 21.5C1538 21.8095 1540.67 22 1545 22C1549.33 22 1552 21.8095 1552 21.5C1552 21.225 1553.13 21 1554.5 21C1555.88 21 1557 20.775 1557 20.5C1557 20.2035 1558.83 20 1561.5 20C1564.17 20 1566 19.7965 1566 19.5C1566 19.225 1566.9 19 1568 19C1569.1 19 1570 18.775 1570 18.5C1570 18.225 1570.36 18 1570.79 18C1571.22 18 1572.44 17.1 1573.5 16C1575.02 14.4145 1575.78 14 1577.17 14C1578.13 14 1579.05 13.7185 1579.21 13.375C1579.44 12.875 1579.56 12.875 1579.79 13.375C1580 13.8275 1581.86 14 1586.54 14C1590.51 14 1593 14.1925 1593 14.5C1593 14.7855 1594.5 15 1596.5 15C1598.5 15 1600 15.2145 1600 15.5C1600 15.7855 1601.5 16 1603.5 16C1605.5 16 1607 16.2145 1607 16.5C1607 16.7855 1608.5 17 1610.5 17C1612.5 17 1614 17.2145 1614 17.5C1614 17.775 1614.68 18 1615.5 18C1616.33 18 1617 18.225 1617 18.5C1617 18.775 1617.68 19 1618.5 19C1619.33 19 1620 19.225 1620 19.5C1620 19.775 1620.9 20 1622 20C1623.1 20 1624 20.225 1624 20.5C1624 20.775 1624.45 21 1625 21C1625.55 21 1626 21.225 1626 21.5C1626 21.775 1626.45 22 1627 22C1627.55 22 1628 22.225 1628 22.5C1628 22.775 1628.4 23 1628.89 23C1629.38 23 1630.1 23.45 1630.5 24C1630.9 24.55 1631.62 25 1632.11 25C1632.6 25 1633 25.225 1633 25.5C1633 25.775 1633.68 26 1634.5 26C1635.33 26 1636 26.225 1636 26.5C1636 26.775 1636.9 27 1638 27C1639.1 27 1640 26.775 1640 26.5C1640 26.2 1642 26 1645 26C1648 26 1650 26.2 1650 26.5C1650 26.778 1651.33 27 1653 27C1654.67 27 1656 27.222 1656 27.5C1656 27.775 1656.9 28 1658 28C1659.1 28 1660 28.225 1660 28.5C1660 28.775 1660.45 29 1661 29C1661.55 29 1662 29.225 1662 29.5C1662 29.775 1662.4 30 1662.89 30C1663.38 30 1664.1 30.45 1664.5 31C1664.9 31.55 1665.62 32 1666.11 32C1666.6 32 1667 32.225 1667 32.5C1667 32.775 1667.58 33 1668.3 33C1669.1 33 1670.14 33.5775 1671 34.5C1671.77 35.325 1672.76 36 1673.2 36C1673.64 36 1674 36.225 1674 36.5C1674 36.775 1674.45 37 1675 37C1675.55 37 1676 37.225 1676 37.5C1676 37.778 1677.33 38 1679 38C1680.67 38 1682 37.778 1682 37.5C1682 37.225 1682.9 37 1684 37C1685.1 37 1686 36.775 1686 36.5C1686 36.2035 1687.83 36 1690.5 36C1693.17 36 1695 36.2035 1695 36.5C1695 36.8055 1697.33 37 1701 37C1704.67 37 1707 36.8055 1707 36.5C1707 36.225 1707.9 36 1709 36C1710.1 36 1711 35.775 1711 35.5C1711 35.222 1712.33 35 1714 35C1715.67 35 1717 35.222 1717 35.5C1717 35.775 1717.68 36 1718.5 36C1719.33 36 1720 36.225 1720 36.5C1720 36.775 1720.68 37 1721.5 37C1722.33 37 1723 37.225 1723 37.5C1723 38.2815 1735.84 38.16 1736.21 37.375C1736.44 36.875 1736.56 36.875 1736.79 37.375C1737 37.8135 1738.56 38 1742.04 38C1745.01 38 1747 38.2005 1747 38.5C1747 38.7915 1748.67 39 1751 39C1753.33 39 1755 38.7915 1755 38.5C1755 38.225 1755.9 38 1757 38C1758.1 38 1759 37.775 1759 37.5C1759 35.8965 1764.59 37.015 1766.5 39C1767.56 40.1 1768.78 41 1769.21 41C1769.67 41 1770 41.4225 1770 42C1770 42.778 1770.33 43 1771.5 43C1772.33 43 1773 43.225 1773 43.5C1773 43.775 1773.68 44 1774.5 44C1775.33 44 1776 44.225 1776 44.5C1776 44.819 1780.17 45 1787.5 45C1794.83 45 1799 45.181 1799 45.5C1799 45.775 1799.9 46 1801 46C1802.1 46 1803 46.225 1803 46.5C1803 46.775 1803.68 47 1804.5 47C1805.33 47 1806 47.225 1806 47.5C1806 47.803 1808.17 48 1811.5 48C1814.83 48 1817 47.803 1817 47.5C1817 47.225 1817.68 47 1818.5 47C1819.33 47 1820 46.775 1820 46.5C1820 46.2145 1821.5 46 1823.5 46C1825.5 46 1827 46.2145 1827 46.5C1827 46.775 1827.45 47 1828 47C1828.55 47 1829 47.225 1829 47.5C1829 47.775 1829.45 48 1830 48C1830.55 48 1831 48.225 1831 48.5C1831 48.775 1831.45 49 1832 49C1832.55 49 1833 49.225 1833 49.5C1833 49.8135 1836.17 50 1841.5 50C1846.83 50 1850 50.1865 1850 50.5C1850 50.8075 1852.5 51 1856.5 51C1860.5 51 1863 50.8075 1863 50.5C1863 50.225 1863.9 50 1865 50C1866.1 50 1867 49.775 1867 49.5C1867 49.225 1867.68 49 1868.5 49C1869.33 49 1870 48.775 1870 48.5C1870 48.2145 1871.5 48 1873.5 48C1875.5 48 1877 48.2145 1877 48.5C1877 48.775 1877.45 49 1878 49C1878.55 49 1879 49.225 1879 49.5C1879 49.775 1879.9 50 1881 50C1882.1 50 1883 50.225 1883 50.5C1883 50.778 1884.33 51 1886 51C1887.67 51 1889 50.778 1889 50.5C1889 50.225 1889.63 50 1890.39 50C1891.21 50 1892.08 49.587 1892.5 49C1892.92 48.413 1893.79 48 1894.61 48C1895.37 48 1896 47.775 1896 47.5C1896 47.225 1896.68 47 1897.5 47C1898.33 47 1899 46.775 1899 46.5C1899 46.225 1899.45 46 1900 46C1900.55 46 1901 46.225 1901 46.5C1901 46.7855 1902.5 47 1904.5 47C1906.5 47 1908 47.2145 1908 47.5C1908 47.7855 1909.5 48 1911.5 48C1913.5 48 1915 47.7855 1915 47.5C1915 47.225 1915.68 47 1916.5 47C1917.33 47 1918 47.225 1918 47.5C1918 47.775 1918.45 48 1919 48C1919.99 48 1920 48.3335 1920 73.5V99H960H0.000297082V79.7145Z" fill="white"/>
</svg>
