<svg width="393" height="43" viewBox="0 0 393 43" fill="none" xmlns="http://www.w3.org/2000/svg">
<path fill-rule="evenodd" clip-rule="evenodd" d="M-202 8.37653C-202 17.645 -202.04 17.3737 -200.661 17.3737C-200.251 17.3737 -199.917 17.4715 -199.917 17.5909C-199.917 17.7104 -199.542 17.8081 -199.083 17.8081C-198.625 17.8081 -198.25 17.7104 -198.25 17.5909C-198.25 17.4715 -197.969 17.3737 -197.625 17.3737C-197.281 17.3737 -197 17.276 -197 17.1566C-197 17.0371 -196.812 16.9394 -196.583 16.9394C-196.354 16.9394 -196.167 16.8417 -196.167 16.7222C-196.167 16.6028 -195.885 16.5051 -195.542 16.5051C-195.198 16.5051 -194.917 16.4073 -194.917 16.2879C-194.917 16.1684 -194.635 16.0707 -194.292 16.0707C-193.948 16.0707 -193.667 16.1684 -193.667 16.2879C-193.667 16.4073 -193.292 16.5051 -192.833 16.5051C-192.375 16.5051 -192 16.6028 -192 16.7222C-192 16.8417 -191.812 16.9394 -191.583 16.9394C-191.354 16.9394 -191.167 17.0371 -191.167 17.1566C-191.167 17.276 -190.885 17.3737 -190.542 17.3737C-190.198 17.3737 -189.917 17.4715 -189.917 17.5909C-189.917 17.7266 -188.667 17.8081 -186.583 17.8081C-184.5 17.8081 -183.25 17.7266 -183.25 17.5909C-183.25 17.4715 -182.969 17.3737 -182.625 17.3737C-182.281 17.3737 -182 17.276 -182 17.1566C-182 17.0371 -181.719 16.9394 -181.375 16.9394C-181.031 16.9394 -180.75 16.8417 -180.75 16.7222C-180.75 16.6028 -180.375 16.5051 -179.917 16.5051C-179.458 16.5051 -179.083 16.4073 -179.083 16.2879C-179.083 16.1684 -178.614 16.0707 -178.042 16.0707C-177.469 16.0707 -177 15.973 -177 15.8535C-177 15.7341 -176.719 15.6364 -176.375 15.6364C-176.031 15.6364 -175.75 15.5386 -175.75 15.4192C-175.75 15.2904 -174.986 15.202 -173.875 15.202C-172.764 15.202 -172 15.2904 -172 15.4192C-172 15.5386 -171.719 15.6364 -171.375 15.6364C-171.031 15.6364 -170.75 15.7341 -170.75 15.8535C-170.75 15.973 -170.469 16.0707 -170.125 16.0707C-169.781 16.0707 -169.5 16.1684 -169.5 16.2879C-169.5 16.4073 -169.219 16.5051 -168.875 16.5051C-168.531 16.5051 -168.25 16.4073 -168.25 16.2879C-168.25 16.1684 -168.062 16.0707 -167.833 16.0707C-167.604 16.0707 -167.417 15.973 -167.417 15.8535C-167.417 15.7341 -167.229 15.6364 -167 15.6364C-166.771 15.6364 -166.583 15.5386 -166.583 15.4192C-166.583 15.2997 -166.396 15.202 -166.167 15.202C-165.937 15.202 -165.75 15.1043 -165.75 14.9848C-165.75 14.8654 -165.469 14.7677 -165.125 14.7677C-164.781 14.7677 -164.5 14.6699 -164.5 14.5505C-164.5 14.4311 -164.32 14.3333 -164.101 14.3333C-163.881 14.3333 -163.647 14.2111 -163.58 14.0619C-163.483 13.8447 -163.434 13.8447 -163.337 14.0619C-163.27 14.2113 -162.942 14.3333 -162.608 14.3333C-162.273 14.3333 -162 14.4311 -162 14.5505C-162 14.6699 -161.719 14.7677 -161.375 14.7677C-161.031 14.7677 -160.75 14.8654 -160.75 14.9848C-160.75 15.1043 -160.562 15.202 -160.333 15.202C-160.104 15.202 -159.917 15.2997 -159.917 15.4192C-159.917 15.5458 -159.222 15.6364 -158.25 15.6364C-157.278 15.6364 -156.583 15.5458 -156.583 15.4192C-156.583 15.2997 -156.302 15.202 -155.958 15.202C-155.614 15.202 -155.333 15.1043 -155.333 14.9848C-155.333 14.8532 -154.431 14.7677 -153.042 14.7677C-151.653 14.7677 -150.75 14.6821 -150.75 14.5505C-150.75 14.4311 -150.469 14.3333 -150.125 14.3333C-149.781 14.3333 -149.5 14.2356 -149.5 14.1162C-149.5 13.9896 -148.806 13.899 -147.833 13.899C-146.861 13.899 -146.167 13.8084 -146.167 13.6818C-146.167 13.5515 -145.333 13.4646 -144.083 13.4646C-142.833 13.4646 -142 13.5515 -142 13.6818C-142 13.8013 -141.833 13.899 -141.629 13.899C-141.425 13.899 -141.123 14.0944 -140.958 14.3333C-140.509 14.9825 -137.24 14.9825 -136.792 14.3333C-136.626 14.0944 -136.324 13.899 -136.121 13.899C-135.917 13.899 -135.75 13.8013 -135.75 13.6818C-135.75 13.5624 -135.375 13.4646 -134.917 13.4646C-134.458 13.4646 -134.083 13.3669 -134.083 13.2475C-134.083 13.128 -133.802 13.0303 -133.458 13.0303C-133.114 13.0303 -132.833 13.128 -132.833 13.2475C-132.833 13.3682 -132.278 13.4646 -131.583 13.4646C-130.889 13.4646 -130.333 13.5611 -130.333 13.6818C-130.333 13.8013 -129.958 13.899 -129.5 13.899C-129.042 13.899 -128.667 13.8013 -128.667 13.6818C-128.667 13.5624 -128.385 13.4646 -128.042 13.4646C-127.698 13.4646 -127.417 13.3669 -127.417 13.2475C-127.417 13.128 -127.25 13.0303 -127.046 13.0303C-126.842 13.0303 -126.54 12.8348 -126.375 12.596C-126.21 12.3571 -125.908 12.1616 -125.704 12.1616C-125.5 12.1616 -125.333 12.0639 -125.333 11.9444C-125.333 11.825 -124.864 11.7273 -124.292 11.7273C-123.719 11.7273 -123.25 11.6295 -123.25 11.5101C-123.25 11.3907 -122.969 11.2929 -122.625 11.2929C-122.281 11.2929 -122 11.1952 -122 11.0758C-122 10.9563 -121.625 10.8586 -121.167 10.8586C-120.708 10.8586 -120.333 10.7609 -120.333 10.6414C-120.333 10.5207 -119.778 10.4242 -119.083 10.4242C-118.389 10.4242 -117.833 10.5207 -117.833 10.6414C-117.833 10.7609 -117.458 10.8586 -117 10.8586C-116.542 10.8586 -116.167 10.9563 -116.167 11.0758C-116.167 11.2061 -115.333 11.2929 -114.083 11.2929C-112.833 11.2929 -112 11.3798 -112 11.5101C-112 12.2465 -108.842 11.7268 -108.042 10.8586C-107.601 10.3808 -107.114 9.9899 -106.958 9.9899C-106.802 9.9899 -106.54 9.79444 -106.375 9.55556C-106.047 9.08104 -103.25 8.88667 -103.25 9.33838C-103.25 9.45783 -103.062 9.55556 -102.833 9.55556C-102.604 9.55556 -102.417 9.65328 -102.417 9.77273C-102.417 9.89217 -102.229 9.9899 -102 9.9899C-101.771 9.9899 -101.583 10.0876 -101.583 10.2071C-101.583 10.3265 -101.302 10.4242 -100.958 10.4242C-100.614 10.4242 -100.333 10.522 -100.333 10.6414C-100.333 10.7811 -98.2499 10.8586 -94.4999 10.8586C-90.7499 10.8586 -88.6666 10.7811 -88.6666 10.6414C-88.6666 10.522 -88.4997 10.4242 -88.2959 10.4242C-88.092 10.4242 -87.7901 10.2288 -87.6249 9.9899C-87.4597 9.75101 -87.1578 9.55556 -86.9538 9.55556C-86.7501 9.55556 -86.5832 9.45783 -86.5832 9.33838C-86.5832 9.21894 -86.3957 9.12121 -86.1666 9.12121C-85.9374 9.12121 -85.7499 9.02349 -85.7499 8.90404C-85.7499 8.7846 -85.5624 8.68687 -85.3332 8.68687C-85.1041 8.68687 -84.9166 8.58914 -84.9166 8.4697C-84.9166 8.35025 -84.6353 8.25253 -84.2916 8.25253C-83.9478 8.25253 -83.6666 8.35025 -83.6666 8.4697C-83.6666 8.58914 -83.4791 8.68687 -83.2499 8.68687C-83.0207 8.68687 -82.8332 8.7846 -82.8332 8.90404C-82.8332 9.02349 -82.6457 9.12121 -82.4166 9.12121C-82.1874 9.12121 -81.9999 9.21894 -81.9999 9.33838C-81.9999 9.45783 -81.833 9.55556 -81.6293 9.55556C-81.4253 9.55556 -81.1234 9.75101 -80.9582 9.9899C-80.793 10.2288 -80.4911 10.4242 -80.2872 10.4242C-80.0834 10.4242 -79.9166 10.522 -79.9166 10.6414C-79.9166 10.7609 -79.4478 10.8586 -78.8749 10.8586C-78.302 10.8586 -77.8332 10.9563 -77.8332 11.0758C-77.8332 11.1965 -77.2776 11.2929 -76.5832 11.2929C-75.8889 11.2929 -75.3332 11.3894 -75.3332 11.5101C-75.3332 11.6308 -74.7776 11.7273 -74.0832 11.7273C-73.3889 11.7273 -72.8332 11.6308 -72.8332 11.5101C-72.8332 11.3894 -72.2776 11.2929 -71.5832 11.2929C-70.8889 11.2929 -70.3332 11.1965 -70.3332 11.0758C-70.3332 10.9563 -69.9582 10.8586 -69.4999 10.8586C-69.0416 10.8586 -68.6666 10.9563 -68.6666 11.0758C-68.6666 11.1952 -68.2916 11.2929 -67.8332 11.2929C-67.3749 11.2929 -66.9999 11.3907 -66.9999 11.5101C-66.9999 11.6295 -66.7186 11.7273 -66.3749 11.7273C-66.0311 11.7273 -65.7499 11.825 -65.7499 11.9444C-65.7499 12.0845 -63.4582 12.1616 -59.2916 12.1616C-55.1249 12.1616 -52.8332 12.0845 -52.8332 11.9444C-52.8332 11.825 -52.6664 11.7273 -52.4626 11.7273C-52.2587 11.7273 -51.9568 11.5318 -51.7916 11.2929C-51.6264 11.054 -51.3245 10.8586 -51.1205 10.8586C-50.9168 10.8586 -50.7499 10.7609 -50.7499 10.6414C-50.7499 10.522 -50.583 10.4242 -50.3793 10.4242C-50.1753 10.4242 -49.8734 10.2288 -49.7082 9.9899C-49.4586 9.62896 -49.1689 9.55556 -47.9955 9.55556C-47.1928 9.55556 -46.5832 9.46174 -46.5832 9.33838C-46.5832 9.21438 -45.9582 9.12121 -45.1249 9.12121C-44.2916 9.12121 -43.6666 9.02805 -43.6666 8.90404C-43.6666 8.77243 -42.7639 8.68687 -41.3749 8.68687C-39.9859 8.68687 -39.0832 8.6013 -39.0832 8.4697C-39.0832 8.35025 -38.7082 8.25253 -38.2499 8.25253C-37.7916 8.25253 -37.4166 8.1548 -37.4166 8.03535C-37.4166 7.91591 -37.1353 7.81818 -36.7916 7.81818C-36.4478 7.81818 -36.1666 7.72045 -36.1666 7.60101C-36.1666 7.48157 -35.7916 7.38384 -35.3332 7.38384C-34.8749 7.38384 -34.4999 7.28611 -34.4999 7.16667C-34.4999 7.04722 -34.0312 6.94949 -33.4582 6.94949C-32.8853 6.94949 -32.4166 7.04722 -32.4166 7.16667C-32.4166 7.29827 -31.5139 7.38384 -30.1249 7.38384C-28.7359 7.38384 -27.8332 7.29827 -27.8332 7.16667C-27.8332 7.04722 -27.6457 6.94949 -27.4166 6.94949C-27.1874 6.94949 -26.9999 6.85177 -26.9999 6.73232C-26.9999 6.61288 -26.8124 6.51515 -26.5832 6.51515C-26.3541 6.51515 -26.1666 6.41742 -26.1666 6.29798C-26.1666 6.17854 -25.9791 6.08081 -25.7499 6.08081C-25.5207 6.08081 -25.3332 5.98308 -25.3332 5.86364C-25.3332 5.74419 -25.0943 5.64646 -24.8024 5.64646C-24.4209 5.64646 -23.8666 5.21842 -22.8332 4.12626C-22.0422 3.29015 -21.2499 2.60606 -21.0724 2.60606C-20.8951 2.60606 -20.7499 2.50833 -20.7499 2.38889C-20.7499 2.2562 -19.7776 2.17172 -18.2499 2.17172C-16.7222 2.17172 -15.7499 2.08724 -15.7499 1.95455C-15.7499 1.8351 -15.3749 1.73737 -14.9166 1.73737C-14.4582 1.73737 -14.0832 1.63965 -14.0832 1.5202C-14.0832 1.40076 -13.6145 1.30303 -13.0416 1.30303C-12.4687 1.30303 -11.9999 1.2053 -11.9999 1.08586C-11.9999 0.959247 -11.3055 0.868687 -10.3332 0.868687H-8.66656V1.5202C-8.66656 1.87854 -8.57281 2.17172 -8.45824 2.17172C-8.34366 2.17172 -8.24991 2.56263 -8.24991 3.0404C-8.24991 3.76424 -8.18053 3.90909 -7.83324 3.90909C-7.55553 3.90909 -7.41656 4.05394 -7.41656 4.34343C-7.41656 4.63292 -7.27762 4.77778 -6.99991 4.77778C-6.77074 4.77778 -6.58324 4.8755 -6.58324 4.99495C-6.58324 5.11895 -5.95824 5.21212 -5.12491 5.21212C-4.29156 5.21212 -3.66656 5.30529 -3.66656 5.42929C-3.66656 5.54874 -3.29156 5.64646 -2.83324 5.64646C-2.37491 5.64646 -1.99991 5.74419 -1.99991 5.86364C-1.99991 5.98308 -1.85616 6.08081 -1.68053 6.08081C-1.31802 6.08081 0.0834351 7.46332 0.0834351 7.82079C0.0834351 8.17521 1.06177 9.12121 1.42822 9.12121C1.6053 9.12121 1.75009 9.21894 1.75009 9.33838C1.75009 9.47108 2.72238 9.55556 4.25009 9.55556C5.7778 9.55556 6.75009 9.64004 6.75009 9.77273C6.75009 9.89217 6.89488 9.9899 7.07196 9.9899C7.48885 9.9899 8.41676 10.9572 8.41676 11.3917C8.41676 11.5824 8.59656 11.7273 8.83344 11.7273C9.07343 11.7273 9.25009 11.8721 9.25009 12.0684C9.25009 12.5074 9.75177 13.0303 10.1728 13.0303C10.3528 13.0303 10.5001 13.128 10.5001 13.2475C10.5001 13.3669 10.9688 13.4646 11.5417 13.4646C12.1147 13.4646 12.5834 13.3669 12.5834 13.2475C12.5834 13.1187 13.3474 13.0303 14.4584 13.0303C15.5695 13.0303 16.3334 13.1187 16.3334 13.2475C16.3334 13.3669 16.5209 13.4646 16.7501 13.4646C16.9792 13.4646 17.1667 13.5624 17.1667 13.6818C17.1667 13.8013 17.3336 13.899 17.5374 13.899C17.7413 13.899 18.0432 14.0944 18.2084 14.3333C18.3736 14.5722 18.6755 14.7677 18.8794 14.7677C19.0832 14.7677 19.2501 14.8654 19.2501 14.9848C19.2501 15.1043 19.4376 15.202 19.6667 15.202C19.8959 15.202 20.0834 15.2997 20.0834 15.4192C20.0834 15.5386 20.2709 15.6364 20.5001 15.6364C20.7292 15.6364 20.9167 15.7341 20.9167 15.8535C20.9167 15.973 21.198 16.0707 21.5417 16.0707C21.8855 16.0707 22.1667 16.1684 22.1667 16.2879C22.1667 16.4073 22.3542 16.5051 22.5834 16.5051C22.8126 16.5051 23.0001 16.6028 23.0001 16.7222C23.0001 16.8417 23.2813 16.9394 23.6251 16.9394C23.9688 16.9394 24.2501 17.0371 24.2501 17.1566C24.2501 17.276 24.5313 17.3737 24.8751 17.3737C25.2188 17.3737 25.5001 17.4715 25.5001 17.5909C25.5001 17.7117 26.0557 17.8081 26.7501 17.8081C27.4445 17.8081 28.0001 17.9045 28.0001 18.0253C28.0001 18.1447 28.4482 18.2424 28.9957 18.2424C29.7524 18.2424 30.0634 18.3467 30.2917 18.6768C30.457 18.9157 30.718 19.1111 30.8722 19.1111C31.0261 19.1111 31.6086 19.5997 32.1667 20.197C32.7249 20.7942 33.328 21.2828 33.5074 21.2828C33.6868 21.2828 33.8334 21.3806 33.8334 21.5C33.8334 21.6194 34.0003 21.7172 34.2041 21.7172C34.408 21.7172 34.7099 21.9126 34.8751 22.1515C35.0403 22.3904 35.3421 22.5859 35.5461 22.5859C35.7778 22.5859 35.9167 22.7485 35.9167 23.0202C35.9167 23.2919 36.0557 23.4545 36.2874 23.4545C36.4913 23.4545 36.7932 23.65 36.9584 23.8889C37.1676 24.1914 37.4978 24.3232 38.0461 24.3232C38.479 24.3232 38.8334 24.421 38.8334 24.5404C38.8334 24.672 39.7361 24.7576 41.1251 24.7576C42.514 24.7576 43.4167 24.8431 43.4167 24.9747C43.4167 25.0942 43.7917 25.1919 44.2501 25.1919C44.7084 25.1919 45.0834 25.2896 45.0834 25.4091C45.0834 25.5285 45.3647 25.6263 45.7084 25.6263C46.0522 25.6263 46.3334 25.724 46.3334 25.8434C46.3334 25.9629 46.7084 26.0606 47.1667 26.0606C47.6251 26.0606 48.0001 26.1583 48.0001 26.2778C48.0001 26.415 49.4584 26.4949 51.9584 26.4949C54.4584 26.4949 55.9167 26.5749 55.9167 26.7121C55.9167 26.8387 56.6111 26.9293 57.5834 26.9293C58.5557 26.9293 59.2501 26.8387 59.2501 26.7121C59.2501 26.5927 59.417 26.4949 59.6207 26.4949C59.8247 26.4949 60.1265 26.2995 60.2917 26.0606C60.4569 25.8217 60.7382 25.6263 60.9167 25.6263C61.0953 25.6263 61.3765 25.4308 61.5417 25.1919C61.8797 24.7033 70.5001 24.4944 70.5001 24.9747C70.5001 25.1064 71.4028 25.1919 72.7917 25.1919C74.1807 25.1919 75.0834 25.2775 75.0834 25.4091C75.0834 25.5285 75.4584 25.6263 75.9167 25.6263C76.3751 25.6263 76.7501 25.724 76.7501 25.8434C76.7501 25.9629 77.0313 26.0606 77.3751 26.0606C77.7188 26.0606 78.0001 26.1583 78.0001 26.2778C78.0001 26.3972 78.1876 26.4949 78.4167 26.4949C78.6459 26.4949 78.8334 26.3972 78.8334 26.2778C78.8334 26.1583 79.1147 26.0606 79.4584 26.0606C79.8022 26.0606 80.0834 25.9629 80.0834 25.8434C80.0834 25.724 80.2709 25.6263 80.5001 25.6263C80.7292 25.6263 80.9167 25.5285 80.9167 25.4091C80.9167 25.2896 81.1042 25.1919 81.3334 25.1919C81.5626 25.1919 81.7501 25.0942 81.7501 24.9747C81.7501 24.8553 82.2188 24.7576 82.7917 24.7576C83.3647 24.7576 83.8334 24.6598 83.8334 24.5404C83.8334 24.421 84.2084 24.3232 84.6667 24.3232C85.1251 24.3232 85.5001 24.2255 85.5001 24.1061C85.5001 23.9866 85.6876 23.8889 85.9167 23.8889C86.1459 23.8889 86.3334 23.7912 86.3334 23.6717C86.3334 23.0704 89.4821 23.4352 90.0834 24.1061C90.4044 24.4644 90.8172 24.7576 91.0003 24.7576C91.1945 24.7576 91.3334 24.9387 91.3334 25.1919C91.3334 25.4814 91.4724 25.6263 91.7501 25.6263C91.9792 25.6263 92.1667 25.724 92.1667 25.8434C92.1667 25.9642 92.7224 26.0606 93.4167 26.0606C94.1111 26.0606 94.6667 25.9642 94.6667 25.8434C94.6667 25.724 94.948 25.6263 95.2917 25.6263C95.6355 25.6263 95.9167 25.5285 95.9167 25.4091C95.9167 25.2825 96.6111 25.1919 97.5834 25.1919C98.5557 25.1919 99.2501 25.2825 99.2501 25.4091C99.2501 25.5285 99.4376 25.6263 99.6667 25.6263C99.9834 25.6263 100.083 25.7711 100.083 26.2298C100.083 26.5842 100.255 26.9625 100.5 27.1465C100.729 27.3187 100.917 27.6892 100.917 27.97C100.917 28.5563 101.361 29.101 101.839 29.101C102.019 29.101 102.167 29.1987 102.167 29.3182C102.167 29.4376 102.354 29.5354 102.583 29.5354C102.813 29.5354 103 29.4376 103 29.3182C103 29.1987 103.469 29.101 104.042 29.101C104.615 29.101 105.083 29.0033 105.083 28.8838C105.083 28.4321 107.88 28.6265 108.208 29.101C108.374 29.3399 108.675 29.5354 108.879 29.5354C109.209 29.5354 109.25 29.7662 109.25 31.6139C109.25 33.7185 109.443 34.3131 110.127 34.3131C110.282 34.3131 110.543 34.5086 110.708 34.7475C110.874 34.9864 111.175 35.1818 111.379 35.1818C111.583 35.1818 111.75 35.2795 111.75 35.399C111.75 35.5184 111.9 35.6162 112.083 35.6162C112.266 35.6162 112.679 35.9093 113 36.2677C113.321 36.626 113.713 36.9192 113.871 36.9192C114.029 36.9192 114.293 37.1146 114.458 37.3535C114.624 37.5924 114.925 37.7879 115.129 37.7879C115.333 37.7879 115.5 37.8856 115.5 38.0051C115.5 38.1245 115.667 38.2222 115.871 38.2222C116.075 38.2222 116.377 38.4177 116.542 38.6566C116.707 38.8955 116.988 39.0909 117.167 39.0909C117.345 39.0909 117.627 39.2864 117.792 39.5253C117.957 39.7641 118.259 39.9596 118.463 39.9596C118.667 39.9596 118.833 40.0573 118.833 40.1768C118.833 40.2962 119 40.3939 119.204 40.3939C119.408 40.3939 119.71 40.5894 119.875 40.8283C120.04 41.0672 120.342 41.2626 120.546 41.2626C120.75 41.2626 120.917 41.3604 120.917 41.4798C120.917 41.5992 121.104 41.697 121.333 41.697C121.563 41.697 121.75 41.7947 121.75 41.9141C121.75 42.0336 121.938 42.1313 122.167 42.1313C122.396 42.1313 122.583 42.229 122.583 42.3485C122.583 42.4679 122.771 42.5657 123 42.5657C123.229 42.5657 123.417 42.6634 123.417 42.7828C123.417 42.9023 123.654 43 123.944 43C124.531 43 125.917 41.7085 125.917 41.1612C125.917 40.9781 126.084 40.8283 126.287 40.8283C126.491 40.8283 126.793 40.6328 126.958 40.3939C127.124 40.155 127.425 39.9596 127.629 39.9596C127.833 39.9596 128 39.8619 128 39.7424C128 39.623 128.188 39.5253 128.417 39.5253C128.646 39.5253 128.833 39.4275 128.833 39.3081C128.833 39.1886 129.021 39.0909 129.25 39.0909C129.479 39.0909 129.667 38.9932 129.667 38.8737C129.667 38.7543 129.834 38.6566 130.037 38.6566C130.241 38.6566 130.543 38.4611 130.708 38.2222C130.885 37.9673 131.248 37.7879 131.588 37.7879C131.906 37.7879 132.167 37.6902 132.167 37.5707C132.167 37.4467 132.792 37.3535 133.625 37.3535C134.458 37.3535 135.083 37.2604 135.083 37.1364C135.083 37.0169 135.365 36.9192 135.708 36.9192C136.194 36.9192 136.333 36.8228 136.333 36.4848C136.333 36.246 136.427 36.0505 136.542 36.0505C136.656 36.0505 136.75 35.855 136.75 35.6162C136.75 35.3773 136.844 35.1818 136.958 35.1818C137.073 35.1818 137.167 34.9332 137.167 34.6291C137.167 33.9174 138.037 33.0101 138.72 33.0101C139.012 33.0101 139.25 32.9124 139.25 32.7929C139.25 32.6722 139.806 32.5758 140.5 32.5758C141.194 32.5758 141.75 32.6722 141.75 32.7929C141.75 32.9124 142.219 33.0101 142.792 33.0101C143.365 33.0101 143.833 32.9124 143.833 32.7929C143.833 32.6735 144.021 32.5758 144.25 32.5758C144.479 32.5758 144.667 32.478 144.667 32.3586C144.667 32.2391 144.834 32.1414 145.037 32.1414C145.241 32.1414 145.543 31.946 145.708 31.7071C145.874 31.4682 146.175 31.2727 146.379 31.2727C146.583 31.2727 146.75 31.175 146.75 31.0556C146.75 30.9361 146.938 30.8384 147.167 30.8384C147.396 30.8384 147.583 30.7407 147.583 30.6212C147.583 30.5018 147.865 30.404 148.208 30.404C148.552 30.404 148.833 30.3063 148.833 30.1869C148.833 30.0674 149.115 29.9697 149.458 29.9697C149.802 29.9697 150.083 29.872 150.083 29.7525C150.083 29.6331 150.365 29.5354 150.708 29.5354C151.052 29.5354 151.333 29.4376 151.333 29.3182C151.333 29.1987 151.521 29.101 151.75 29.101C151.979 29.101 152.167 29.0033 152.167 28.8838C152.167 28.7644 152.448 28.6667 152.792 28.6667C153.135 28.6667 153.417 28.5689 153.417 28.4495C153.417 28.33 153.565 28.2323 153.745 28.2323C153.927 28.2323 154.435 27.8414 154.875 27.3636C155.315 26.8859 155.824 26.4949 156.005 26.4949C156.185 26.4949 156.333 26.3972 156.333 26.2778C156.333 26.1583 156.615 26.0606 156.958 26.0606C157.302 26.0606 157.583 25.9629 157.583 25.8434C157.583 25.724 157.771 25.6263 158 25.6263C158.229 25.6263 158.417 25.724 158.417 25.8434C158.417 25.9761 159.389 26.0606 160.917 26.0606C162.444 26.0606 163.417 25.9761 163.417 25.8434C163.417 25.724 163.584 25.6263 163.787 25.6263C163.991 25.6263 164.293 25.4308 164.458 25.1919C164.624 24.953 164.925 24.7576 165.129 24.7576C165.333 24.7576 165.5 24.6598 165.5 24.5404C165.5 24.421 165.781 24.3232 166.125 24.3232C166.469 24.3232 166.75 24.2255 166.75 24.1061C166.75 23.9866 167.125 23.8889 167.583 23.8889C168.042 23.8889 168.417 23.9866 168.417 24.1061C168.417 24.2255 168.792 24.3232 169.25 24.3232C169.708 24.3232 170.083 24.421 170.083 24.5404C170.083 24.6598 170.365 24.7576 170.708 24.7576C171.052 24.7576 171.333 24.8553 171.333 24.9747C171.333 25.0942 171.802 25.1919 172.375 25.1919C172.948 25.1919 173.417 25.0942 173.417 24.9747C173.417 24.8553 173.604 24.7576 173.833 24.7576C174.063 24.7576 174.25 24.6598 174.25 24.5404C174.25 24.421 174.4 24.3232 174.583 24.3232C174.766 24.3232 175.179 24.0301 175.5 23.6717C175.821 23.3134 176.234 23.0202 176.417 23.0202C176.6 23.0202 176.75 22.9225 176.75 22.803C176.75 22.6714 177.653 22.5859 179.042 22.5859C180.431 22.5859 181.333 22.6714 181.333 22.803C181.333 22.9225 181.615 23.0202 181.958 23.0202C182.302 23.0202 182.583 22.9225 182.583 22.803C182.583 22.679 183.208 22.5859 184.042 22.5859C184.875 22.5859 185.5 22.4927 185.5 22.3687C185.5 22.236 186.472 22.1515 188 22.1515C189.528 22.1515 190.5 22.236 190.5 22.3687C190.5 22.4881 190.961 22.5859 191.524 22.5859C192.14 22.5859 192.597 22.6942 192.67 22.8573C192.767 23.0745 192.816 23.0745 192.913 22.8573C192.98 22.7081 193.269 22.5859 193.555 22.5859C193.889 22.5859 194.36 22.2755 194.875 21.7172C195.315 21.2394 195.824 20.8485 196.005 20.8485C196.185 20.8485 196.333 20.7508 196.333 20.6313C196.333 20.5119 196.521 20.4141 196.75 20.4141C196.979 20.4141 197.167 20.3164 197.167 20.197C197.167 20.0602 198.556 19.9798 200.917 19.9798C203.278 19.9798 204.667 20.0602 204.667 20.197C204.667 20.3164 204.854 20.4141 205.083 20.4141C205.313 20.4141 205.5 20.5119 205.5 20.6313C205.5 20.7508 205.688 20.8485 205.917 20.8485C206.146 20.8485 206.333 20.9462 206.333 21.0657C206.333 21.1851 206.521 21.2828 206.75 21.2828C206.979 21.2828 207.167 21.3806 207.167 21.5C207.167 21.6194 207.354 21.7172 207.583 21.7172C207.813 21.7172 208 21.8149 208 21.9343C208 22.0538 208.469 22.1515 209.042 22.1515C209.615 22.1515 210.083 22.0538 210.083 21.9343C210.083 21.8027 210.986 21.7172 212.375 21.7172C213.764 21.7172 214.667 21.6316 214.667 21.5C214.667 21.3673 215.639 21.2828 217.167 21.2828C218.694 21.2828 219.667 21.1983 219.667 21.0657C219.667 20.9462 219.854 20.8485 220.083 20.8485C220.313 20.8485 220.5 20.7508 220.5 20.6313C220.5 20.5119 220.781 20.4141 221.125 20.4141C221.469 20.4141 221.75 20.3164 221.75 20.197C221.75 20.0775 221.938 19.9798 222.167 19.9798C222.396 19.9798 222.583 19.8821 222.583 19.7626C222.583 19.6419 223.139 19.5455 223.833 19.5455C224.528 19.5455 225.083 19.6419 225.083 19.7626C225.083 19.8821 225.552 19.9798 226.125 19.9798C226.698 19.9798 227.167 20.0775 227.167 20.197C227.167 20.3327 228.417 20.4141 230.5 20.4141C232.583 20.4141 233.833 20.4956 233.833 20.6313C233.833 20.7508 234.302 20.8485 234.875 20.8485C235.448 20.8485 235.917 20.9462 235.917 21.0657C235.917 21.1851 236.104 21.2828 236.333 21.2828C236.562 21.2828 236.75 21.3806 236.75 21.5C236.75 21.6194 236.938 21.7172 237.167 21.7172C237.396 21.7172 237.583 21.8149 237.583 21.9343C237.583 22.0538 237.857 22.1515 238.191 22.1515C238.525 22.1515 238.853 22.2736 238.92 22.423C239.017 22.6402 239.066 22.6402 239.163 22.423C239.23 22.2738 239.558 22.1515 239.892 22.1515C240.227 22.1515 240.5 22.0538 240.5 21.9343C240.5 21.8149 240.688 21.7172 240.917 21.7172C241.194 21.7172 241.333 21.5723 241.333 21.2828C241.333 21.0111 241.472 20.8485 241.704 20.8485C241.908 20.8485 242.21 20.653 242.375 20.4141C242.54 20.1753 242.842 19.9798 243.046 19.9798C243.25 19.9798 243.417 19.8821 243.417 19.7626C243.417 19.6419 243.972 19.5455 244.667 19.5455C245.361 19.5455 245.917 19.6419 245.917 19.7626C245.917 19.8821 246.385 19.9798 246.958 19.9798C247.531 19.9798 248 20.0775 248 20.197C248 20.3286 248.903 20.4141 250.292 20.4141C251.681 20.4141 252.583 20.3286 252.583 20.197C252.583 20.0704 253.278 19.9798 254.25 19.9798C255.222 19.9798 255.917 20.0704 255.917 20.197C255.917 20.3164 256.292 20.4141 256.75 20.4141C257.208 20.4141 257.583 20.5119 257.583 20.6313C257.583 20.7508 257.771 20.8485 258 20.8485C258.229 20.8485 258.417 20.9462 258.417 21.0657C258.417 21.1897 259.042 21.2828 259.875 21.2828C260.708 21.2828 261.333 21.376 261.333 21.5C261.333 21.6344 262.444 21.7172 264.25 21.7172C266.056 21.7172 267.167 21.7999 267.167 21.9343C267.167 22.0538 267.542 22.1515 268 22.1515C268.458 22.1515 268.833 22.2492 268.833 22.3687C268.833 22.4975 269.597 22.5859 270.708 22.5859C271.819 22.5859 272.583 22.4975 272.583 22.3687C272.583 22.2299 274.389 22.1515 277.583 22.1515C280.778 22.1515 282.583 22.0731 282.583 21.9343C282.583 21.8077 283.278 21.7172 284.25 21.7172C285.222 21.7172 285.917 21.6266 285.917 21.5C285.917 21.3806 286.292 21.2828 286.75 21.2828C287.208 21.2828 287.583 21.1851 287.583 21.0657C287.583 20.9462 287.865 20.8485 288.208 20.8485C288.552 20.8485 288.833 20.7508 288.833 20.6313C288.833 20.5119 289.208 20.4141 289.667 20.4141C290.125 20.4141 290.5 20.3164 290.5 20.197C290.5 20.0775 290.781 19.9798 291.125 19.9798C291.469 19.9798 291.75 20.0775 291.75 20.197C291.75 20.3164 292.125 20.4141 292.583 20.4141C293.042 20.4141 293.417 20.5119 293.417 20.6313C293.417 20.7508 293.698 20.8485 294.042 20.8485C294.385 20.8485 294.667 20.9462 294.667 21.0657C294.667 21.1944 295.431 21.2828 296.542 21.2828C297.653 21.2828 298.417 21.1944 298.417 21.0657C298.417 20.9462 298.698 20.8485 299.042 20.8485C299.385 20.8485 299.667 20.7508 299.667 20.6313C299.667 20.5119 300.135 20.4141 300.708 20.4141C301.281 20.4141 301.75 20.3164 301.75 20.197C301.75 20.0775 301.938 19.9798 302.167 19.9798C302.396 19.9798 302.583 19.8821 302.583 19.7626C302.583 19.6432 302.75 19.5455 302.954 19.5455C303.158 19.5455 303.46 19.35 303.625 19.1111C303.79 18.8722 304.092 18.6768 304.296 18.6768C304.5 18.6768 304.667 18.579 304.667 18.4596C304.667 18.3402 304.854 18.2424 305.083 18.2424C305.312 18.2424 305.5 18.1447 305.5 18.0253C305.5 17.9045 306.056 17.8081 306.75 17.8081C307.444 17.8081 308 17.9045 308 18.0253C308 18.1447 308.167 18.2424 308.371 18.2424C308.575 18.2424 308.876 18.4379 309.042 18.6768C309.207 18.9157 309.509 19.1111 309.713 19.1111C309.916 19.1111 310.083 19.2088 310.083 19.3283C310.083 19.4477 310.271 19.5455 310.5 19.5455C310.729 19.5455 310.917 19.6432 310.917 19.7626C310.917 19.8821 311.104 19.9798 311.333 19.9798C311.562 19.9798 311.75 20.0775 311.75 20.197C311.75 20.3164 311.938 20.4141 312.167 20.4141C312.396 20.4141 312.583 20.3164 312.583 20.197C312.583 20.073 313.208 19.9798 314.042 19.9798C314.875 19.9798 315.5 19.8866 315.5 19.7626C315.5 19.6432 315.969 19.5455 316.542 19.5455C317.115 19.5455 317.583 19.4477 317.583 19.3283C317.583 19.2043 318.208 19.1111 319.042 19.1111C319.875 19.1111 320.5 19.0179 320.5 18.8939C320.5 18.7699 321.125 18.6768 321.958 18.6768C322.792 18.6768 323.417 18.5836 323.417 18.4596C323.417 18.3402 323.792 18.2424 324.25 18.2424C324.708 18.2424 325.083 18.1447 325.083 18.0253C325.083 17.9058 325.552 17.8081 326.125 17.8081C326.698 17.8081 327.167 17.7104 327.167 17.5909C327.167 17.4565 328.278 17.3737 330.083 17.3737C331.889 17.3737 333 17.4565 333 17.5909C333 17.7104 333.239 17.8081 333.53 17.8081C334.115 17.8081 335.083 18.6822 335.083 19.2099C335.083 19.3945 335.177 19.5455 335.292 19.5455C335.406 19.5455 335.5 19.7409 335.5 19.9798C335.5 20.2693 335.639 20.4141 335.917 20.4141C336.146 20.4141 336.333 20.5119 336.333 20.6313C336.333 20.7508 336.521 20.8485 336.75 20.8485C336.979 20.8485 337.167 20.9462 337.167 21.0657C337.167 21.1851 337.542 21.2828 338 21.2828C338.458 21.2828 338.833 21.1851 338.833 21.0657C338.833 20.9417 339.458 20.8485 340.292 20.8485C341.125 20.8485 341.75 20.9417 341.75 21.0657C341.75 21.1851 341.991 21.2828 342.286 21.2828C342.889 21.2828 343.417 21.7319 343.417 22.2447C343.417 22.4323 343.51 22.5859 343.625 22.5859C343.74 22.5859 343.833 22.7813 343.833 23.0202C343.833 23.3097 343.972 23.4545 344.25 23.4545C344.528 23.4545 344.667 23.5994 344.667 23.8889C344.667 24.2652 344.806 24.3232 345.708 24.3232C346.281 24.3232 346.75 24.2255 346.75 24.1061C346.75 23.9866 347.031 23.8889 347.375 23.8889C347.719 23.8889 348 23.7912 348 23.6717C348 23.2104 351.627 23.4094 351.958 23.8889C352.135 24.1438 352.498 24.3232 352.838 24.3232C353.156 24.3232 353.417 24.421 353.417 24.5404C353.417 24.6598 353.604 24.7576 353.833 24.7576C354.062 24.7576 354.25 24.8553 354.25 24.9747C354.25 25.0942 354.625 25.1919 355.083 25.1919C355.542 25.1919 355.917 25.2896 355.917 25.4091C355.917 25.5285 356.292 25.6263 356.75 25.6263C357.208 25.6263 357.583 25.724 357.583 25.8434C357.583 25.9629 358.052 26.0606 358.625 26.0606C359.198 26.0606 359.667 26.1583 359.667 26.2778C359.667 26.3972 359.854 26.4949 360.083 26.4949C360.312 26.4949 360.5 26.5927 360.5 26.7121C360.5 26.8316 360.667 26.9293 360.871 26.9293C361.075 26.9293 361.376 27.1247 361.542 27.3636C361.707 27.6025 362.009 27.798 362.213 27.798C362.416 27.798 362.583 27.8957 362.583 28.0152C362.583 28.1346 362.771 28.2323 363 28.2323C363.229 28.2323 363.417 28.33 363.417 28.4495C363.417 28.5689 363.698 28.6667 364.042 28.6667C364.385 28.6667 364.667 28.5689 364.667 28.4495C364.667 28.33 364.854 28.2323 365.083 28.2323C365.312 28.2323 365.5 28.1346 365.5 28.0152C365.5 27.8957 365.781 27.798 366.125 27.798C366.469 27.798 366.75 27.7003 366.75 27.5808C366.75 27.4614 367.031 27.3636 367.375 27.3636C367.719 27.3636 368 27.2659 368 27.1465C368 27.0257 368.556 26.9293 369.25 26.9293C369.944 26.9293 370.5 27.0257 370.5 27.1465C370.5 27.28 371.542 27.3636 373.208 27.3636C374.875 27.3636 375.917 27.4472 375.917 27.5808C375.917 27.7176 377.306 27.798 379.667 27.798C382.028 27.798 383.417 27.7176 383.417 27.5808C383.417 27.4614 383.604 27.3636 383.833 27.3636C384.069 27.3636 384.25 27.2188 384.25 27.0307C384.25 26.5983 385.599 25.1919 386.014 25.1919C386.19 25.1919 386.333 25.0942 386.333 24.9747C386.333 24.8553 386.708 24.7576 387.167 24.7576C387.625 24.7576 388 24.6598 388 24.5404C388 24.4088 388.903 24.3232 390.292 24.3232C391.681 24.3232 392.583 24.2377 392.583 24.1061C392.583 23.9866 392.771 23.8889 393 23.8889C393.229 23.8889 393.417 23.9866 393.417 24.1061C393.417 24.2388 394.389 24.3232 395.917 24.3232C397.444 24.3232 398.417 24.2388 398.417 24.1061C398.417 23.9866 398.604 23.8889 398.833 23.8889C399.062 23.8889 399.25 23.7912 399.25 23.6717C399.25 23.5523 399.438 23.4545 399.667 23.4545C399.896 23.4545 400.083 23.3568 400.083 23.2374C400.083 23.1016 401.333 23.0202 403.417 23.0202C405.5 23.0202 406.75 23.1016 406.75 23.2374C406.75 23.3614 407.375 23.4545 408.208 23.4545C409.042 23.4545 409.667 23.5477 409.667 23.6717C409.667 23.7912 409.948 23.8889 410.292 23.8889C410.635 23.8889 410.917 23.9866 410.917 24.1061C410.917 24.2268 411.472 24.3232 412.167 24.3232C412.861 24.3232 413.417 24.4197 413.417 24.5404C413.417 24.6692 414.181 24.7576 415.292 24.7576C416.403 24.7576 417.167 24.846 417.167 24.9747C417.167 25.0942 417.498 25.1919 417.903 25.1919C418.815 25.1919 420.083 26.3877 420.083 27.2479C420.083 27.5504 420.177 27.798 420.292 27.798C420.406 27.798 420.5 28.0912 420.5 28.4495C420.5 28.9562 420.592 29.101 420.917 29.101C421.146 29.101 421.333 29.1987 421.333 29.3182C421.333 29.4376 421.521 29.5354 421.75 29.5354C421.979 29.5354 422.167 29.6331 422.167 29.7525C422.167 29.8813 422.931 29.9697 424.042 29.9697C425.153 29.9697 425.917 30.0581 425.917 30.1869C425.917 30.3063 426.198 30.404 426.542 30.404C426.885 30.404 427.167 30.5018 427.167 30.6212C427.167 30.7407 427.354 30.8384 427.583 30.8384C427.812 30.8384 428 30.9361 428 31.0556C428 31.175 428.281 31.2727 428.625 31.2727C428.969 31.2727 429.25 31.3705 429.25 31.4899C429.25 31.6093 429.438 31.7071 429.667 31.7071C429.896 31.7071 430.083 31.8048 430.083 31.9242C430.083 32.0437 430.365 32.1414 430.708 32.1414C431.052 32.1414 431.333 32.2391 431.333 32.3586C431.333 32.478 431.521 32.5758 431.75 32.5758C431.979 32.5758 432.167 32.6735 432.167 32.7929C432.167 32.9124 432.354 33.0101 432.583 33.0101C432.812 33.0101 433 33.1078 433 33.2273C433 33.3467 433.167 33.4444 433.371 33.4444C433.575 33.4444 433.876 33.6399 434.042 33.8788C434.373 34.3583 438 34.5572 438 34.096C438 33.9765 438.188 33.8788 438.417 33.8788C438.646 33.8788 438.833 33.7811 438.833 33.6616C438.833 33.5272 439.944 33.4444 441.75 33.4444C443.556 33.4444 444.667 33.5272 444.667 33.6616C444.667 33.7811 445.135 33.8788 445.708 33.8788C446.281 33.8788 446.75 33.9765 446.75 34.096C446.75 34.2247 447.514 34.3131 448.625 34.3131C449.736 34.3131 450.5 34.4015 450.5 34.5303C450.5 34.6497 450.875 34.7475 451.333 34.7475C451.792 34.7475 452.167 34.8452 452.167 34.9646C452.167 35.0841 452.315 35.1818 452.495 35.1818C452.676 35.1818 453.185 35.5727 453.625 36.0505C454.26 36.7392 454.577 36.9192 455.154 36.9192C455.554 36.9192 455.937 37.0415 456.004 37.1907C456.101 37.4078 456.149 37.4078 456.246 37.1907C456.335 36.9941 457.11 36.9192 459.059 36.9192C460.714 36.9192 461.75 36.8356 461.75 36.702C461.75 36.578 462.375 36.4848 463.208 36.4848C464.042 36.4848 464.667 36.3917 464.667 36.2677C464.667 36.1437 465.292 36.0505 466.125 36.0505C466.958 36.0505 467.583 35.9573 467.583 35.8333C467.583 35.7093 468.208 35.6162 469.042 35.6162C469.875 35.6162 470.5 35.523 470.5 35.399C470.5 35.2795 470.781 35.1818 471.125 35.1818C471.469 35.1818 471.75 35.0841 471.75 34.9646C471.75 34.8452 472.031 34.7475 472.375 34.7475C472.719 34.7475 473 34.6497 473 34.5303C473 34.4109 473.375 34.3131 473.833 34.3131C474.292 34.3131 474.667 34.2154 474.667 34.096C474.667 33.9765 474.854 33.8788 475.083 33.8788C475.312 33.8788 475.5 33.7811 475.5 33.6616C475.5 33.5422 475.688 33.4444 475.917 33.4444C476.146 33.4444 476.333 33.3467 476.333 33.2273C476.333 33.1078 476.5 33.0101 476.704 33.0101C476.908 33.0101 477.21 32.8146 477.375 32.5758C477.54 32.3369 477.842 32.1414 478.046 32.1414C478.25 32.1414 478.417 32.0437 478.417 31.9242C478.417 31.8048 478.698 31.7071 479.042 31.7071C479.385 31.7071 479.667 31.6093 479.667 31.4899C479.667 31.3705 480.042 31.2727 480.5 31.2727C480.958 31.2727 481.333 31.3705 481.333 31.4899C481.333 31.6202 482.167 31.7071 483.417 31.7071C484.667 31.7071 485.5 31.6202 485.5 31.4899C485.5 31.3692 486.056 31.2727 486.75 31.2727C487.444 31.2727 488 31.1763 488 31.0556C488 30.9361 488.375 30.8384 488.833 30.8384C489.292 30.8384 489.667 30.7407 489.667 30.6212C489.667 30.5018 489.854 30.404 490.083 30.404C490.312 30.404 490.5 30.3063 490.5 30.1869C490.5 30.0674 490.667 29.9697 490.871 29.9697C491.075 29.9697 491.376 29.7742 491.542 29.5354C491.707 29.2965 492.009 29.101 492.213 29.101C492.416 29.101 492.583 29.0033 492.583 28.8838C492.583 28.7644 492.827 28.6667 493.125 28.6667C493.458 28.6667 493.891 28.4158 494.25 28.0152C494.571 27.6568 494.984 27.3636 495.167 27.3636C495.35 27.3636 495.5 27.2659 495.5 27.1465C495.5 27.027 495.688 26.9293 495.917 26.9293C496.146 26.9293 496.333 26.8316 496.333 26.7121C496.333 26.5914 496.889 26.4949 497.583 26.4949C498.278 26.4949 498.833 26.5914 498.833 26.7121C498.833 26.8316 499.208 26.9293 499.667 26.9293C500.125 26.9293 500.5 27.027 500.5 27.1465C500.5 27.2752 501.264 27.3636 502.375 27.3636C503.486 27.3636 504.25 27.2752 504.25 27.1465C504.25 27.0138 505.222 26.9293 506.75 26.9293C508.278 26.9293 509.25 27.0138 509.25 27.1465C509.25 27.2659 509.625 27.3636 510.083 27.3636C510.542 27.3636 510.917 27.4614 510.917 27.5808C510.917 27.7016 511.472 27.798 512.167 27.798C512.861 27.798 513.417 27.7016 513.417 27.5808C513.417 27.4614 513.698 27.3636 514.042 27.3636C514.385 27.3636 514.667 27.2659 514.667 27.1465C514.667 27.027 514.948 26.9293 515.292 26.9293C515.635 26.9293 515.917 26.8316 515.917 26.7121C515.917 26.3727 521.267 26.4255 521.42 26.7664C521.517 26.9836 521.566 26.9836 521.663 26.7664C521.748 26.576 522.402 26.4949 523.851 26.4949C525.089 26.4949 525.917 26.4079 525.917 26.2778C525.917 26.1512 526.611 26.0606 527.583 26.0606C528.556 26.0606 529.25 26.1512 529.25 26.2778C529.25 26.3972 529.625 26.4949 530.083 26.4949C530.542 26.4949 530.917 26.5927 530.917 26.7121C530.917 27.4086 533.247 26.9228 534.042 26.0606C534.482 25.5828 534.99 25.1919 535.171 25.1919C535.361 25.1919 535.5 25.0084 535.5 24.7576C535.5 24.4197 535.639 24.3232 536.125 24.3232C536.469 24.3232 536.75 24.2255 536.75 24.1061C536.75 23.9866 537.031 23.8889 537.375 23.8889C537.719 23.8889 538 23.7912 538 23.6717C538 23.5332 539.736 23.4545 542.792 23.4545C545.847 23.4545 547.583 23.3759 547.583 23.2374C547.583 23.1179 547.958 23.0202 548.417 23.0202C548.875 23.0202 549.25 22.9225 549.25 22.803C549.25 22.6836 549.531 22.5859 549.875 22.5859C550.219 22.5859 550.5 22.4881 550.5 22.3687C550.5 22.2371 551.403 22.1515 552.792 22.1515C554.181 22.1515 555.083 22.2371 555.083 22.3687C555.083 22.4881 555.365 22.5859 555.708 22.5859C556.052 22.5859 556.333 22.6836 556.333 22.803C556.333 22.927 556.958 23.0202 557.792 23.0202C558.625 23.0202 559.25 22.927 559.25 22.803C559.25 22.6836 559.438 22.5859 559.667 22.5859C559.896 22.5859 560.083 22.4881 560.083 22.3687C560.083 22.2492 560.271 22.1515 560.5 22.1515C560.729 22.1515 560.917 22.0538 560.917 21.9343C560.917 21.8149 561.104 21.7172 561.333 21.7172C561.562 21.7172 561.75 21.6194 561.75 21.5C561.75 21.3638 563.069 21.2828 565.292 21.2828C567.514 21.2828 568.833 21.2018 568.833 21.0657C568.833 20.9321 569.875 20.8485 571.542 20.8485C573.208 20.8485 574.25 20.9321 574.25 21.0657C574.25 21.1851 574.625 21.2828 575.083 21.2828C575.542 21.2828 575.917 21.3806 575.917 21.5C575.917 21.6194 576.198 21.7172 576.542 21.7172C576.885 21.7172 577.167 21.8149 577.167 21.9343C577.167 22.0583 577.792 22.1515 578.625 22.1515C579.458 22.1515 580.083 22.0583 580.083 21.9343C580.083 21.8149 580.271 21.7172 580.5 21.7172C580.729 21.7172 580.917 21.6194 580.917 21.5C580.917 21.3806 581.292 21.2828 581.75 21.2828C582.208 21.2828 582.583 21.1851 582.583 21.0657C582.583 20.9449 583.139 20.8485 583.833 20.8485C584.528 20.8485 585.083 20.9449 585.083 21.0657C585.083 21.1851 585.344 21.2828 585.662 21.2828C586.002 21.2828 586.365 21.4622 586.542 21.7172C586.718 21.9721 587.081 22.1515 587.421 22.1515C587.739 22.1515 588 22.2492 588 22.3687C588 22.4881 588.281 22.5859 588.625 22.5859C588.969 22.5859 589.25 22.6836 589.25 22.803C589.25 22.9225 589.438 23.0202 589.667 23.0202C589.896 23.0202 590.083 22.9225 590.083 22.803C590.083 22.679 590.708 22.5859 591.542 22.5859C592.375 22.5859 593 22.4927 593 22.3687C593 22.2447 593.625 22.1515 594.458 22.1515C595.292 22.1515 595.917 22.2447 595.917 22.3687C595.917 22.4881 596.198 22.5859 596.542 22.5859C596.885 22.5859 597.167 22.4881 597.167 22.3687C597.167 22.2492 597.354 22.1515 597.583 22.1515C597.995 22.1515 598 22.0067 598 11.0758V0H198H-202V8.37653Z" fill="white"/>
</svg>
