<svg width="393" height="43" viewBox="0 0 393 43" fill="none" xmlns="http://www.w3.org/2000/svg">
<path fill-rule="evenodd" clip-rule="evenodd" d="M-203 34.6235C-203 25.355 -203.04 25.6263 -201.661 25.6263C-201.251 25.6263 -200.917 25.5285 -200.917 25.4091C-200.917 25.2896 -200.542 25.1919 -200.083 25.1919C-199.625 25.1919 -199.25 25.2896 -199.25 25.4091C-199.25 25.5285 -198.969 25.6263 -198.625 25.6263C-198.281 25.6263 -198 25.724 -198 25.8434C-198 25.9629 -197.812 26.0606 -197.583 26.0606C-197.354 26.0606 -197.167 26.1583 -197.167 26.2778C-197.167 26.3972 -196.885 26.4949 -196.542 26.4949C-196.198 26.4949 -195.917 26.5927 -195.917 26.7121C-195.917 26.8316 -195.635 26.9293 -195.292 26.9293C-194.948 26.9293 -194.667 26.8316 -194.667 26.7121C-194.667 26.5927 -194.292 26.4949 -193.833 26.4949C-193.375 26.4949 -193 26.3972 -193 26.2778C-193 26.1583 -192.812 26.0606 -192.583 26.0606C-192.354 26.0606 -192.167 25.9629 -192.167 25.8434C-192.167 25.724 -191.885 25.6263 -191.542 25.6263C-191.198 25.6263 -190.917 25.5285 -190.917 25.4091C-190.917 25.2734 -189.667 25.1919 -187.583 25.1919C-185.5 25.1919 -184.25 25.2734 -184.25 25.4091C-184.25 25.5285 -183.969 25.6263 -183.625 25.6263C-183.281 25.6263 -183 25.724 -183 25.8434C-183 25.9629 -182.719 26.0606 -182.375 26.0606C-182.031 26.0606 -181.75 26.1583 -181.75 26.2778C-181.75 26.3972 -181.375 26.4949 -180.917 26.4949C-180.458 26.4949 -180.083 26.5927 -180.083 26.7121C-180.083 26.8316 -179.614 26.9293 -179.042 26.9293C-178.469 26.9293 -178 27.027 -178 27.1465C-178 27.2659 -177.719 27.3636 -177.375 27.3636C-177.031 27.3636 -176.75 27.4614 -176.75 27.5808C-176.75 27.7096 -175.986 27.798 -174.875 27.798C-173.764 27.798 -173 27.7096 -173 27.5808C-173 27.4614 -172.719 27.3636 -172.375 27.3636C-172.031 27.3636 -171.75 27.2659 -171.75 27.1465C-171.75 27.027 -171.469 26.9293 -171.125 26.9293C-170.781 26.9293 -170.5 26.8316 -170.5 26.7121C-170.5 26.5927 -170.219 26.4949 -169.875 26.4949C-169.531 26.4949 -169.25 26.5927 -169.25 26.7121C-169.25 26.8316 -169.062 26.9293 -168.833 26.9293C-168.604 26.9293 -168.417 27.027 -168.417 27.1465C-168.417 27.2659 -168.229 27.3636 -168 27.3636C-167.771 27.3636 -167.583 27.4614 -167.583 27.5808C-167.583 27.7003 -167.396 27.798 -167.167 27.798C-166.937 27.798 -166.75 27.8957 -166.75 28.0152C-166.75 28.1346 -166.469 28.2323 -166.125 28.2323C-165.781 28.2323 -165.5 28.3301 -165.5 28.4495C-165.5 28.5689 -165.32 28.6667 -165.101 28.6667C-164.881 28.6667 -164.647 28.7889 -164.58 28.9381C-164.483 29.1553 -164.434 29.1553 -164.337 28.9381C-164.27 28.7887 -163.942 28.6667 -163.608 28.6667C-163.273 28.6667 -163 28.5689 -163 28.4495C-163 28.3301 -162.719 28.2323 -162.375 28.2323C-162.031 28.2323 -161.75 28.1346 -161.75 28.0152C-161.75 27.8957 -161.562 27.798 -161.333 27.798C-161.104 27.798 -160.917 27.7003 -160.917 27.5808C-160.917 27.4542 -160.222 27.3636 -159.25 27.3636C-158.278 27.3636 -157.583 27.4542 -157.583 27.5808C-157.583 27.7003 -157.302 27.798 -156.958 27.798C-156.614 27.798 -156.333 27.8957 -156.333 28.0152C-156.333 28.1468 -155.431 28.2323 -154.042 28.2323C-152.653 28.2323 -151.75 28.3179 -151.75 28.4495C-151.75 28.5689 -151.469 28.6667 -151.125 28.6667C-150.781 28.6667 -150.5 28.7644 -150.5 28.8838C-150.5 29.0104 -149.806 29.101 -148.833 29.101C-147.861 29.101 -147.167 29.1916 -147.167 29.3182C-147.167 29.4485 -146.333 29.5354 -145.083 29.5354C-143.833 29.5354 -143 29.4485 -143 29.3182C-143 29.1987 -142.833 29.101 -142.629 29.101C-142.425 29.101 -142.123 28.9056 -141.958 28.6667C-141.509 28.0175 -138.24 28.0175 -137.792 28.6667C-137.626 28.9056 -137.324 29.101 -137.121 29.101C-136.917 29.101 -136.75 29.1987 -136.75 29.3182C-136.75 29.4376 -136.375 29.5354 -135.917 29.5354C-135.458 29.5354 -135.083 29.6331 -135.083 29.7525C-135.083 29.872 -134.802 29.9697 -134.458 29.9697C-134.114 29.9697 -133.833 29.872 -133.833 29.7525C-133.833 29.6318 -133.278 29.5354 -132.583 29.5354C-131.889 29.5354 -131.333 29.4389 -131.333 29.3182C-131.333 29.1987 -130.958 29.101 -130.5 29.101C-130.042 29.101 -129.667 29.1987 -129.667 29.3182C-129.667 29.4376 -129.385 29.5354 -129.042 29.5354C-128.698 29.5354 -128.417 29.6331 -128.417 29.7525C-128.417 29.872 -128.25 29.9697 -128.046 29.9697C-127.842 29.9697 -127.54 30.1652 -127.375 30.404C-127.21 30.6429 -126.908 30.8384 -126.704 30.8384C-126.5 30.8384 -126.333 30.9361 -126.333 31.0556C-126.333 31.175 -125.864 31.2727 -125.292 31.2727C-124.719 31.2727 -124.25 31.3705 -124.25 31.4899C-124.25 31.6093 -123.969 31.7071 -123.625 31.7071C-123.281 31.7071 -123 31.8048 -123 31.9242C-123 32.0437 -122.625 32.1414 -122.167 32.1414C-121.708 32.1414 -121.333 32.2391 -121.333 32.3586C-121.333 32.4793 -120.778 32.5758 -120.083 32.5758C-119.389 32.5758 -118.833 32.4793 -118.833 32.3586C-118.833 32.2391 -118.458 32.1414 -118 32.1414C-117.542 32.1414 -117.167 32.0437 -117.167 31.9242C-117.167 31.7939 -116.333 31.7071 -115.083 31.7071C-113.833 31.7071 -113 31.6202 -113 31.4899C-113 30.7535 -109.842 31.2732 -109.042 32.1414C-108.601 32.6192 -108.114 33.0101 -107.958 33.0101C-107.802 33.0101 -107.54 33.2056 -107.375 33.4444C-107.047 33.919 -104.25 34.1133 -104.25 33.6616C-104.25 33.5422 -104.062 33.4444 -103.833 33.4444C-103.604 33.4444 -103.417 33.3467 -103.417 33.2273C-103.417 33.1078 -103.229 33.0101 -103 33.0101C-102.771 33.0101 -102.583 32.9124 -102.583 32.7929C-102.583 32.6735 -102.302 32.5758 -101.958 32.5758C-101.614 32.5758 -101.333 32.478 -101.333 32.3586C-101.333 32.2189 -99.2499 32.1414 -95.4999 32.1414C-91.7499 32.1414 -89.6666 32.2189 -89.6666 32.3586C-89.6666 32.478 -89.4997 32.5758 -89.2959 32.5758C-89.092 32.5758 -88.7901 32.7712 -88.6249 33.0101C-88.4597 33.249 -88.1578 33.4444 -87.9538 33.4444C-87.7501 33.4444 -87.5832 33.5422 -87.5832 33.6616C-87.5832 33.7811 -87.3957 33.8788 -87.1665 33.8788C-86.9374 33.8788 -86.7499 33.9765 -86.7499 34.096C-86.7499 34.2154 -86.5624 34.3131 -86.3332 34.3131C-86.104 34.3131 -85.9166 34.4109 -85.9166 34.5303C-85.9166 34.6497 -85.6353 34.7475 -85.2915 34.7475C-84.9478 34.7475 -84.6665 34.6497 -84.6665 34.5303C-84.6665 34.4109 -84.4791 34.3131 -84.2499 34.3131C-84.0207 34.3131 -83.8332 34.2154 -83.8332 34.096C-83.8332 33.9765 -83.6457 33.8788 -83.4166 33.8788C-83.1874 33.8788 -82.9999 33.7811 -82.9999 33.6616C-82.9999 33.5422 -82.833 33.4444 -82.6293 33.4444C-82.4253 33.4444 -82.1234 33.249 -81.9582 33.0101C-81.793 32.7712 -81.4911 32.5758 -81.2872 32.5758C-81.0834 32.5758 -80.9165 32.478 -80.9165 32.3586C-80.9165 32.2391 -80.4478 32.1414 -79.8749 32.1414C-79.302 32.1414 -78.8332 32.0437 -78.8332 31.9242C-78.8332 31.8035 -78.2776 31.7071 -77.5832 31.7071C-76.8888 31.7071 -76.3332 31.6106 -76.3332 31.4899C-76.3332 31.3692 -75.7776 31.2727 -75.0832 31.2727C-74.3888 31.2727 -73.8332 31.3692 -73.8332 31.4899C-73.8332 31.6106 -73.2776 31.7071 -72.5832 31.7071C-71.8888 31.7071 -71.3332 31.8035 -71.3332 31.9242C-71.3332 32.0437 -70.9582 32.1414 -70.4999 32.1414C-70.0415 32.1414 -69.6666 32.0437 -69.6666 31.9242C-69.6666 31.8048 -69.2915 31.7071 -68.8332 31.7071C-68.3749 31.7071 -67.9999 31.6093 -67.9999 31.4899C-67.9999 31.3705 -67.7186 31.2727 -67.3749 31.2727C-67.0311 31.2727 -66.7499 31.175 -66.7499 31.0556C-66.7499 30.9155 -64.4582 30.8384 -60.2916 30.8384C-56.1249 30.8384 -53.8332 30.9155 -53.8332 31.0556C-53.8332 31.175 -53.6663 31.2727 -53.4626 31.2727C-53.2586 31.2727 -52.9568 31.4682 -52.7915 31.7071C-52.6263 31.946 -52.3245 32.1414 -52.1205 32.1414C-51.9168 32.1414 -51.7499 32.2391 -51.7499 32.3586C-51.7499 32.478 -51.583 32.5758 -51.3793 32.5758C-51.1753 32.5758 -50.8734 32.7712 -50.7082 33.0101C-50.4586 33.371 -50.1688 33.4444 -48.9955 33.4444C-48.1928 33.4444 -47.5832 33.5383 -47.5832 33.6616C-47.5832 33.7856 -46.9582 33.8788 -46.1249 33.8788C-45.2916 33.8788 -44.6666 33.972 -44.6666 34.096C-44.6666 34.2276 -43.7638 34.3131 -42.3749 34.3131C-40.9859 34.3131 -40.0832 34.3987 -40.0832 34.5303C-40.0832 34.6497 -39.7082 34.7475 -39.2499 34.7475C-38.7915 34.7475 -38.4166 34.8452 -38.4166 34.9646C-38.4166 35.0841 -38.1353 35.1818 -37.7915 35.1818C-37.4478 35.1818 -37.1665 35.2795 -37.1665 35.399C-37.1665 35.5184 -36.7915 35.6162 -36.3332 35.6162C-35.8749 35.6162 -35.4999 35.7139 -35.4999 35.8333C-35.4999 35.9528 -35.0311 36.0505 -34.4582 36.0505C-33.8853 36.0505 -33.4165 35.9528 -33.4165 35.8333C-33.4165 35.7017 -32.5138 35.6162 -31.1249 35.6162C-29.7359 35.6162 -28.8332 35.7017 -28.8332 35.8333C-28.8332 35.9528 -28.6457 36.0505 -28.4165 36.0505C-28.1874 36.0505 -27.9999 36.1482 -27.9999 36.2677C-27.9999 36.3871 -27.8124 36.4848 -27.5832 36.4848C-27.354 36.4848 -27.1665 36.5826 -27.1665 36.702C-27.1665 36.8215 -26.979 36.9192 -26.7499 36.9192C-26.5207 36.9192 -26.3332 37.0169 -26.3332 37.1364C-26.3332 37.2558 -26.0943 37.3535 -25.8024 37.3535C-25.4209 37.3535 -24.8665 37.7816 -23.8332 38.8737C-23.0422 39.7098 -22.2499 40.3939 -22.0724 40.3939C-21.8951 40.3939 -21.7499 40.4917 -21.7499 40.6111C-21.7499 40.7438 -20.7776 40.8283 -19.2499 40.8283C-17.7222 40.8283 -16.7499 40.9128 -16.7499 41.0455C-16.7499 41.1649 -16.3749 41.2626 -15.9165 41.2626C-15.4582 41.2626 -15.0832 41.3604 -15.0832 41.4798C-15.0832 41.5992 -14.6145 41.697 -14.0415 41.697C-13.4686 41.697 -12.9999 41.7947 -12.9999 41.9141C-12.9999 42.0408 -12.3055 42.1313 -11.3332 42.1313H-9.66655V41.4798C-9.66655 41.1215 -9.5728 40.8283 -9.45822 40.8283C-9.34363 40.8283 -9.24989 40.4374 -9.24989 39.9596C-9.24989 39.2358 -9.18051 39.0909 -8.83322 39.0909C-8.55551 39.0909 -8.41655 38.9461 -8.41655 38.6566C-8.41655 38.3671 -8.27759 38.2222 -7.99988 38.2222C-7.77072 38.2222 -7.58322 38.1245 -7.58322 38.0051C-7.58322 37.881 -6.95822 37.7879 -6.12488 37.7879C-5.29155 37.7879 -4.66655 37.6947 -4.66655 37.5707C-4.66655 37.4513 -4.29156 37.3535 -3.83322 37.3535C-3.37489 37.3535 -2.99988 37.2558 -2.99988 37.1364C-2.99988 37.0169 -2.85614 36.9192 -2.68051 36.9192C-2.31801 36.9192 -0.91655 35.5367 -0.91655 35.1792C-0.91655 34.8248 0.0617828 33.8788 0.428238 33.8788C0.605316 33.8788 0.750107 33.7811 0.750107 33.6616C0.750107 33.5289 1.72241 33.4444 3.25012 33.4444C4.77782 33.4444 5.75012 33.36 5.75012 33.2273C5.75012 33.1078 5.89491 33.0101 6.07199 33.0101C6.48886 33.0101 7.41679 32.0428 7.41679 31.6083C7.41679 31.4176 7.59657 31.2727 7.83345 31.2727C8.07346 31.2727 8.25011 31.1279 8.25011 30.9316C8.25011 30.4926 8.75179 29.9697 9.17282 29.9697C9.35283 29.9697 9.50012 29.872 9.50012 29.7525C9.50012 29.6331 9.96886 29.5354 10.5418 29.5354C11.1147 29.5354 11.5834 29.6331 11.5834 29.7525C11.5834 29.8813 12.3474 29.9697 13.4584 29.9697C14.5695 29.9697 15.3334 29.8813 15.3334 29.7525C15.3334 29.6331 15.5209 29.5354 15.7501 29.5354C15.9793 29.5354 16.1668 29.4376 16.1668 29.3182C16.1668 29.1987 16.3336 29.101 16.5374 29.101C16.7414 29.101 17.0432 28.9056 17.2084 28.6667C17.3736 28.4278 17.6755 28.2323 17.8795 28.2323C18.0832 28.2323 18.2501 28.1346 18.2501 28.0152C18.2501 27.8957 18.4376 27.798 18.6668 27.798C18.8959 27.798 19.0834 27.7003 19.0834 27.5808C19.0834 27.4614 19.2709 27.3636 19.5001 27.3636C19.7293 27.3636 19.9168 27.2659 19.9168 27.1465C19.9168 27.027 20.198 26.9293 20.5418 26.9293C20.8855 26.9293 21.1668 26.8316 21.1668 26.7121C21.1668 26.5927 21.3543 26.4949 21.5834 26.4949C21.8126 26.4949 22.0001 26.3972 22.0001 26.2778C22.0001 26.1583 22.2813 26.0606 22.6251 26.0606C22.9688 26.0606 23.2501 25.9629 23.2501 25.8434C23.2501 25.724 23.5313 25.6263 23.8751 25.6263C24.2188 25.6263 24.5001 25.5285 24.5001 25.4091C24.5001 25.2883 25.0557 25.1919 25.7501 25.1919C26.4445 25.1919 27.0001 25.0955 27.0001 24.9747C27.0001 24.8553 27.4482 24.7576 27.9957 24.7576C28.7524 24.7576 29.0634 24.6533 29.2918 24.3232C29.457 24.0843 29.718 23.8889 29.8722 23.8889C30.0261 23.8889 30.6086 23.4003 31.1668 22.803C31.7249 22.2058 32.328 21.7172 32.5074 21.7172C32.6868 21.7172 32.8334 21.6194 32.8334 21.5C32.8334 21.3806 33.0003 21.2828 33.2041 21.2828C33.408 21.2828 33.7099 21.0874 33.8751 20.8485C34.0403 20.6096 34.3422 20.4141 34.5461 20.4141C34.7778 20.4141 34.9168 20.2515 34.9168 19.9798C34.9168 19.7081 35.0557 19.5455 35.2874 19.5455C35.4914 19.5455 35.7932 19.35 35.9584 19.1111C36.1676 18.8086 36.4978 18.6768 37.0461 18.6768C37.479 18.6768 37.8334 18.579 37.8334 18.4596C37.8334 18.328 38.7361 18.2424 40.1251 18.2424C41.5141 18.2424 42.4168 18.1569 42.4168 18.0253C42.4168 17.9058 42.7918 17.8081 43.2501 17.8081C43.7084 17.8081 44.0834 17.7104 44.0834 17.5909C44.0834 17.4715 44.3647 17.3737 44.7084 17.3737C45.0522 17.3737 45.3334 17.276 45.3334 17.1566C45.3334 17.0371 45.7084 16.9394 46.1668 16.9394C46.6251 16.9394 47.0001 16.8417 47.0001 16.7222C47.0001 16.585 48.4584 16.5051 50.9584 16.5051C53.4584 16.5051 54.9168 16.4251 54.9168 16.2879C54.9168 16.1613 55.6111 16.0707 56.5834 16.0707C57.5557 16.0707 58.2501 16.1613 58.2501 16.2879C58.2501 16.4073 58.417 16.5051 58.6207 16.5051C58.8247 16.5051 59.1266 16.7005 59.2918 16.9394C59.457 17.1783 59.7382 17.3737 59.9168 17.3737C60.0953 17.3737 60.3766 17.5692 60.5417 17.8081C60.8797 18.2967 69.5001 18.5056 69.5001 18.0253C69.5001 17.8936 70.4028 17.8081 71.7918 17.8081C73.1807 17.8081 74.0834 17.7225 74.0834 17.5909C74.0834 17.4715 74.4584 17.3737 74.9168 17.3737C75.3751 17.3737 75.7501 17.276 75.7501 17.1566C75.7501 17.0371 76.0313 16.9394 76.3751 16.9394C76.7188 16.9394 77.0001 16.8417 77.0001 16.7222C77.0001 16.6028 77.1876 16.5051 77.4168 16.5051C77.6459 16.5051 77.8334 16.6028 77.8334 16.7222C77.8334 16.8417 78.1147 16.9394 78.4584 16.9394C78.8022 16.9394 79.0834 17.0371 79.0834 17.1566C79.0834 17.276 79.2709 17.3737 79.5001 17.3737C79.7292 17.3737 79.9168 17.4715 79.9168 17.5909C79.9168 17.7104 80.1043 17.8081 80.3334 17.8081C80.5626 17.8081 80.7501 17.9058 80.7501 18.0253C80.7501 18.1447 81.2188 18.2424 81.7918 18.2424C82.3647 18.2424 82.8334 18.3402 82.8334 18.4596C82.8334 18.579 83.2084 18.6768 83.6668 18.6768C84.1251 18.6768 84.5001 18.7745 84.5001 18.8939C84.5001 19.0134 84.6876 19.1111 84.9168 19.1111C85.1459 19.1111 85.3334 19.2088 85.3334 19.3283C85.3334 19.9296 88.4822 19.5648 89.0834 18.8939C89.4044 18.5356 89.8172 18.2424 90.0003 18.2424C90.1945 18.2424 90.3334 18.0613 90.3334 17.8081C90.3334 17.5186 90.4724 17.3737 90.7501 17.3737C90.9793 17.3737 91.1668 17.276 91.1668 17.1566C91.1668 17.0358 91.7224 16.9394 92.4167 16.9394C93.1111 16.9394 93.6668 17.0358 93.6668 17.1566C93.6668 17.276 93.948 17.3737 94.2918 17.3737C94.6355 17.3737 94.9167 17.4715 94.9167 17.5909C94.9167 17.7175 95.6111 17.8081 96.5834 17.8081C97.5557 17.8081 98.2501 17.7175 98.2501 17.5909C98.2501 17.4715 98.4376 17.3737 98.6667 17.3737C98.9834 17.3737 99.0834 17.2289 99.0834 16.7702C99.0834 16.4158 99.2555 16.0375 99.5001 15.8535C99.7293 15.6813 99.9168 15.3108 99.9168 15.03C99.9168 14.4437 100.361 13.899 100.839 13.899C101.019 13.899 101.167 13.8013 101.167 13.6818C101.167 13.5624 101.354 13.4646 101.583 13.4646C101.813 13.4646 102 13.5624 102 13.6818C102 13.8013 102.469 13.899 103.042 13.899C103.615 13.899 104.083 13.9967 104.083 14.1162C104.083 14.5679 106.88 14.3735 107.208 13.899C107.374 13.6601 107.676 13.4646 107.879 13.4646C108.209 13.4646 108.25 13.2338 108.25 11.3861C108.25 9.28149 108.443 8.68687 109.127 8.68687C109.282 8.68687 109.543 8.49141 109.708 8.25253C109.874 8.01364 110.176 7.81818 110.379 7.81818C110.583 7.81818 110.75 7.72046 110.75 7.60101C110.75 7.48156 110.9 7.38384 111.083 7.38384C111.266 7.38384 111.679 7.09066 112 6.73232C112.321 6.37399 112.713 6.08081 112.871 6.08081C113.029 6.08081 113.293 5.88535 113.458 5.64647C113.624 5.40758 113.926 5.21212 114.129 5.21212C114.333 5.21212 114.5 5.1144 114.5 4.99495C114.5 4.8755 114.667 4.77778 114.871 4.77778C115.075 4.77778 115.377 4.58232 115.542 4.34343C115.707 4.10455 115.988 3.90909 116.167 3.90909C116.345 3.90909 116.627 3.71363 116.792 3.47475C116.957 3.23586 117.259 3.04041 117.463 3.04041C117.667 3.04041 117.833 2.94268 117.833 2.82323C117.833 2.70379 118 2.60606 118.204 2.60606C118.408 2.60606 118.71 2.41061 118.875 2.17172C119.04 1.93283 119.342 1.73737 119.546 1.73737C119.75 1.73737 119.917 1.63965 119.917 1.5202C119.917 1.40076 120.104 1.30303 120.333 1.30303C120.563 1.30303 120.75 1.2053 120.75 1.08586C120.75 0.966412 120.938 0.868687 121.167 0.868687C121.396 0.868687 121.583 0.770962 121.583 0.651516C121.583 0.53207 121.771 0.434345 122 0.434345C122.229 0.434345 122.417 0.336617 122.417 0.217171C122.417 0.0977249 122.654 0 122.944 0C123.531 0 124.917 1.29152 124.917 1.83879C124.917 2.02187 125.084 2.17172 125.287 2.17172C125.491 2.17172 125.793 2.36717 125.958 2.60606C126.124 2.84495 126.426 3.04041 126.629 3.04041C126.833 3.04041 127 3.13813 127 3.25758C127 3.37702 127.188 3.47475 127.417 3.47475C127.646 3.47475 127.833 3.57248 127.833 3.69192C127.833 3.81137 128.021 3.90909 128.25 3.90909C128.479 3.90909 128.667 4.00682 128.667 4.12626C128.667 4.24571 128.834 4.34343 129.037 4.34343C129.241 4.34343 129.543 4.53889 129.708 4.77778C129.885 5.03274 130.248 5.21212 130.588 5.21212C130.906 5.21212 131.167 5.30985 131.167 5.42929C131.167 5.5533 131.792 5.64647 132.625 5.64647C133.458 5.64647 134.083 5.73963 134.083 5.86364C134.083 5.98308 134.365 6.08081 134.708 6.08081C135.194 6.08081 135.333 6.17723 135.333 6.51515C135.333 6.75404 135.427 6.9495 135.542 6.9495C135.656 6.9495 135.75 7.14495 135.75 7.38384C135.75 7.62273 135.844 7.81818 135.958 7.81818C136.073 7.81818 136.167 8.06684 136.167 8.37088C136.167 9.08255 137.037 9.9899 137.72 9.9899C138.012 9.9899 138.25 10.0876 138.25 10.2071C138.25 10.3278 138.806 10.4242 139.5 10.4242C140.194 10.4242 140.75 10.3278 140.75 10.2071C140.75 10.0876 141.219 9.9899 141.792 9.9899C142.365 9.9899 142.833 10.0876 142.833 10.2071C142.833 10.3265 143.021 10.4242 143.25 10.4242C143.479 10.4242 143.667 10.522 143.667 10.6414C143.667 10.7609 143.834 10.8586 144.037 10.8586C144.241 10.8586 144.543 11.054 144.708 11.2929C144.874 11.5318 145.176 11.7273 145.379 11.7273C145.583 11.7273 145.75 11.825 145.75 11.9444C145.75 12.0639 145.938 12.1616 146.167 12.1616C146.396 12.1616 146.583 12.2593 146.583 12.3788C146.583 12.4982 146.865 12.596 147.208 12.596C147.552 12.596 147.833 12.6937 147.833 12.8131C147.833 12.9326 148.115 13.0303 148.458 13.0303C148.802 13.0303 149.083 13.128 149.083 13.2475C149.083 13.3669 149.365 13.4646 149.708 13.4646C150.052 13.4646 150.333 13.5624 150.333 13.6818C150.333 13.8013 150.521 13.899 150.75 13.899C150.979 13.899 151.167 13.9967 151.167 14.1162C151.167 14.2356 151.448 14.3333 151.792 14.3333C152.135 14.3333 152.417 14.4311 152.417 14.5505C152.417 14.6699 152.565 14.7677 152.746 14.7677C152.927 14.7677 153.435 15.1586 153.875 15.6364C154.316 16.1141 154.824 16.5051 155.005 16.5051C155.186 16.5051 155.333 16.6028 155.333 16.7222C155.333 16.8417 155.615 16.9394 155.958 16.9394C156.302 16.9394 156.583 17.0371 156.583 17.1566C156.583 17.276 156.771 17.3737 157 17.3737C157.229 17.3737 157.417 17.276 157.417 17.1566C157.417 17.0239 158.389 16.9394 159.917 16.9394C161.444 16.9394 162.417 17.0239 162.417 17.1566C162.417 17.276 162.584 17.3737 162.787 17.3737C162.991 17.3737 163.293 17.5692 163.458 17.8081C163.624 18.047 163.926 18.2424 164.129 18.2424C164.333 18.2424 164.5 18.3402 164.5 18.4596C164.5 18.579 164.781 18.6768 165.125 18.6768C165.469 18.6768 165.75 18.7745 165.75 18.8939C165.75 19.0134 166.125 19.1111 166.583 19.1111C167.042 19.1111 167.417 19.0134 167.417 18.8939C167.417 18.7745 167.792 18.6768 168.25 18.6768C168.708 18.6768 169.083 18.579 169.083 18.4596C169.083 18.3402 169.365 18.2424 169.708 18.2424C170.052 18.2424 170.333 18.1447 170.333 18.0253C170.333 17.9058 170.802 17.8081 171.375 17.8081C171.948 17.8081 172.417 17.9058 172.417 18.0253C172.417 18.1447 172.604 18.2424 172.833 18.2424C173.063 18.2424 173.25 18.3402 173.25 18.4596C173.25 18.579 173.4 18.6768 173.583 18.6768C173.766 18.6768 174.179 18.9699 174.5 19.3283C174.821 19.6866 175.234 19.9798 175.417 19.9798C175.6 19.9798 175.75 20.0775 175.75 20.197C175.75 20.3286 176.653 20.4141 178.042 20.4141C179.431 20.4141 180.333 20.3286 180.333 20.197C180.333 20.0775 180.615 19.9798 180.958 19.9798C181.302 19.9798 181.583 20.0775 181.583 20.197C181.583 20.321 182.208 20.4141 183.042 20.4141C183.875 20.4141 184.5 20.5073 184.5 20.6313C184.5 20.764 185.472 20.8485 187 20.8485C188.528 20.8485 189.5 20.764 189.5 20.6313C189.5 20.5119 189.961 20.4141 190.524 20.4141C191.14 20.4141 191.597 20.3058 191.67 20.1427C191.767 19.9255 191.816 19.9255 191.913 20.1427C191.98 20.2919 192.269 20.4141 192.555 20.4141C192.889 20.4141 193.361 20.7245 193.875 21.2828C194.316 21.7606 194.824 22.1515 195.005 22.1515C195.186 22.1515 195.333 22.2492 195.333 22.3687C195.333 22.4881 195.521 22.5859 195.75 22.5859C195.979 22.5859 196.167 22.6836 196.167 22.803C196.167 22.9398 197.556 23.0202 199.917 23.0202C202.278 23.0202 203.667 22.9398 203.667 22.803C203.667 22.6836 203.854 22.5859 204.083 22.5859C204.313 22.5859 204.5 22.4881 204.5 22.3687C204.5 22.2492 204.688 22.1515 204.917 22.1515C205.146 22.1515 205.333 22.0538 205.333 21.9343C205.333 21.8149 205.521 21.7172 205.75 21.7172C205.979 21.7172 206.167 21.6194 206.167 21.5C206.167 21.3806 206.354 21.2828 206.583 21.2828C206.813 21.2828 207 21.1851 207 21.0657C207 20.9462 207.469 20.8485 208.042 20.8485C208.615 20.8485 209.083 20.9462 209.083 21.0657C209.083 21.1973 209.986 21.2828 211.375 21.2828C212.764 21.2828 213.667 21.3684 213.667 21.5C213.667 21.6327 214.639 21.7172 216.167 21.7172C217.694 21.7172 218.667 21.8017 218.667 21.9343C218.667 22.0538 218.854 22.1515 219.083 22.1515C219.313 22.1515 219.5 22.2492 219.5 22.3687C219.5 22.4881 219.781 22.5859 220.125 22.5859C220.469 22.5859 220.75 22.6836 220.75 22.803C220.75 22.9225 220.938 23.0202 221.167 23.0202C221.396 23.0202 221.583 23.1179 221.583 23.2374C221.583 23.3581 222.139 23.4545 222.833 23.4545C223.528 23.4545 224.083 23.3581 224.083 23.2374C224.083 23.1179 224.552 23.0202 225.125 23.0202C225.698 23.0202 226.167 22.9225 226.167 22.803C226.167 22.6673 227.417 22.5859 229.5 22.5859C231.583 22.5859 232.833 22.5044 232.833 22.3687C232.833 22.2492 233.302 22.1515 233.875 22.1515C234.448 22.1515 234.917 22.0538 234.917 21.9343C234.917 21.8149 235.104 21.7172 235.333 21.7172C235.563 21.7172 235.75 21.6194 235.75 21.5C235.75 21.3806 235.938 21.2828 236.167 21.2828C236.396 21.2828 236.583 21.1851 236.583 21.0657C236.583 20.9462 236.857 20.8485 237.191 20.8485C237.525 20.8485 237.853 20.7264 237.92 20.577C238.017 20.3598 238.066 20.3598 238.163 20.577C238.23 20.7262 238.558 20.8485 238.892 20.8485C239.227 20.8485 239.5 20.9462 239.5 21.0657C239.5 21.1851 239.688 21.2828 239.917 21.2828C240.194 21.2828 240.333 21.4277 240.333 21.7172C240.333 21.9889 240.472 22.1515 240.704 22.1515C240.908 22.1515 241.21 22.347 241.375 22.5859C241.54 22.8247 241.842 23.0202 242.046 23.0202C242.25 23.0202 242.417 23.1179 242.417 23.2374C242.417 23.3581 242.972 23.4545 243.667 23.4545C244.361 23.4545 244.917 23.3581 244.917 23.2374C244.917 23.1179 245.385 23.0202 245.958 23.0202C246.531 23.0202 247 22.9225 247 22.803C247 22.6714 247.903 22.5859 249.292 22.5859C250.681 22.5859 251.583 22.6714 251.583 22.803C251.583 22.9296 252.278 23.0202 253.25 23.0202C254.222 23.0202 254.917 22.9296 254.917 22.803C254.917 22.6836 255.292 22.5859 255.75 22.5859C256.208 22.5859 256.583 22.4881 256.583 22.3687C256.583 22.2492 256.771 22.1515 257 22.1515C257.229 22.1515 257.417 22.0538 257.417 21.9343C257.417 21.8103 258.042 21.7172 258.875 21.7172C259.708 21.7172 260.333 21.624 260.333 21.5C260.333 21.3656 261.444 21.2828 263.25 21.2828C265.056 21.2828 266.167 21.2001 266.167 21.0657C266.167 20.9462 266.542 20.8485 267 20.8485C267.458 20.8485 267.833 20.7508 267.833 20.6313C267.833 20.5025 268.597 20.4141 269.708 20.4141C270.819 20.4141 271.583 20.5025 271.583 20.6313C271.583 20.7701 273.389 20.8485 276.583 20.8485C279.778 20.8485 281.583 20.9269 281.583 21.0657C281.583 21.1923 282.278 21.2828 283.25 21.2828C284.222 21.2828 284.917 21.3734 284.917 21.5C284.917 21.6194 285.292 21.7172 285.75 21.7172C286.208 21.7172 286.583 21.8149 286.583 21.9343C286.583 22.0538 286.865 22.1515 287.208 22.1515C287.552 22.1515 287.833 22.2492 287.833 22.3687C287.833 22.4881 288.208 22.5859 288.667 22.5859C289.125 22.5859 289.5 22.6836 289.5 22.803C289.5 22.9225 289.781 23.0202 290.125 23.0202C290.469 23.0202 290.75 22.9225 290.75 22.803C290.75 22.6836 291.125 22.5859 291.583 22.5859C292.042 22.5859 292.417 22.4881 292.417 22.3687C292.417 22.2492 292.698 22.1515 293.042 22.1515C293.385 22.1515 293.667 22.0538 293.667 21.9343C293.667 21.8056 294.431 21.7172 295.542 21.7172C296.653 21.7172 297.417 21.8056 297.417 21.9343C297.417 22.0538 297.698 22.1515 298.042 22.1515C298.385 22.1515 298.667 22.2492 298.667 22.3687C298.667 22.4881 299.135 22.5859 299.708 22.5859C300.281 22.5859 300.75 22.6836 300.75 22.803C300.75 22.9225 300.938 23.0202 301.167 23.0202C301.396 23.0202 301.583 23.1179 301.583 23.2374C301.583 23.3568 301.75 23.4545 301.954 23.4545C302.158 23.4545 302.46 23.65 302.625 23.8889C302.79 24.1278 303.092 24.3232 303.296 24.3232C303.5 24.3232 303.667 24.421 303.667 24.5404C303.667 24.6598 303.854 24.7576 304.083 24.7576C304.313 24.7576 304.5 24.8553 304.5 24.9747C304.5 25.0955 305.056 25.1919 305.75 25.1919C306.444 25.1919 307 25.0955 307 24.9747C307 24.8553 307.167 24.7576 307.371 24.7576C307.575 24.7576 307.877 24.5621 308.042 24.3232C308.207 24.0843 308.509 23.8889 308.713 23.8889C308.916 23.8889 309.083 23.7912 309.083 23.6717C309.083 23.5523 309.271 23.4545 309.5 23.4545C309.729 23.4545 309.917 23.3568 309.917 23.2374C309.917 23.1179 310.104 23.0202 310.333 23.0202C310.563 23.0202 310.75 22.9225 310.75 22.803C310.75 22.6836 310.938 22.5859 311.167 22.5859C311.396 22.5859 311.583 22.6836 311.583 22.803C311.583 22.927 312.208 23.0202 313.042 23.0202C313.875 23.0202 314.5 23.1134 314.5 23.2374C314.5 23.3568 314.969 23.4545 315.542 23.4545C316.115 23.4545 316.583 23.5523 316.583 23.6717C316.583 23.7957 317.208 23.8889 318.042 23.8889C318.875 23.8889 319.5 23.9821 319.5 24.1061C319.5 24.2301 320.125 24.3232 320.958 24.3232C321.792 24.3232 322.417 24.4164 322.417 24.5404C322.417 24.6598 322.792 24.7576 323.25 24.7576C323.708 24.7576 324.083 24.8553 324.083 24.9747C324.083 25.0942 324.552 25.1919 325.125 25.1919C325.698 25.1919 326.167 25.2896 326.167 25.4091C326.167 25.5435 327.278 25.6263 329.083 25.6263C330.889 25.6263 332 25.5435 332 25.4091C332 25.2896 332.239 25.1919 332.53 25.1919C333.115 25.1919 334.083 24.3178 334.083 23.7901C334.083 23.6055 334.177 23.4545 334.292 23.4545C334.406 23.4545 334.5 23.2591 334.5 23.0202C334.5 22.7307 334.639 22.5859 334.917 22.5859C335.146 22.5859 335.333 22.4881 335.333 22.3687C335.333 22.2492 335.521 22.1515 335.75 22.1515C335.979 22.1515 336.167 22.0538 336.167 21.9343C336.167 21.8149 336.542 21.7172 337 21.7172C337.458 21.7172 337.833 21.8149 337.833 21.9343C337.833 22.0583 338.458 22.1515 339.292 22.1515C340.125 22.1515 340.75 22.0583 340.75 21.9343C340.75 21.8149 340.991 21.7172 341.286 21.7172C341.889 21.7172 342.417 21.2681 342.417 20.7553C342.417 20.5677 342.51 20.4141 342.625 20.4141C342.74 20.4141 342.833 20.2187 342.833 19.9798C342.833 19.6903 342.972 19.5455 343.25 19.5455C343.528 19.5455 343.667 19.4006 343.667 19.1111C343.667 18.7348 343.806 18.6768 344.708 18.6768C345.281 18.6768 345.75 18.7745 345.75 18.8939C345.75 19.0134 346.031 19.1111 346.375 19.1111C346.719 19.1111 347 19.2088 347 19.3283C347 19.7896 350.627 19.5906 350.958 19.1111C351.135 18.8562 351.498 18.6768 351.838 18.6768C352.156 18.6768 352.417 18.579 352.417 18.4596C352.417 18.3402 352.604 18.2424 352.833 18.2424C353.062 18.2424 353.25 18.1447 353.25 18.0253C353.25 17.9058 353.625 17.8081 354.083 17.8081C354.542 17.8081 354.917 17.7104 354.917 17.5909C354.917 17.4715 355.292 17.3737 355.75 17.3737C356.208 17.3737 356.583 17.276 356.583 17.1566C356.583 17.0371 357.052 16.9394 357.625 16.9394C358.198 16.9394 358.667 16.8417 358.667 16.7222C358.667 16.6028 358.854 16.5051 359.083 16.5051C359.312 16.5051 359.5 16.4073 359.5 16.2879C359.5 16.1684 359.667 16.0707 359.871 16.0707C360.075 16.0707 360.377 15.8753 360.542 15.6364C360.707 15.3975 361.009 15.202 361.213 15.202C361.417 15.202 361.583 15.1043 361.583 14.9848C361.583 14.8654 361.771 14.7677 362 14.7677C362.229 14.7677 362.417 14.6699 362.417 14.5505C362.417 14.4311 362.698 14.3333 363.042 14.3333C363.385 14.3333 363.667 14.4311 363.667 14.5505C363.667 14.6699 363.854 14.7677 364.083 14.7677C364.313 14.7677 364.5 14.8654 364.5 14.9848C364.5 15.1043 364.781 15.202 365.125 15.202C365.469 15.202 365.75 15.2997 365.75 15.4192C365.75 15.5386 366.031 15.6364 366.375 15.6364C366.719 15.6364 367 15.7341 367 15.8535C367 15.9743 367.556 16.0707 368.25 16.0707C368.944 16.0707 369.5 15.9743 369.5 15.8535C369.5 15.72 370.542 15.6364 372.208 15.6364C373.875 15.6364 374.917 15.5528 374.917 15.4192C374.917 15.2824 376.306 15.202 378.667 15.202C381.028 15.202 382.417 15.2824 382.417 15.4192C382.417 15.5386 382.604 15.6364 382.833 15.6364C383.069 15.6364 383.25 15.7812 383.25 15.9693C383.25 16.4017 384.599 17.8081 385.014 17.8081C385.19 17.8081 385.333 17.9058 385.333 18.0253C385.333 18.1447 385.708 18.2424 386.167 18.2424C386.625 18.2424 387 18.3402 387 18.4596C387 18.5912 387.903 18.6768 389.292 18.6768C390.681 18.6768 391.583 18.7623 391.583 18.8939C391.583 19.0134 391.771 19.1111 392 19.1111C392.229 19.1111 392.417 19.0134 392.417 18.8939C392.417 18.7612 393.389 18.6768 394.917 18.6768C396.444 18.6768 397.417 18.7612 397.417 18.8939C397.417 19.0134 397.604 19.1111 397.833 19.1111C398.063 19.1111 398.25 19.2088 398.25 19.3283C398.25 19.4477 398.438 19.5455 398.667 19.5455C398.896 19.5455 399.083 19.6432 399.083 19.7626C399.083 19.8984 400.333 19.9798 402.417 19.9798C404.5 19.9798 405.75 19.8984 405.75 19.7626C405.75 19.6386 406.375 19.5455 407.208 19.5455C408.042 19.5455 408.667 19.4523 408.667 19.3283C408.667 19.2088 408.948 19.1111 409.292 19.1111C409.635 19.1111 409.917 19.0134 409.917 18.8939C409.917 18.7732 410.472 18.6768 411.167 18.6768C411.861 18.6768 412.417 18.5803 412.417 18.4596C412.417 18.3308 413.181 18.2424 414.292 18.2424C415.403 18.2424 416.167 18.154 416.167 18.0253C416.167 17.9058 416.498 17.8081 416.903 17.8081C417.815 17.8081 419.083 16.6123 419.083 15.7521C419.083 15.4496 419.177 15.202 419.292 15.202C419.406 15.202 419.5 14.9088 419.5 14.5505C419.5 14.0438 419.593 13.899 419.917 13.899C420.146 13.899 420.333 13.8013 420.333 13.6818C420.333 13.5624 420.521 13.4646 420.75 13.4646C420.979 13.4646 421.167 13.3669 421.167 13.2475C421.167 13.1187 421.931 13.0303 423.042 13.0303C424.153 13.0303 424.917 12.9419 424.917 12.8131C424.917 12.6937 425.198 12.596 425.542 12.596C425.885 12.596 426.167 12.4982 426.167 12.3788C426.167 12.2593 426.354 12.1616 426.583 12.1616C426.813 12.1616 427 12.0639 427 11.9444C427 11.825 427.281 11.7273 427.625 11.7273C427.969 11.7273 428.25 11.6295 428.25 11.5101C428.25 11.3907 428.438 11.2929 428.667 11.2929C428.896 11.2929 429.083 11.1952 429.083 11.0758C429.083 10.9563 429.365 10.8586 429.708 10.8586C430.052 10.8586 430.333 10.7609 430.333 10.6414C430.333 10.522 430.521 10.4242 430.75 10.4242C430.979 10.4242 431.167 10.3265 431.167 10.2071C431.167 10.0876 431.354 9.9899 431.583 9.9899C431.813 9.9899 432 9.89217 432 9.77273C432 9.65328 432.167 9.55556 432.371 9.55556C432.575 9.55556 432.877 9.3601 433.042 9.12121C433.373 8.6417 437 8.44277 437 8.90404C437 9.02349 437.188 9.12121 437.417 9.12121C437.646 9.12121 437.833 9.21894 437.833 9.33838C437.833 9.47281 438.944 9.55556 440.75 9.55556C442.556 9.55556 443.667 9.47281 443.667 9.33838C443.667 9.21894 444.135 9.12121 444.708 9.12121C445.281 9.12121 445.75 9.02349 445.75 8.90404C445.75 8.77526 446.514 8.68687 447.625 8.68687C448.736 8.68687 449.5 8.59848 449.5 8.4697C449.5 8.35025 449.875 8.25253 450.333 8.25253C450.792 8.25253 451.167 8.1548 451.167 8.03535C451.167 7.91591 451.315 7.81818 451.495 7.81818C451.677 7.81818 452.185 7.42728 452.625 6.9495C453.26 6.26085 453.577 6.08081 454.154 6.08081C454.554 6.08081 454.937 5.95854 455.004 5.80935C455.101 5.59217 455.149 5.59217 455.247 5.80935C455.335 6.00589 456.11 6.08081 458.059 6.08081C459.714 6.08081 460.75 6.16442 460.75 6.29798C460.75 6.42199 461.375 6.51515 462.208 6.51515C463.042 6.51515 463.667 6.60832 463.667 6.73232C463.667 6.85633 464.292 6.9495 465.125 6.9495C465.958 6.9495 466.583 7.04266 466.583 7.16667C466.583 7.29067 467.208 7.38384 468.042 7.38384C468.875 7.38384 469.5 7.47701 469.5 7.60101C469.5 7.72046 469.781 7.81818 470.125 7.81818C470.469 7.81818 470.75 7.91591 470.75 8.03535C470.75 8.1548 471.031 8.25253 471.375 8.25253C471.719 8.25253 472 8.35025 472 8.4697C472 8.58914 472.375 8.68687 472.833 8.68687C473.292 8.68687 473.667 8.7846 473.667 8.90404C473.667 9.02349 473.854 9.12121 474.083 9.12121C474.313 9.12121 474.5 9.21894 474.5 9.33838C474.5 9.45783 474.688 9.55556 474.917 9.55556C475.146 9.55556 475.333 9.65328 475.333 9.77273C475.333 9.89217 475.5 9.9899 475.704 9.9899C475.908 9.9899 476.21 10.1854 476.375 10.4242C476.54 10.6631 476.842 10.8586 477.046 10.8586C477.25 10.8586 477.417 10.9563 477.417 11.0758C477.417 11.1952 477.698 11.2929 478.042 11.2929C478.385 11.2929 478.667 11.3907 478.667 11.5101C478.667 11.6295 479.042 11.7273 479.5 11.7273C479.958 11.7273 480.333 11.6295 480.333 11.5101C480.333 11.3798 481.167 11.2929 482.417 11.2929C483.667 11.2929 484.5 11.3798 484.5 11.5101C484.5 11.6308 485.056 11.7273 485.75 11.7273C486.444 11.7273 487 11.8237 487 11.9444C487 12.0639 487.375 12.1616 487.833 12.1616C488.292 12.1616 488.667 12.2593 488.667 12.3788C488.667 12.4982 488.854 12.596 489.083 12.596C489.313 12.596 489.5 12.6937 489.5 12.8131C489.5 12.9326 489.667 13.0303 489.871 13.0303C490.075 13.0303 490.377 13.2258 490.542 13.4646C490.707 13.7035 491.009 13.899 491.213 13.899C491.417 13.899 491.583 13.9967 491.583 14.1162C491.583 14.2356 491.827 14.3333 492.125 14.3333C492.458 14.3333 492.891 14.5842 493.25 14.9848C493.571 15.3432 493.984 15.6364 494.167 15.6364C494.35 15.6364 494.5 15.7341 494.5 15.8535C494.5 15.973 494.688 16.0707 494.917 16.0707C495.146 16.0707 495.333 16.1684 495.333 16.2879C495.333 16.4086 495.889 16.5051 496.583 16.5051C497.278 16.5051 497.833 16.4086 497.833 16.2879C497.833 16.1684 498.208 16.0707 498.667 16.0707C499.125 16.0707 499.5 15.973 499.5 15.8535C499.5 15.7248 500.264 15.6364 501.375 15.6364C502.486 15.6364 503.25 15.7248 503.25 15.8535C503.25 15.9862 504.222 16.0707 505.75 16.0707C507.278 16.0707 508.25 15.9862 508.25 15.8535C508.25 15.7341 508.625 15.6364 509.083 15.6364C509.542 15.6364 509.917 15.5386 509.917 15.4192C509.917 15.2984 510.472 15.202 511.167 15.202C511.861 15.202 512.417 15.2984 512.417 15.4192C512.417 15.5386 512.698 15.6364 513.042 15.6364C513.385 15.6364 513.667 15.7341 513.667 15.8535C513.667 15.973 513.948 16.0707 514.292 16.0707C514.635 16.0707 514.917 16.1684 514.917 16.2879C514.917 16.6273 520.268 16.5745 520.42 16.2336C520.517 16.0164 520.566 16.0164 520.663 16.2336C520.748 16.424 521.402 16.5051 522.851 16.5051C524.089 16.5051 524.917 16.5921 524.917 16.7222C524.917 16.8488 525.611 16.9394 526.583 16.9394C527.556 16.9394 528.25 16.8488 528.25 16.7222C528.25 16.6028 528.625 16.5051 529.083 16.5051C529.542 16.5051 529.917 16.4073 529.917 16.2879C529.917 15.5914 532.247 16.0772 533.042 16.9394C533.482 17.4172 533.99 17.8081 534.171 17.8081C534.361 17.8081 534.5 17.9916 534.5 18.2424C534.5 18.5803 534.639 18.6768 535.125 18.6768C535.469 18.6768 535.75 18.7745 535.75 18.8939C535.75 19.0134 536.031 19.1111 536.375 19.1111C536.719 19.1111 537 19.2088 537 19.3283C537 19.4668 538.736 19.5455 541.792 19.5455C544.847 19.5455 546.583 19.6241 546.583 19.7626C546.583 19.8821 546.958 19.9798 547.417 19.9798C547.875 19.9798 548.25 20.0775 548.25 20.197C548.25 20.3164 548.531 20.4141 548.875 20.4141C549.219 20.4141 549.5 20.5119 549.5 20.6313C549.5 20.7629 550.403 20.8485 551.792 20.8485C553.181 20.8485 554.083 20.7629 554.083 20.6313C554.083 20.5119 554.365 20.4141 554.708 20.4141C555.052 20.4141 555.333 20.3164 555.333 20.197C555.333 20.073 555.958 19.9798 556.792 19.9798C557.625 19.9798 558.25 20.073 558.25 20.197C558.25 20.3164 558.438 20.4141 558.667 20.4141C558.896 20.4141 559.083 20.5119 559.083 20.6313C559.083 20.7508 559.271 20.8485 559.5 20.8485C559.729 20.8485 559.917 20.9462 559.917 21.0657C559.917 21.1851 560.104 21.2828 560.333 21.2828C560.562 21.2828 560.75 21.3806 560.75 21.5C560.75 21.6362 562.069 21.7172 564.292 21.7172C566.514 21.7172 567.833 21.7982 567.833 21.9343C567.833 22.0679 568.875 22.1515 570.542 22.1515C572.208 22.1515 573.25 22.0679 573.25 21.9343C573.25 21.8149 573.625 21.7172 574.083 21.7172C574.542 21.7172 574.917 21.6194 574.917 21.5C574.917 21.3806 575.198 21.2828 575.542 21.2828C575.885 21.2828 576.167 21.1851 576.167 21.0657C576.167 20.9417 576.792 20.8485 577.625 20.8485C578.458 20.8485 579.083 20.9417 579.083 21.0657C579.083 21.1851 579.271 21.2828 579.5 21.2828C579.729 21.2828 579.917 21.3806 579.917 21.5C579.917 21.6194 580.292 21.7172 580.75 21.7172C581.208 21.7172 581.583 21.8149 581.583 21.9343C581.583 22.0551 582.139 22.1515 582.833 22.1515C583.528 22.1515 584.083 22.0551 584.083 21.9343C584.083 21.8149 584.344 21.7172 584.662 21.7172C585.002 21.7172 585.365 21.5378 585.542 21.2828C585.718 21.0279 586.081 20.8485 586.421 20.8485C586.739 20.8485 587 20.7508 587 20.6313C587 20.5119 587.281 20.4141 587.625 20.4141C587.969 20.4141 588.25 20.3164 588.25 20.197C588.25 20.0775 588.438 19.9798 588.667 19.9798C588.896 19.9798 589.083 20.0775 589.083 20.197C589.083 20.321 589.708 20.4141 590.542 20.4141C591.375 20.4141 592 20.5073 592 20.6313C592 20.7553 592.625 20.8485 593.458 20.8485C594.292 20.8485 594.917 20.7553 594.917 20.6313C594.917 20.5119 595.198 20.4141 595.542 20.4141C595.885 20.4141 596.167 20.5119 596.167 20.6313C596.167 20.7508 596.354 20.8485 596.583 20.8485C596.995 20.8485 597 20.9933 597 31.9242V43H197H-203V34.6235Z" fill="white"/>
</svg>
