<?xml version="1.0" standalone="no"?>
<!DOCTYPE svg PUBLIC "-//W3C//DTD SVG 20010904//EN"
 "http://www.w3.org/TR/2001/REC-SVG-20010904/DTD/svg10.dtd">
<svg version="1.0" xmlns="http://www.w3.org/2000/svg"
 width="3328.000000pt" height="3328.000000pt" viewBox="0 0 3328.000000 3328.000000"
 preserveAspectRatio="xMidYMid meet">
<metadata>
Created by potrace 1.11, written by Peter Selinger 2001-2013
</metadata>
<g transform="translate(0.000000,3328.000000) scale(0.100000,-0.100000)"
fill="#000000" stroke="none">
<path d="M7215 20464 c-33 -8 -73 -22 -90 -31 -16 -9 -31 -16 -33 -14 -2 1
-29 -12 -60 -30 -69 -39 -190 -159 -217 -216 -11 -24 -23 -43 -27 -43 -6 0
-45 -110 -54 -155 -14 -63 -19 -219 -8 -236 3 -5 2 -9 -3 -9 -7 0 -9 -93 -2
-110 1 -3 1 -9 0 -14 -1 -5 -2 -207 -1 -450 0 -242 1 -450 1 -461 -1 -11 0
-40 0 -65 0 -25 0 -52 0 -60 -2 -42 1 -105 5 -112 3 -4 2 -8 -3 -8 -7 0 -9
-93 -2 -110 1 -3 1 -9 0 -13 -1 -5 -1 -156 -1 -335 0 -180 0 -343 0 -362 -1
-19 -2 -61 -3 -93 -1 -31 2 -57 6 -57 5 0 5 -4 2 -10 -5 -8 -6 -41 -4 -130 0
-12 0 -283 -1 -565 0 -11 1 -40 1 -65 0 -25 0 -52 0 -60 -2 -42 1 -105 5 -112
3 -4 2 -8 -3 -8 -7 0 -9 -93 -2 -110 1 -3 1 -9 0 -13 -1 -5 -1 -156 -1 -335 0
-180 0 -343 0 -362 -1 -19 -2 -61 -3 -93 -1 -31 2 -57 6 -57 5 0 5 -4 2 -10
-5 -8 -6 -45 -4 -130 1 -29 0 -316 -1 -350 -1 -19 -2 -61 -3 -93 -1 -31 2 -57
6 -57 5 0 5 -4 2 -10 -5 -8 -6 -41 -4 -130 0 -12 0 -283 -1 -565 0 -11 1 -40
1 -65 0 -25 0 -52 0 -60 -2 -42 1 -105 5 -112 3 -4 2 -8 -3 -8 -7 0 -9 -93 -2
-110 1 -3 1 -9 0 -13 -5 -27 -1 -449 4 -482 15 -98 35 -166 53 -187 8 -10 12
-18 9 -18 -12 0 54 -99 100 -150 39 -43 160 -140 176 -140 2 0 22 -8 43 -17
22 -9 42 -18 47 -19 4 -1 8 -2 10 -4 1 -1 9 -3 17 -5 8 -2 29 -6 45 -10 60
-15 211 -14 276 1 148 34 305 140 383 259 20 30 35 56 34 59 -2 2 4 12 13 22
24 28 59 151 65 230 2 38 7 75 9 82 2 6 0 12 -5 12 -6 0 -6 9 0 25 6 15 6 27
0 30 -6 3 -6 15 0 30 6 15 6 27 0 30 -6 4 -7 13 -1 24 6 10 6 23 1 31 -5 8 -5
21 0 31 5 9 7 19 4 22 -7 7 -11 87 -4 87 5 0 4 58 0 70 -1 3 -1 10 0 15 3 12
2 126 0 140 -1 6 -1 15 0 20 6 25 6 52 -1 71 -4 12 -5 25 -2 28 9 9 9 66 0 66
-5 0 -5 5 -2 10 4 6 7 31 7 55 0 39 4 47 40 77 23 18 47 38 53 45 7 6 34 30
61 53 27 23 76 66 109 95 95 83 218 190 243 211 13 10 40 34 60 53 20 18 54
47 75 65 21 17 57 48 80 69 l42 37 1005 -1004 c553 -553 1022 -1018 1042
-1034 59 -46 177 -100 252 -115 101 -20 268 -13 318 14 10 5 18 7 18 4 0 -3
10 1 22 9 12 9 29 16 36 16 17 0 138 79 172 112 109 107 170 220 198 363 16
81 -2 286 -28 320 -5 6 -9 13 -9 18 -1 19 -44 107 -52 107 -5 0 -9 5 -9 11 0
6 -9 23 -20 37 -12 15 -461 467 -998 1005 l-977 978 36 32 c20 18 62 55 94 82
32 28 65 57 75 65 97 84 139 121 178 155 25 22 54 48 66 58 84 71 123 105 144
125 27 24 112 98 152 132 14 11 50 43 80 70 30 26 114 99 185 161 216 186 258
223 280 244 12 11 41 36 66 55 24 19 49 40 54 46 6 6 46 42 90 80 44 38 89 77
100 87 11 10 37 33 58 50 21 18 57 49 80 70 23 21 55 48 71 60 57 44 158 153
191 207 72 118 90 189 89 350 0 98 -4 126 -26 188 -35 97 -81 171 -150 243
-52 53 -155 129 -182 133 -6 1 -17 5 -23 9 -7 5 -34 14 -60 22 -227 67 -436
20 -628 -140 -44 -37 -87 -74 -96 -84 -9 -9 -29 -27 -45 -40 -16 -13 -74 -63
-129 -111 -55 -47 -113 -97 -129 -111 -16 -13 -36 -31 -45 -39 -9 -9 -47 -43
-86 -75 -38 -33 -85 -74 -105 -92 -19 -17 -45 -40 -56 -50 -35 -29 -117 -100
-149 -128 -16 -15 -52 -45 -79 -68 -27 -23 -54 -47 -60 -52 -6 -6 -78 -69
-161 -140 -82 -71 -155 -134 -161 -140 -12 -11 -106 -92 -144 -125 -46 -40
-144 -125 -160 -140 -9 -8 -45 -40 -81 -69 -58 -50 -98 -86 -150 -133 -10 -10
-22 -18 -25 -18 -3 0 -13 -8 -22 -19 -15 -16 -202 -179 -261 -227 -13 -10 -33
-28 -45 -40 -17 -17 -92 -81 -189 -164 -10 -8 -33 -28 -51 -45 -18 -16 -57
-51 -87 -77 -93 -80 -103 -88 -163 -141 -49 -44 -98 -78 -74 -52 4 4 3 15 -2
24 -5 10 -5 23 0 31 4 7 4 24 -1 37 -5 12 -5 23 -1 23 4 0 7 25 7 55 0 30 -3
55 -7 55 -4 0 -3 14 2 30 5 18 5 30 0 30 -6 0 -6 10 0 25 6 15 6 27 0 30 -6 3
-6 15 0 30 6 15 6 27 0 30 -6 3 -6 15 0 30 6 15 6 27 0 30 -6 3 -6 15 0 30 6
15 6 27 0 30 -6 3 -6 15 0 29 5 13 6 27 3 30 -7 7 -10 76 -3 76 5 0 4 58 0 70
-1 3 -1 10 0 15 3 12 2 126 0 140 -1 6 -1 15 0 20 6 25 6 52 -1 71 -4 12 -5
25 -2 28 9 9 9 66 1 66 -4 0 -3 11 2 25 6 15 6 27 0 30 -6 3 -6 15 0 30 6 15
6 27 0 30 -6 4 -7 13 -1 24 5 9 6 23 1 30 -4 8 -4 27 0 42 5 17 5 29 0 29 -6
0 -6 10 0 25 6 15 6 27 0 30 -6 3 -6 15 0 30 6 15 6 27 0 30 -6 4 -7 13 -1 24
6 10 6 23 1 31 -5 8 -5 21 0 31 5 9 7 19 4 22 -7 7 -11 87 -4 87 5 0 4 58 0
70 -1 3 -1 10 0 15 3 12 2 126 0 140 -1 6 -1 15 0 20 6 26 6 52 -2 67 -5 10
-4 19 2 23 7 4 7 12 0 25 -6 12 -7 21 0 25 6 3 6 15 0 30 -6 15 -6 27 0 30 6
3 6 15 0 30 -6 15 -6 27 0 30 6 3 6 15 0 30 -6 15 -6 25 0 25 5 0 5 12 0 29
-4 16 -6 32 -3 35 8 8 9 186 1 186 -4 0 -3 14 2 30 5 17 5 30 0 30 -5 0 -7 6
-5 13 8 21 11 117 4 117 -4 0 -4 13 1 30 5 18 5 32 -1 35 -5 4 -5 13 0 23 6
11 6 24 0 34 -6 10 -6 19 0 23 7 3 7 15 1 30 -6 15 -6 27 0 30 6 3 6 15 0 29
-5 13 -6 26 -3 30 8 8 9 186 1 186 -4 0 -3 14 2 30 5 17 5 30 0 30 -4 0 -4 15
0 34 4 18 3 40 -1 49 -6 10 -5 18 1 22 7 4 7 12 0 25 -6 12 -7 21 0 25 6 3 6
15 0 30 -6 15 -6 27 0 30 6 3 6 15 0 30 -6 15 -6 27 0 30 6 3 6 15 0 30 -6 15
-6 25 0 25 5 0 5 12 0 29 -4 16 -6 32 -3 35 8 8 9 186 1 186 -4 0 -3 14 2 30
5 17 5 30 0 30 -4 0 -4 16 0 34 4 19 6 37 3 40 -3 2 -7 28 -9 57 -20 236 -194
453 -429 534 -96 34 -251 42 -350 19z"/>
<path d="M30057 20163 c-3 -2 -47 -6 -100 -8 -90 -4 -127 -7 -222 -21 -58 -9
-74 -12 -126 -24 -26 -6 -55 -13 -65 -15 -11 -2 -20 -4 -21 -5 -4 -3 -7 -4
-58 -14 -22 -4 -45 -12 -50 -16 -6 -5 -22 -11 -35 -13 -43 -8 -230 -86 -331
-138 -97 -50 -281 -166 -287 -181 -2 -4 -8 -8 -13 -8 -9 0 -12 -2 -128 -101
-190 -162 -353 -360 -491 -594 -29 -49 -52 -91 -51 -93 1 -1 -9 -23 -22 -50
-13 -26 -36 -78 -52 -117 -15 -38 -31 -79 -36 -90 -9 -22 -48 -150 -54 -175
-1 -8 -8 -33 -14 -55 -5 -22 -13 -56 -16 -75 -3 -19 -8 -48 -12 -65 -3 -16 -7
-39 -9 -50 -11 -90 -16 -141 -18 -188 -2 -30 -5 -58 -8 -63 -3 -5 -2 -18 2
-29 4 -11 4 -32 -1 -47 -4 -14 -5 -29 -3 -31 3 -3 7 -45 9 -93 3 -89 11 -177
20 -224 3 -14 7 -41 10 -60 17 -107 83 -332 133 -455 32 -78 139 -281 187
-355 109 -168 209 -286 372 -440 44 -41 86 -79 95 -85 12 -8 69 -50 194 -142
5 -4 19 -13 30 -19 10 -6 30 -17 44 -25 14 -8 27 -16 30 -19 26 -27 420 -200
455 -200 7 0 39 -9 72 -19 33 -11 76 -22 94 -25 19 -3 45 -8 59 -12 57 -14
197 -33 295 -40 161 -11 419 4 545 32 14 3 39 8 55 10 58 11 211 54 300 85
116 40 392 175 423 206 7 7 19 13 27 13 7 0 15 3 17 8 3 8 125 92 133 92 6 0
8 1 74 60 24 22 48 37 52 34 4 -2 10 5 14 16 3 11 13 20 21 20 9 0 12 5 8 12
-4 7 -3 8 4 4 7 -4 12 -2 12 3 0 15 27 14 33 -1 4 -10 6 -10 6 0 1 7 -5 15
-13 18 -17 6 53 79 73 75 8 -1 10 2 5 11 -5 9 -2 8 11 -2 16 -14 17 -13 11 7
-5 17 -1 28 18 44 14 12 23 26 20 31 -3 4 2 8 11 8 9 0 14 4 11 9 -3 5 1 12
10 15 8 3 12 11 8 17 -4 8 -3 9 5 5 6 -4 18 -2 26 4 21 18 19 35 -2 19 -16
-13 -17 -12 -4 4 11 13 17 15 28 6 10 -9 11 -14 2 -19 -8 -6 -8 -9 0 -14 6 -4
11 -2 11 5 0 7 3 9 6 6 4 -4 2 -13 -4 -20 -7 -8 -9 -16 -6 -20 3 -3 -1 -4 -10
-3 -8 1 -19 5 -22 9 -4 4 -12 7 -18 7 -5 0 -1 -7 10 -16 10 -8 13 -12 5 -8
-10 5 -12 3 -7 -7 4 -8 0 -5 -8 5 -15 19 -22 12 -17 -17 1 -5 -3 -6 -8 -3 -5
4 -13 1 -17 -5 -5 -8 -3 -9 6 -4 8 5 11 4 6 -3 -3 -6 -2 -13 4 -17 6 -4 8 -11
4 -16 -3 -5 -10 -7 -15 -4 -5 4 -9 1 -9 -6 0 -8 -5 -6 -13 5 -12 16 -13 16
-13 -3 0 -11 5 -17 11 -15 5 3 1 -2 -10 -12 -17 -14 -18 -16 -2 -10 11 3 16 2
12 -5 -4 -6 -14 -8 -22 -5 -9 4 -12 2 -7 -7 5 -7 0 -5 -11 3 -17 13 -18 13
-11 0 4 -8 0 -6 -8 4 -9 11 -16 15 -16 10 0 -6 3 -14 8 -18 4 -4 8 -12 8 -17
1 -5 2 -12 3 -15 0 -4 9 0 19 7 16 13 16 12 2 -6 -11 -16 -11 -17 0 -7 8 6 18
12 23 12 5 0 1 -8 -10 -17 -10 -10 -12 -14 -3 -8 11 7 11 5 -3 -11 -9 -11 -14
-24 -10 -28 4 -4 -1 -4 -12 -1 -16 5 -17 5 -5 -3 12 -9 12 -14 -4 -31 -10 -11
-23 -18 -30 -15 -7 3 -21 -6 -32 -18 l-19 -23 25 20 25 20 -15 -20 c-14 -19
-14 -19 3 -6 16 12 20 12 34 -2 16 -15 15 -18 -5 -40 -12 -13 -19 -28 -15 -32
5 -5 -1 -3 -12 5 -19 14 -19 14 -5 -5 14 -19 14 -19 -4 -5 -11 8 -17 10 -14 5
4 -6 -6 -10 -22 -10 -24 -1 -27 2 -17 14 9 11 9 13 0 8 -12 -8 -12 10 0 31 5
6 5 17 1 24 -4 6 -3 8 3 5 6 -4 19 4 31 16 19 20 19 24 5 42 -13 17 -15 17 -9
2 3 -10 2 -16 -3 -13 -5 3 -15 -2 -22 -12 -13 -16 -13 -16 6 -2 19 14 19 14 5
-4 -13 -18 -13 -19 0 -11 8 4 12 4 7 0 -4 -5 -18 -10 -30 -12 -17 -2 -19 -1
-7 7 8 5 10 10 4 10 -5 0 -16 -6 -23 -12 -11 -11 -13 -10 -7 2 4 8 -4 2 -18
-13 -14 -15 -26 -24 -26 -19 0 5 -7 9 -16 9 -14 0 -14 -2 2 -14 13 -10 14 -13
3 -13 -12 0 -12 -2 0 -9 7 -5 9 -11 5 -13 -5 -3 -2 -3 6 -1 11 2 10 -1 -3 -11
-14 -10 -15 -15 -5 -19 9 -4 9 -6 1 -6 -6 -1 -14 3 -18 9 -3 5 -13 7 -23 4
-15 -5 -15 -4 1 6 17 11 15 30 -4 30 -6 0 -8 -4 -4 -9 3 -5 1 -13 -5 -16 -6
-4 -9 -3 -8 2 3 9 -5 13 -24 13 -7 0 2 -11 20 -23 17 -13 28 -28 24 -32 -4 -5
-1 -5 6 -1 7 4 15 0 19 -11 11 -29 35 -43 52 -30 11 10 13 8 7 -10 -7 -22 8
-41 19 -23 4 6 11 8 16 5 5 -4 9 1 9 10 0 9 -4 14 -9 11 -5 -3 -15 2 -22 12
-7 9 -9 14 -5 10 5 -4 15 -3 22 3 9 8 17 4 30 -16 16 -24 16 -27 -1 -45 -10
-11 -23 -20 -29 -19 -6 0 -6 3 2 6 6 2 9 9 6 15 -4 6 -9 6 -14 -3 -9 -13 35
-61 65 -73 9 -3 13 -11 9 -17 -4 -7 -3 -10 2 -7 12 8 35 -17 26 -28 -4 -4 -1
-4 5 0 8 4 17 -2 24 -18 7 -14 16 -23 20 -20 5 3 9 -2 9 -10 0 -9 5 -15 12
-13 7 1 12 -5 13 -13 0 -8 5 -15 12 -15 13 0 28 -13 28 -24 0 -4 16 -23 36
-43 30 -29 39 -34 55 -25 16 9 17 8 7 -4 -10 -12 2 -29 65 -94 42 -44 80 -80
84 -80 10 0 23 -16 23 -28 0 -7 7 -12 15 -12 8 -1 14 -6 13 -13 -2 -7 4 -12
13 -12 8 0 13 -4 10 -9 -3 -4 6 -13 20 -20 15 -6 22 -16 18 -23 -4 -6 -3 -9 2
-6 12 8 35 -17 26 -28 -4 -4 -1 -4 6 0 9 5 15 1 19 -12 3 -13 10 -19 19 -15 8
3 14 2 12 -3 -5 -19 22 -53 38 -47 8 3 14 1 12 -4 -4 -12 48 -73 62 -73 6 0 9
-4 6 -9 -3 -4 6 -13 19 -19 14 -7 24 -15 23 -19 -2 -5 1 -9 5 -10 5 -1 22 -20
39 -42 16 -23 34 -39 39 -35 5 3 14 -6 20 -20 7 -14 15 -23 19 -21 9 5 28 -15
29 -30 1 -5 7 -10 14 -10 6 -1 11 -6 10 -13 -2 -7 4 -12 13 -12 8 0 13 -4 10
-9 -3 -4 6 -13 20 -20 16 -7 22 -16 18 -24 -4 -6 -4 -9 1 -5 8 7 40 -19 40
-33 0 -4 18 -24 41 -43 32 -27 44 -32 53 -23 10 9 11 9 6 -4 -5 -14 23 -35 49
-37 5 0 13 -6 17 -14 7 -10 9 -10 9 0 0 6 5 12 11 12 5 0 8 -4 5 -8 -3 -5 9
-8 27 -7 18 1 40 -3 51 -8 12 -6 16 -6 12 1 -3 6 -2 13 4 17 5 3 10 2 10 -2 0
-5 14 -9 30 -9 28 -2 29 0 13 11 -10 8 -15 17 -11 21 4 4 2 14 -5 22 -9 12 -9
16 1 19 6 3 10 9 7 13 -3 5 -12 7 -21 3 -13 -5 -13 -9 2 -32 17 -25 17 -26 -1
-11 -17 13 -18 13 -10 0 4 -8 5 -12 0 -8 -4 4 -22 -2 -39 -14 -28 -20 -30 -20
-16 -3 14 19 14 19 -3 6 -21 -16 -37 -6 -17 12 10 10 11 9 5 -2 -5 -10 -4 -12
4 -7 6 4 8 12 5 18 -5 7 -13 4 -24 -9 -15 -19 -18 -19 -29 -4 -8 10 -9 11 -4
1 6 -13 4 -13 -10 -1 -9 7 -14 17 -11 22 3 5 -2 6 -10 3 -9 -3 -16 -1 -16 6 0
6 4 9 9 6 5 -3 15 2 22 12 13 16 13 16 -6 2 -19 -14 -19 -14 -5 4 12 16 12 18
1 11 -10 -5 -12 -4 -7 4 4 6 12 9 17 6 5 -3 6 0 4 7 -3 8 7 25 22 38 l28 25
-24 -27 c-29 -33 -21 -49 11 -22 l23 19 -20 -25 c-19 -23 -19 -24 -1 -10 16
12 18 12 11 1 -6 -10 -4 -12 5 -6 9 6 11 4 5 -5 -6 -9 -4 -11 6 -5 11 7 11 5
-1 -10 -14 -18 -14 -18 11 0 19 14 23 23 15 28 -7 6 -4 7 7 3 10 -3 16 -2 13
3 -3 5 2 15 12 22 9 7 14 9 10 5 -10 -11 11 -38 23 -30 5 3 6 -3 3 -13 -6 -16
-5 -16 8 1 13 16 15 16 15 2 0 -9 -5 -16 -10 -16 -5 0 -3 -8 4 -17 12 -15 12
-16 -1 -8 -13 8 -13 7 -1 -9 8 -9 20 -15 28 -12 8 3 12 2 9 -2 -2 -4 -1 -14 5
-22 6 -11 9 -12 9 -2 0 7 4 11 8 8 5 -3 20 6 35 20 15 14 27 22 27 18 0 -4 10
6 22 22 13 16 26 30 30 32 5 2 8 10 8 18 0 8 4 14 10 14 5 0 9 3 9 8 -3 19 2
33 10 27 6 -3 8 6 5 21 -3 14 -1 23 3 21 5 -3 9 30 9 74 1 43 -2 79 -7 79 -4
0 -6 9 -4 19 2 11 -3 25 -11 31 -7 7 -11 17 -7 23 4 6 1 7 -7 2 -10 -6 -12 -4
-7 9 5 14 3 17 -8 13 -8 -4 -17 -2 -20 3 -3 4 1 11 7 13 10 4 10 6 1 6 -7 1
-13 8 -13 16 0 8 -6 14 -12 12 -7 -1 -12 4 -11 11 2 6 -4 12 -13 12 -8 0 -13
4 -10 9 3 4 -6 13 -20 20 -14 6 -23 15 -20 20 10 15 -60 62 -81 54 -15 -6 -16
-5 -5 9 11 14 10 20 -4 36 -9 11 -23 18 -31 15 -8 -3 -13 -2 -11 3 2 5 -5 20
-14 33 -14 20 -20 22 -33 11 -13 -11 -15 -9 -13 11 2 16 -2 23 -11 21 -8 -2
-11 3 -8 11 3 8 -4 22 -15 31 -16 14 -22 15 -36 4 -14 -11 -15 -10 -9 5 7 20
-25 72 -37 60 -3 -3 -6 1 -6 10 0 9 -6 16 -12 14 -7 -1 -12 4 -10 11 1 8 -2
11 -8 7 -5 -3 -10 1 -10 9 0 9 -3 15 -7 15 -23 -4 -33 3 -33 21 0 11 -6 19
-12 17 -7 -1 -12 4 -11 11 2 6 -4 12 -13 12 -8 0 -13 3 -11 8 2 4 -7 17 -20
29 -13 12 -23 20 -23 18 0 -3 -9 3 -19 12 -11 9 -18 20 -15 25 3 4 -2 8 -10 8
-9 0 -15 5 -13 12 1 7 -5 13 -13 13 -8 0 -14 7 -12 14 1 7 -2 10 -7 7 -5 -4
-12 3 -16 14 -4 11 -11 18 -16 15 -5 -4 -9 -2 -9 3 0 13 -90 102 -103 102 -6
0 -8 2 -5 5 8 8 -102 115 -118 115 -9 0 -13 4 -10 8 7 12 -12 38 -21 29 -4 -5
-3 -11 2 -15 6 -4 1 -17 -13 -32 -13 -14 -20 -17 -17 -8 4 9 2 19 -4 23 -7 4
-9 -1 -5 -12 5 -15 4 -16 -6 -3 -9 12 -10 11 -5 -9 5 -14 3 -21 -3 -17 -5 3
-12 15 -15 26 -3 13 -1 18 5 13 6 -3 8 -1 5 4 -4 6 2 22 13 34 11 13 19 18 20
12 0 -7 -4 -13 -10 -13 -5 0 -10 -4 -10 -10 0 -12 22 -9 32 5 9 13 -32 56 -45
48 -6 -4 -8 0 -4 9 4 11 -7 25 -33 43 -22 15 -37 31 -34 36 3 5 -2 9 -10 9 -9
0 -15 5 -13 12 1 7 -5 13 -13 13 -8 0 -14 7 -12 14 1 7 -2 10 -7 7 -5 -4 -12
3 -16 14 -4 11 -11 18 -16 15 -5 -4 -9 1 -9 9 0 9 -5 15 -12 13 -7 -1 -12 4
-13 11 0 6 -4 13 -10 13 -5 1 -20 16 -32 32 -13 17 -23 25 -23 17 0 -16 -11
-7 -13 12 -2 7 -6 14 -11 15 -29 5 -19 34 44 127 87 129 187 323 239 465 40
109 94 303 106 379 3 21 8 49 10 62 13 65 20 181 20 340 0 154 -10 324 -20
341 -2 3 -6 27 -10 53 -3 27 -7 52 -10 56 -2 3 -7 22 -10 41 -28 171 -163 503
-271 672 -24 37 -44 70 -44 72 0 8 -152 207 -180 236 -14 15 -50 53 -81 85
-85 90 -155 152 -264 235 -90 68 -332 219 -351 219 -3 0 -35 14 -72 31 -84 38
-112 50 -137 59 -56 20 -122 42 -137 46 -10 2 -26 6 -35 9 -123 34 -187 48
-275 60 -21 3 -55 7 -75 10 -21 3 -81 8 -133 11 -52 2 -107 6 -122 8 -15 2
-29 1 -31 -1z m243 -657 c14 -2 39 -7 55 -10 17 -3 44 -8 60 -11 44 -8 131
-33 210 -61 84 -30 295 -134 295 -146 0 -4 5 -8 11 -8 40 0 286 -214 384 -334
117 -142 227 -341 283 -513 28 -82 36 -113 47 -178 2 -11 4 -20 5 -20 3 0 9
-37 17 -95 9 -73 9 -351 0 -420 -15 -112 -71 -320 -102 -380 -8 -16 -15 -32
-15 -35 1 -13 -58 -127 -107 -208 -119 -196 -280 -365 -471 -493 -78 -53 -272
-158 -272 -148 0 2 -14 -3 -30 -11 -50 -26 -231 -78 -315 -90 -22 -3 -58 -9
-80 -13 -53 -8 -315 -8 -385 0 -47 6 -88 13 -185 32 -103 21 -440 163 -465
196 -3 3 -12 9 -20 12 -29 11 -175 126 -245 195 -75 72 -185 196 -185 207 0 4
-8 16 -18 27 -11 10 -25 32 -33 47 -8 15 -17 29 -20 32 -26 20 -140 271 -164
360 -2 8 -11 40 -20 70 -17 59 -32 135 -43 215 -8 62 -8 322 0 390 32 269 139
535 304 758 59 80 197 225 268 282 20 17 43 35 49 40 7 6 32 24 57 40 25 17
47 33 48 38 2 4 10 7 17 7 8 0 20 6 27 13 23 23 207 108 308 142 104 36 216
62 308 71 31 4 58 8 60 9 5 4 335 -4 362 -9z m1647 -3023 c8 -12 20 -20 26
-16 5 3 7 2 4 -4 -8 -12 87 -105 98 -95 5 4 5 2 1 -5 -4 -7 13 -28 45 -53 28
-22 45 -40 39 -40 -10 0 -10 -3 0 -15 6 -8 16 -13 20 -12 14 4 11 -12 -7 -39
-23 -35 -23 -59 -1 -73 15 -9 23 -7 44 14 20 21 29 23 40 14 8 -6 14 -8 14 -3
0 5 46 -38 103 -96 56 -57 101 -108 100 -112 -2 -4 1 -8 7 -8 5 0 22 -13 36
-30 15 -16 31 -27 37 -23 6 3 7 2 4 -3 -3 -5 28 -43 69 -83 41 -40 71 -77 68
-82 -3 -5 -1 -9 5 -9 15 0 126 -100 126 -113 0 -7 -9 -10 -19 -9 -17 3 -18 1
-8 -11 13 -15 28 -17 47 -5 6 3 19 0 30 -8 10 -8 13 -14 7 -14 -9 0 -9 -4 0
-20 9 -14 14 -16 20 -7 6 9 8 9 8 0 0 -6 -9 -18 -21 -26 -12 -9 -16 -18 -10
-21 5 -4 12 -2 16 4 4 6 10 8 15 5 5 -3 12 0 15 5 5 8 13 6 26 -6 10 -9 16
-20 14 -24 -3 -4 2 -13 10 -20 12 -10 15 -10 15 1 0 8 6 5 14 -6 8 -11 11 -24
8 -30 -12 -20 -10 -34 9 -51 14 -13 23 -14 30 -7 13 13 4 33 -14 33 -7 0 -6
-4 3 -10 8 -5 11 -12 7 -17 -5 -4 -12 -1 -17 7 -17 27 10 37 30 12 10 -13 23
-23 27 -22 4 0 8 -4 8 -8 0 -5 19 -29 42 -53 23 -24 41 -47 40 -51 -1 -4 14
-23 33 -43 19 -20 36 -45 36 -56 1 -10 3 -20 4 -21 1 -2 3 -32 4 -66 2 -45 -1
-65 -10 -69 -10 -3 -11 -10 -4 -23 7 -12 4 -23 -11 -39 -11 -11 -17 -21 -14
-21 3 0 1 -9 -5 -20 -6 -11 -15 -18 -20 -15 -5 3 -11 1 -15 -5 -3 -5 0 -10 7
-10 16 0 -69 -73 -89 -76 -7 -1 -11 1 -8 5 2 5 -2 17 -10 27 -13 16 -14 17 -9
2 3 -10 2 -18 -3 -18 -5 0 -9 9 -10 20 -2 23 7 26 26 8 11 -11 11 -9 0 9 -7
12 -17 19 -21 17 -5 -3 -7 0 -6 7 2 8 -7 13 -22 14 -14 0 -25 6 -25 13 0 16
-10 15 -40 -4 -14 -9 -22 -21 -18 -28 3 -6 0 -5 -8 2 -8 7 -15 17 -15 22 -1 6
-2 13 -3 17 0 3 -11 -2 -23 -13 l-23 -19 19 23 c11 12 21 20 24 17 2 -2 13 6
22 18 10 12 22 19 26 14 4 -4 2 -13 -4 -19 -15 -15 -16 -28 -2 -28 6 0 9 5 8
12 -2 7 8 12 21 13 13 0 26 7 28 15 4 12 3 12 -5 2 -12 -18 -21 -17 -37 5 -13
17 -14 17 -34 -1 -27 -24 -40 -13 -16 14 10 11 16 20 13 20 -8 0 -103 -118
-103 -127 0 -5 -4 -13 -8 -20 -9 -13 2 -45 13 -38 4 3 13 -2 19 -9 9 -11 9
-14 -1 -12 -29 5 -57 27 -52 41 7 17 -11 21 -21 5 -7 -11 -80 46 -80 61 0 15
-119 128 -129 122 -5 -3 -6 -1 -2 5 3 6 2 13 -4 17 -6 4 -8 11 -5 16 6 8 -8
13 -20 7 -2 -2 -11 6 -19 17 -8 11 -19 20 -25 20 -6 0 -12 4 -13 10 -4 15 -52
60 -61 57 -5 -1 -6 1 -3 6 3 5 -6 19 -19 30 -14 12 -25 27 -25 33 0 5 -4 8 -8
5 -10 -6 -65 48 -57 56 3 3 -1 11 -10 18 -12 10 -15 10 -15 -1 -1 -13 -24 18
-25 32 0 4 -25 28 -55 55 -30 27 -65 61 -78 77 -13 15 -29 24 -34 20 -6 -3 -8
-1 -5 4 6 9 -30 51 -39 46 -9 -6 -144 146 -135 152 18 10 12 24 -9 22 -11 -1
-20 -4 -20 -8 0 -9 -59 49 -60 59 -3 16 -33 41 -43 35 -5 -3 -7 -1 -4 5 4 5
-5 21 -20 34 -16 13 -47 45 -70 71 -24 25 -43 44 -43 40 0 -3 -9 2 -20 12
l-20 18 20 22 c24 26 23 43 -5 66 -14 12 -24 14 -32 7 -7 -6 -13 -7 -13 -3 0
5 -8 1 -19 -9 -16 -15 -19 -15 -31 -1 -7 8 -9 15 -5 15 4 0 -1 8 -12 18 -10 9
-13 13 -6 8 9 -6 18 -5 25 2 7 7 8 12 4 12 -5 0 -2 7 5 17 11 12 11 17 2 20
-22 8 15 52 39 48 28 -6 33 -12 21 -27 -11 -14 -10 -64 0 -75 4 -3 7 0 7 7 0
8 11 -1 25 -20 14 -19 25 -29 25 -23 0 6 -7 16 -15 23 -23 19 -18 31 9 26 14
-3 30 2 37 10 6 8 8 14 3 14 -4 0 3 11 16 25 22 24 23 26 7 42 -16 16 -15 18
4 39 11 12 21 28 22 35 2 8 10 25 20 39 15 22 15 26 3 36 -12 9 -12 12 5 22
11 7 17 17 14 21 -2 5 7 16 21 26 20 13 23 19 14 30 -8 9 -8 15 0 20 6 3 7 12
4 18 -5 8 -3 8 6 0 11 -10 18 -9 33 5 10 9 22 16 26 15 3 -2 7 2 7 7 2 16 3
17 20 17 9 0 23 -11 31 -24z m1067 -1730 c4 -10 1 -11 -14 -3 -12 7 -21 7 -25
0 -3 -5 -11 -10 -18 -10 -6 0 -3 6 7 13 24 17 44 17 50 0z"/>
<path d="M31905 16490 c6 -10 -20 -32 -28 -24 -3 3 -12 -3 -19 -15 -7 -12 -16
-21 -21 -21 -4 0 -5 5 -1 12 5 7 3 8 -6 3 -11 -7 -10 -10 1 -19 12 -9 10 -14
-8 -32 -12 -12 -25 -19 -29 -15 -4 3 -4 1 -1 -5 4 -7 0 -17 -8 -24 -8 -7 -12
-17 -8 -24 12 -18 10 -30 -9 -44 -10 -7 -16 -17 -13 -22 3 -4 -6 -21 -19 -38
-23 -27 -24 -30 -9 -45 16 -15 15 -18 -8 -43 -13 -14 -23 -27 -22 -30 9 -15
-12 -33 -34 -29 -24 4 -25 3 -8 -15 14 -15 15 -23 6 -33 -6 -8 -8 -17 -4 -20
3 -4 -4 -18 -16 -31 -20 -21 -20 -24 -5 -37 9 -8 18 -12 18 -10 2 6 175 -173
178 -184 6 -22 53 -53 75 -49 25 5 39 -11 25 -29 -8 -9 8 -31 58 -82 56 -58
70 -68 78 -55 8 12 12 13 23 2 12 -11 11 -12 -3 -7 -37 15 -14 -15 85 -110 56
-55 102 -104 102 -109 0 -6 5 -11 10 -12 24 -2 46 -18 41 -29 -4 -12 33 -56
45 -52 3 1 27 -23 54 -53 26 -30 54 -59 62 -63 7 -5 10 -14 7 -20 -4 -7 -4 -9
1 -5 4 4 19 -1 33 -12 13 -11 28 -17 33 -14 8 4 13 -8 11 -27 -1 -3 34 -40 78
-82 43 -43 74 -77 69 -77 -5 0 5 -13 23 -29 22 -20 37 -26 44 -20 7 5 18 8 25
7 7 -2 13 2 14 7 0 6 4 16 8 23 5 6 7 12 5 12 -2 0 19 25 46 54 27 30 54 53
58 49 5 -3 1 -15 -9 -26 l-18 -22 22 19 c19 15 25 16 38 6 8 -7 21 -10 30 -7
18 7 29 -8 18 -25 -14 -23 -11 -37 6 -33 15 3 69 -32 64 -41 -2 -2 -2 -7 -2
-11 1 -5 2 -12 3 -18 0 -5 5 -11 9 -13 11 -4 71 48 63 55 -9 10 15 34 27 26 5
-3 7 -1 3 5 -3 5 0 13 6 15 10 4 9 6 -1 6 -8 1 -3 9 13 22 21 17 24 24 16 40
-8 14 -7 21 3 25 10 3 13 22 11 67 -1 34 -3 63 -4 65 -1 1 -3 11 -4 21 0 11
-17 36 -35 55 -19 20 -31 36 -26 36 5 0 -14 24 -43 53 -29 29 -50 56 -46 59 8
9 -18 4 -34 -6 -9 -5 -22 0 -37 14 -23 22 -26 35 -12 58 7 11 2 16 -14 14 -4
-1 -15 8 -24 18 -10 11 -15 20 -10 20 4 0 2 7 -5 15 -10 12 -16 13 -26 4 -8
-6 -14 -8 -14 -4 0 4 -6 2 -14 -4 -10 -9 -16 -8 -25 3 -10 11 -8 17 6 25 10 6
12 11 6 11 -7 0 -12 3 -12 8 1 4 0 10 -1 15 -3 8 -7 23 -9 33 0 4 -8 0 -18 -7
-18 -15 -20 -15 -45 8 -14 13 -15 19 -6 30 9 11 13 12 20 1 8 -11 9 -11 6 0
-2 8 -8 14 -13 15 -5 1 -25 19 -44 39 -20 21 -43 39 -51 40 -16 3 -40 23 -40
33 0 3 6 3 13 0 6 -4 -3 7 -21 24 -17 17 -32 33 -32 36 0 3 -2 5 -4 6 -8 2
-160 154 -160 161 -1 10 -99 98 -109 98 -4 0 -6 4 -3 8 3 5 -15 28 -39 52 -25
24 -45 40 -45 36 0 -5 -6 -3 -14 3 -11 9 -18 7 -32 -11 -21 -26 -30 -28 -60
-11 -26 15 -24 44 6 84 12 18 18 29 13 26 -6 -4 -18 2 -28 13 -10 11 -15 20
-12 20 10 0 -217 223 -231 226 -6 1 -10 -1 -7 -6z m200 -202 c0 -6 6 -13 14
-16 9 -3 11 0 6 8 -5 9 -4 11 4 6 6 -4 9 -11 6 -15 -2 -5 4 -16 15 -26 18 -16
18 -19 3 -42 -25 -37 -23 -63 5 -81 37 -24 49 -23 67 5 13 20 19 22 31 12 8
-6 14 -8 14 -3 0 4 18 -9 39 -31 22 -21 40 -41 39 -44 -2 -18 3 -32 10 -27 8
5 97 -72 97 -84 1 -10 24 -45 25 -35 0 5 27 -17 60 -50 32 -32 57 -62 54 -67
-5 -7 10 -12 29 -9 5 1 6 -3 3 -8 -3 -5 5 -16 19 -25 13 -9 22 -22 19 -29 -3
-8 2 -20 11 -27 20 -17 19 -34 -2 -25 -15 5 -16 4 -5 -7 11 -11 16 -10 28 6 8
11 14 14 14 7 0 -7 4 -10 9 -7 5 3 23 -10 40 -30 23 -26 29 -39 22 -48 -8 -9
-4 -19 15 -37 26 -25 30 -25 52 -6 7 6 12 6 11 1 -1 -5 0 -11 1 -14 7 -20 7
-41 -2 -46 -5 -3 -2 -14 8 -25 13 -14 20 -16 31 -8 7 6 13 8 13 4 0 -4 7 -2
15 5 8 7 15 10 15 6 0 -17 3 -23 22 -43 12 -12 25 -20 31 -16 6 4 7 1 1 -8
-15 -25 -12 -37 17 -65 22 -21 31 -24 42 -16 10 9 25 0 67 -43 30 -30 49 -55
42 -55 -7 0 -12 5 -12 12 0 6 -2 9 -5 6 -8 -8 6 -39 15 -33 11 7 65 -54 66
-76 1 -10 3 -20 4 -21 9 -11 4 -121 -7 -130 -9 -7 -10 -15 -3 -29 8 -15 5 -22
-15 -35 -14 -9 -23 -20 -20 -24 2 -4 -4 -15 -15 -25 -11 -10 -18 -21 -15 -25
2 -4 -10 -20 -27 -35 -19 -17 -29 -22 -25 -12 3 9 2 19 -4 22 -5 4 -7 10 -4
15 4 7 -39 42 -57 46 -5 1 -11 2 -15 3 -3 0 2 9 11 20 16 17 16 19 -1 26 -10
5 -25 9 -33 9 -20 2 -60 25 -59 34 3 19 -2 29 -16 29 -18 0 -20 -13 -2 -20 8
-4 1 -16 -20 -35 -17 -17 -29 -33 -26 -35 2 -3 -9 -15 -26 -28 -17 -12 -28
-26 -25 -30 2 -4 0 -10 -6 -14 -6 -4 -7 -11 -4 -17 4 -7 2 -8 -5 -4 -6 4 -18
3 -25 -3 -9 -8 -19 -4 -37 15 -13 14 -23 28 -21 30 1 3 -11 16 -28 31 -26 21
-29 28 -18 41 11 13 10 15 -4 10 -16 -7 -104 59 -94 70 10 9 -15 43 -27 35 -7
-4 -7 0 2 10 14 18 2 24 -15 7 -7 -7 -30 10 -72 52 -34 35 -63 68 -64 73 -1
13 -31 34 -39 29 -4 -2 -14 5 -23 15 -11 13 -14 21 -7 26 6 3 11 11 11 17 0 6
-3 8 -6 5 -4 -3 -16 -1 -28 5 -11 7 -25 11 -29 10 -5 -1 -6 2 -3 7 3 5 -17 28
-44 51 -43 36 -49 45 -38 58 11 13 10 15 -4 9 -12 -4 -33 9 -70 44 -29 28 -48
48 -41 45 18 -10 25 10 8 24 -11 9 -19 9 -28 2 -19 -16 -143 108 -125 126 16
16 -4 37 -37 37 -35 0 -161 141 -144 161 13 16 -2 19 -18 3 -7 -7 -21 2 -47
33 -21 24 -41 44 -47 44 -5 1 -12 2 -16 3 -3 0 4 12 16 25 13 14 20 29 17 34
-3 5 1 15 9 22 13 11 13 14 -2 26 -14 11 -15 13 -2 9 10 -4 22 3 33 19 9 15
13 26 9 26 -3 0 4 11 17 25 22 24 23 26 7 42 -16 16 -15 18 4 39 11 12 22 30
24 40 1 11 8 18 14 17 6 -2 12 2 12 7 1 6 2 16 3 23 1 6 -1 17 -6 23 -4 6 9
28 33 52 22 23 37 42 34 42 -3 0 -1 9 5 20 6 11 15 18 19 16 5 -3 16 3 25 13
16 17 21 14 109 -76 50 -52 92 -99 92 -105z"/>
<path d="M31900 16455 c-7 -8 -16 -12 -21 -9 -5 3 -10 0 -10 -5 -1 -6 -2 -15
-3 -20 0 -4 -18 -25 -38 -46 -20 -21 -34 -43 -30 -49 19 -31 7 -62 -21 -57 -5
1 -6 -3 -3 -8 4 -5 -5 -23 -19 -40 -26 -30 -26 -30 -6 -43 20 -12 20 -13 -6
-40 -15 -16 -23 -28 -19 -28 4 0 -2 -13 -14 -30 -12 -16 -18 -30 -14 -30 4 0
0 -8 -9 -18 -10 -10 -14 -22 -10 -25 3 -4 -4 -19 -18 -34 -13 -14 -19 -23 -13
-20 7 4 28 -13 49 -39 29 -35 40 -42 51 -34 19 16 39 3 23 -16 -9 -12 -1 -25
43 -69 30 -30 53 -55 50 -55 -2 0 1 -6 7 -14 7 -8 22 -13 35 -10 15 2 30 -4
45 -20 20 -21 21 -24 5 -30 -15 -6 -8 -17 41 -66 46 -46 62 -57 72 -48 19 15
58 -19 43 -37 -15 -18 68 -89 85 -75 15 13 28 -13 14 -27 -10 -10 102 -113
126 -117 23 -3 29 -14 16 -29 -9 -11 -8 -17 4 -27 8 -7 15 -10 15 -6 0 4 11
-1 25 -10 14 -9 23 -19 20 -23 -2 -4 25 -35 60 -70 39 -39 66 -58 70 -51 8 12
30 8 30 -6 1 -5 6 -19 13 -30 6 -12 9 -24 6 -27 -3 -2 12 -19 32 -36 27 -21
41 -27 50 -20 15 12 27 -14 12 -29 -6 -6 2 -19 26 -37 20 -15 34 -30 31 -33
-3 -3 2 -13 11 -23 15 -17 18 -17 40 -2 13 8 22 19 19 23 -3 5 8 18 25 30 17
12 28 25 26 29 -3 4 8 18 25 30 24 18 28 25 19 36 -7 8 -9 18 -6 24 8 13 36 7
46 -10 8 -12 11 -12 22 0 8 9 9 11 1 7 -6 -3 -14 -2 -18 3 -3 6 3 8 14 6 11
-2 22 3 25 10 3 10 -2 12 -20 9 -27 -5 -32 7 -9 26 12 10 13 16 3 28 -11 13
-11 14 1 8 8 -6 7 0 -4 18 -20 30 -27 33 -18 9 5 -15 3 -14 -11 2 -13 16 -15
17 -10 3 4 -11 1 -18 -6 -18 -6 0 -9 4 -5 9 3 5 0 13 -6 17 -7 4 -9 3 -6 -2 3
-6 -4 -11 -15 -11 -19 -2 -19 -1 -2 11 17 13 16 13 -9 11 -28 -3 -28 4 1 38
22 25 6 34 -20 11 -22 -19 -23 -19 -8 1 14 19 14 19 -3 6 -21 -16 -37 -6 -17
12 10 10 11 9 5 -3 -5 -8 3 -5 17 8 13 12 28 22 33 22 5 0 0 -7 -11 -15 -14
-11 -15 -14 -2 -9 10 3 20 -2 28 -15 6 -12 16 -21 23 -20 9 0 9 2 0 6 -7 2
-13 8 -13 13 0 10 20 8 39 -4 10 -7 12 -6 6 4 -5 9 -4 11 4 6 6 -4 9 -12 5
-17 -3 -5 0 -17 8 -26 11 -14 11 -16 -1 -8 -8 5 -12 4 -8 -1 10 -16 90 -11 94
6 4 13 3 13 -6 0 -8 -12 -13 -12 -30 4 -11 10 -18 23 -15 28 10 15 -36 57 -57
53 -12 -3 -17 0 -13 7 4 6 3 8 -4 4 -6 -4 -9 3 -8 19 2 16 -1 22 -8 18 -6 -4
-6 0 1 9 7 8 11 17 8 19 -2 3 6 5 20 5 13 0 22 -3 19 -7 -2 -5 4 -6 15 -4 16
3 19 -1 16 -23 -2 -15 -2 -21 1 -14 4 8 11 5 24 -10 18 -23 18 -23 42 -3 l23
19 -22 -24 c-22 -24 -22 -24 -45 -4 -17 14 -19 15 -9 2 11 -15 10 -17 -9 -13
-22 4 -22 4 -5 -15 14 -15 21 -17 32 -9 10 9 17 8 28 -1 20 -17 19 -34 -1 -26
-14 5 -15 4 -5 -8 7 -8 19 -12 27 -9 13 5 12 9 -2 32 -17 25 -17 26 2 11 17
-14 18 -13 7 1 -7 9 -9 20 -5 24 4 5 1 4 -7 0 -9 -5 -7 2 5 17 10 14 23 24 28
21 4 -3 3 -9 -3 -13 -9 -5 -8 -10 4 -20 11 -9 12 -16 5 -25 -8 -10 -5 -19 12
-37 13 -13 17 -17 11 -8 -7 9 -13 21 -13 26 0 10 27 -28 28 -39 0 -5 9 -15 19
-24 10 -8 11 -11 3 -7 -13 7 -13 6 0 -11 13 -17 13 -18 0 -10 -13 8 -13 7 0
-11 14 -18 14 -18 -5 -4 -16 11 -17 11 -7 0 15 -17 16 -30 1 -30 -5 0 -8 4 -5
9 3 5 -2 15 -12 22 -16 13 -16 13 -2 -6 14 -19 14 -19 -4 -5 -18 13 -19 13
-11 0 8 -13 7 -13 -10 0 -11 9 -16 10 -11 3 15 -25 -1 -12 -24 20 -19 26 -20
29 -3 15 22 -20 33 -23 33 -7 0 5 -4 8 -9 5 -5 -3 -14 1 -21 9 -7 8 -17 12
-22 9 -5 -3 -1 -15 9 -27 13 -15 14 -19 3 -12 -10 6 -9 4 2 -6 9 -9 14 -19 11
-23 -3 -3 -12 2 -19 12 -12 16 -12 16 -11 -3 2 -15 -4 -20 -20 -19 -13 1 -20
-2 -17 -7 3 -5 -1 -6 -9 -3 -8 3 -18 1 -22 -5 -4 -7 0 -8 11 -4 14 5 16 3 11
-11 -5 -12 -3 -15 6 -11 6 4 4 0 -6 -8 -10 -9 -18 -18 -17 -22 1 -4 -2 -10 -6
-13 -4 -4 -4 -1 0 6 7 11 4 11 -13 0 -19 -12 -19 -13 -3 -22 9 -6 24 -11 32
-11 8 0 25 -7 38 -14 23 -12 23 -13 5 -34 -10 -12 -14 -19 -9 -15 10 9 78 -41
71 -52 -3 -5 -1 -12 5 -15 12 -8 42 14 35 25 -2 4 4 15 15 25 11 10 17 21 14
26 -2 4 6 15 20 24 23 16 26 45 4 45 -5 0 -6 -4 -3 -10 3 -5 1 -10 -4 -10 -18
0 -12 17 12 33 19 12 23 23 22 68 0 30 -3 59 -6 64 -4 6 -5 17 -4 27 3 15 -45
71 -59 69 -19 -3 -23 1 -21 22 2 32 -64 101 -82 85 -11 -9 -21 -4 -48 22 -19
19 -32 40 -30 50 2 10 -7 28 -20 40 -14 13 -21 28 -18 34 4 6 0 6 -9 -1 -8 -7
-18 -10 -21 -6 -4 3 -9 -2 -13 -11 -5 -14 -9 -12 -26 9 -11 14 -24 23 -29 20
-5 -4 -9 -2 -9 3 0 6 6 12 14 15 22 9 12 42 -12 42 -28 0 -75 45 -62 60 7 8 2
21 -15 41 -26 31 -42 36 -62 21 -9 -6 -18 -5 -28 3 -17 14 -10 34 8 23 7 -3 4
3 -6 15 -11 11 -16 25 -13 30 3 5 -12 22 -34 37 -22 15 -38 31 -35 35 6 9
-100 112 -107 104 -8 -7 -33 37 -29 51 1 6 0 7 -4 3 -4 -3 -22 11 -42 33 -19
21 -39 36 -44 34 -9 -6 -31 29 -24 37 3 2 -11 20 -30 38 -19 19 -35 30 -35 26
0 -5 -6 -3 -14 3 -10 9 -17 6 -29 -13 -19 -28 -36 -28 -75 1 -32 24 -34 47 -9
86 17 26 16 26 -18 53 -20 15 -33 29 -30 32 6 6 -165 182 -176 182 -4 0 -12
-7 -19 -15z m108 -78 c45 -46 80 -86 77 -89 -4 -3 10 -18 29 -33 35 -26 35
-27 19 -52 -9 -14 -18 -34 -18 -45 -2 -20 58 -77 79 -74 21 3 56 33 48 42 -4
4 0 3 9 -4 9 -6 18 -10 21 -7 2 3 16 -8 31 -24 25 -29 25 -30 7 -36 -11 -4
-20 -11 -20 -17 0 -6 6 -5 15 2 13 11 18 10 31 -9 9 -12 19 -19 23 -17 4 3 21
-8 36 -24 16 -17 26 -30 23 -30 -3 0 7 -14 22 -30 16 -17 31 -30 34 -28 8 5
106 -95 101 -103 -3 -4 13 -21 36 -37 25 -19 35 -32 27 -35 -9 -3 -8 -9 7 -20
18 -14 18 -16 3 -22 -15 -6 -14 -10 10 -30 21 -18 29 -20 35 -10 4 7 14 12 21
11 21 -3 57 -51 46 -62 -5 -5 5 -24 26 -46 19 -21 34 -33 34 -27 0 5 6 4 14
-3 11 -11 11 -14 -2 -24 -15 -11 -8 -39 8 -29 5 3 17 -6 26 -21 17 -25 18 -25
31 -8 7 10 13 12 13 6 0 -7 5 -12 11 -12 5 0 7 6 3 13 -4 6 4 1 19 -12 14 -12
24 -31 22 -41 -2 -10 14 -34 39 -59 36 -36 44 -40 50 -26 5 14 9 15 21 5 13
-11 11 -15 -11 -33 l-26 -20 -18 24 c-10 13 -18 26 -17 29 1 3 -2 7 -8 8 -5 2
-14 7 -20 11 -16 11 -60 7 -60 -6 0 -6 -3 -15 -7 -18 -4 -4 -3 -16 3 -26 5
-11 7 -19 3 -19 -3 0 -1 -6 5 -14 7 -8 20 -13 29 -11 20 3 54 -24 46 -37 -3
-5 2 -18 11 -28 12 -13 13 -18 3 -16 -24 3 -39 18 -34 32 7 18 -12 29 -49 29
-16 0 -30 5 -30 12 0 22 -15 26 -33 10 -10 -10 -21 -15 -24 -12 -3 3 -11 -2
-18 -10 -11 -13 -11 -19 3 -32 15 -15 18 -15 39 3 l22 19 -22 -29 c-21 -27
-21 -53 -1 -40 5 3 8 0 7 -8 -2 -7 4 -13 12 -13 8 0 20 -4 26 -7 6 -4 21 -6
33 -3 12 2 19 0 16 -5 -3 -5 0 -12 5 -15 8 -5 6 -13 -5 -25 -9 -10 -14 -23
-11 -29 4 -6 -2 -8 -13 -6 -27 5 -47 -20 -32 -39 9 -11 6 -18 -18 -36 -17 -11
-30 -25 -28 -30 1 -5 -13 -20 -32 -34 -19 -14 -29 -26 -21 -26 9 0 7 -5 -6
-14 -19 -15 -50 -3 -39 14 3 5 -11 21 -30 36 -24 18 -33 30 -26 37 15 15 -7
51 -23 38 -9 -8 -22 -2 -47 19 -19 16 -30 29 -26 30 4 0 2 10 -5 23 -7 12 -12
25 -13 29 0 4 -6 13 -12 20 -10 9 -16 9 -25 0 -8 -8 -25 3 -69 46 -32 31 -56
59 -53 63 2 4 -9 17 -26 29 -16 12 -30 19 -30 15 0 -3 -5 -3 -10 0 -8 5 -7 11
1 21 14 17 1 36 -26 40 -24 4 -125 98 -115 108 14 14 -8 50 -24 37 -18 -15
-91 46 -76 63 15 19 -34 63 -53 48 -10 -9 -25 1 -65 42 -41 43 -48 55 -35 60
26 10 -32 65 -66 63 -14 -1 -26 3 -27 11 -1 6 -2 17 -3 23 0 5 -5 8 -10 5 -5
-3 -28 15 -51 40 -31 34 -39 48 -31 58 16 19 -13 43 -33 27 -11 -9 -21 -2 -49
33 -32 38 -35 45 -21 57 8 7 13 18 10 25 -3 7 2 18 10 25 8 6 12 14 10 17 -3
3 4 18 15 33 11 16 17 29 12 29 -4 1 6 12 22 26 l30 24 -22 18 -23 17 37 40
c36 39 50 80 31 92 -6 3 9 25 33 49 24 24 39 44 35 44 -9 0 35 39 44 40 3 0
43 -37 88 -83z m1022 -1143 c0 -8 -19 -13 -24 -6 -3 5 1 9 9 9 8 0 15 -2 15
-3z m162 -61 c15 -16 17 -23 7 -23 -12 0 -11 -2 1 -10 13 -9 13 -10 0 -10 -13
-1 -13 -2 0 -10 12 -6 16 -24 15 -63 0 -46 -4 -58 -25 -75 -20 -16 -22 -23
-13 -33 10 -10 9 -16 -4 -31 -9 -10 -12 -18 -8 -18 5 0 -1 -10 -13 -22 -11
-13 -21 -27 -21 -33 0 -5 -4 -10 -10 -11 -8 -2 -8 -1 -1 3 6 3 -7 19 -30 35
-31 23 -38 33 -30 43 8 10 4 18 -17 33 -15 10 -36 18 -45 17 -10 -2 -21 2 -25
7 -3 7 -1 8 5 4 12 -7 47 39 47 63 0 9 6 17 13 17 6 1 14 3 17 4 3 1 10 4 15
5 6 1 12 4 15 5 14 7 52 5 63 -3 8 -7 17 -6 24 1 20 20 16 66 -8 98 -28 38 -6
43 28 7z"/>
<path d="M31862 16390 c-29 -32 -48 -61 -44 -64 19 -12 4 -56 -30 -91 l-37
-38 22 -19 22 -18 -30 -25 c-16 -14 -26 -25 -22 -25 5 0 -1 -13 -12 -29 -11
-15 -18 -30 -15 -33 2 -3 -2 -11 -10 -17 -8 -7 -13 -18 -10 -25 3 -7 -2 -18
-10 -25 -13 -11 -11 -18 16 -52 24 -30 34 -36 45 -28 19 16 58 -18 42 -37 -8
-9 -1 -23 26 -53 21 -23 41 -38 46 -36 10 7 31 -30 22 -38 -3 -4 5 -4 18 -2
30 6 94 -52 78 -71 -15 -18 72 -109 89 -92 17 17 77 -39 61 -58 -14 -17 50
-67 67 -53 16 13 48 -29 35 -45 -10 -12 95 -110 108 -101 5 2 16 -4 26 -15 15
-17 16 -22 4 -37 -8 -9 -9 -14 -3 -11 11 7 69 -34 69 -50 0 -5 23 -32 51 -60
38 -37 54 -48 62 -40 9 9 17 7 31 -6 11 -10 19 -21 18 -25 0 -3 4 -16 11 -27
6 -12 9 -24 6 -27 -3 -2 8 -14 24 -25 20 -15 32 -18 39 -11 7 7 15 5 24 -9 17
-24 29 -27 40 -10 14 21 10 31 -6 18 -9 -7 -18 -10 -22 -6 -3 3 0 6 8 6 12 0
11 2 -1 11 -13 9 -12 10 3 5 12 -4 16 -2 11 6 -5 7 -3 8 6 3 9 -6 11 -4 5 5
-5 9 -4 11 4 6 6 -4 9 -12 6 -17 -4 -5 -1 -9 5 -9 7 0 9 7 6 16 -3 9 -2 12 5
9 6 -4 8 -14 5 -22 -4 -9 -2 -12 7 -7 7 5 7 1 -3 -12 -11 -15 -11 -16 0 -6 8
6 18 12 24 12 5 0 1 -7 -10 -15 -13 -11 -14 -14 -4 -13 8 2 19 8 23 13 5 6 6
2 3 -8 -4 -12 -2 -16 6 -11 7 5 8 3 3 -6 -5 -9 -4 -11 3 -6 8 5 10 1 5 -9 -4
-11 -8 -13 -13 -5 -5 8 -10 7 -19 -4 -9 -11 -9 -15 1 -19 8 -3 8 -6 2 -6 -6
-1 -18 7 -25 16 -12 15 -12 16 1 8 13 -8 13 -7 1 9 -8 9 -20 15 -27 12 -7 -3
-16 -1 -20 5 -4 6 -11 6 -20 -2 -13 -10 -9 -17 20 -41 20 -16 35 -32 33 -36
-1 -4 3 -8 8 -9 6 -2 10 1 10 7 0 5 15 20 32 33 18 13 30 26 27 30 -3 3 9 16
26 28 27 20 29 25 16 35 -14 9 -12 14 9 34 14 13 25 20 25 16 0 -5 9 2 19 15
20 25 12 52 -14 43 -7 -3 -16 -1 -19 5 -4 6 -12 8 -19 5 -7 -2 -24 7 -37 21
-13 14 -20 25 -15 25 5 0 -2 11 -15 25 -23 24 -23 25 -5 45 10 11 20 18 23 15
3 -3 14 2 24 11 14 14 20 14 33 4 8 -7 13 -16 10 -19 -2 -4 2 -8 10 -8 13 0
12 4 -2 19 -9 10 -13 18 -9 18 4 0 2 9 -4 19 -7 14 -7 22 0 26 6 4 8 10 5 15
-13 21 45 34 75 16 8 -5 6 1 -5 13 -11 13 -20 31 -20 40 0 34 -30 48 -62 28
-7 -5 -19 2 -29 18 -9 13 -20 23 -24 20 -4 -3 -13 2 -20 10 -10 12 -10 18 0
31 8 8 9 14 4 12 -15 -5 -85 77 -74 88 10 11 -18 48 -40 52 -10 1 -9 -2 4 -12
17 -14 17 -15 -6 -12 -13 1 -38 13 -56 26 -29 21 -31 26 -17 36 14 11 14 12
-1 18 -9 3 -14 13 -11 20 3 8 -1 20 -9 26 -8 7 -14 9 -14 4 0 -5 -6 0 -14 11
-7 11 -14 24 -14 29 0 13 -85 96 -93 90 -4 -2 -18 9 -30 25 -12 17 -26 28 -31
25 -4 -3 -8 0 -8 6 0 6 -11 8 -26 6 -36 -7 -37 -10 -17 -32 10 -11 15 -15 11
-10 -13 17 -9 25 12 23 11 -1 20 -5 20 -10 0 -5 -7 -6 -16 -3 -9 3 -12 2 -9
-5 4 -6 14 -8 23 -4 9 3 13 3 9 -1 -4 -4 -1 -14 6 -23 11 -14 10 -14 -6 -2 -9
8 -20 11 -24 7 -3 -3 -15 2 -26 11 -15 13 -18 14 -12 3 4 -8 5 -12 0 -8 -4 4
-15 2 -23 -5 -13 -10 -14 -9 -7 2 5 9 4 12 -3 8 -5 -4 -9 -15 -7 -25 1 -9 -2
-25 -7 -36 -8 -14 -7 -17 4 -11 7 5 10 4 5 -1 -5 -5 -13 -10 -18 -10 -5 -1
-12 -2 -15 -3 -4 0 0 -9 7 -18 13 -17 13 -17 -6 -3 -19 14 -20 14 -2 -6 25
-30 21 -39 -5 -12 -13 13 -18 17 -12 8 17 -23 14 -49 -5 -43 -11 4 -10 0 4
-11 11 -10 13 -14 5 -10 -13 7 -13 6 0 -12 14 -18 14 -18 -5 -4 -19 14 -19 14
-6 -2 7 -10 17 -15 22 -12 5 3 9 -1 9 -8 0 -10 2 -10 9 1 5 7 10 9 12 3 2 -6
13 2 24 16 12 18 14 23 3 14 -14 -11 -15 -9 -13 17 1 16 6 34 10 41 6 9 4 11
-6 5 -12 -8 -12 -6 0 8 16 20 26 23 15 5 -5 -8 0 -7 12 2 18 14 18 14 4 -5
-14 -19 -14 -19 3 -6 9 8 15 16 13 19 -3 2 5 13 17 23 18 14 20 20 9 31 -11
11 -12 10 -7 -3 8 -21 -13 -35 -28 -20 -8 8 -7 16 6 28 16 16 18 16 34 0 15
-15 15 -18 1 -34 -8 -10 -18 -24 -23 -31 -11 -20 27 1 46 25 11 15 9 15 -11
-2 l-25 -20 19 23 c19 22 19 22 0 45 -19 22 -19 22 2 4 11 -9 24 -14 28 -10
11 12 37 12 30 1 -4 -7 -2 -8 4 -4 6 3 16 -3 22 -15 10 -17 9 -20 -2 -13 -11
6 -11 5 1 -9 7 -9 17 -14 22 -11 5 3 9 0 9 -6 0 -7 -6 -10 -14 -7 -15 6 -53
-29 -43 -40 4 -3 16 2 28 13 20 18 21 18 34 1 7 -10 15 -14 17 -10 3 4 3 2 1
-5 -1 -8 2 -10 9 -6 7 5 8 3 3 -6 -6 -9 -4 -11 5 -5 8 5 11 4 6 -3 -3 -6 -2
-13 4 -17 5 -3 10 -11 10 -16 0 -6 -4 -8 -9 -4 -6 3 -14 -3 -20 -12 -8 -14
-10 -15 -11 -3 0 13 -1 13 -10 0 -9 -13 -10 -13 -10 0 0 13 -2 13 -11 0 -9
-12 -10 -11 -5 5 6 20 6 20 -9 1 -8 -11 -15 -15 -15 -10 0 6 6 16 13 23 6 8 7
11 1 8 -7 -4 -10 2 -9 18 2 16 -1 22 -10 19 -22 -9 -28 16 -8 39 l18 22 -25
-20 -25 -20 15 20 c14 18 13 19 -1 8 -9 -7 -20 -9 -24 -5 -5 4 -5 1 0 -7 5 -9
4 -12 -3 -7 -8 5 -10 1 -6 -11 6 -15 4 -15 -9 2 -8 11 -19 17 -23 12 -4 -4 -1
-7 7 -7 11 0 11 -2 -1 -10 -13 -8 -13 -10 2 -10 9 0 20 -5 24 -11 4 -7 0 -9
-13 -5 -15 5 -27 -4 -52 -39 -31 -43 -51 -57 -51 -34 0 5 -4 8 -10 4 -5 -3 -7
-12 -3 -21 5 -13 9 -13 32 2 25 17 26 17 11 -1 -13 -17 -13 -18 0 -10 8 4 12
5 8 0 -4 -4 -3 -14 3 -22 9 -10 8 -18 -4 -31 -15 -16 -15 -20 -1 -34 14 -14
14 -17 0 -30 -17 -17 -11 -29 9 -22 7 3 12 16 10 30 -1 14 0 22 3 19 3 -2 11
0 19 6 10 9 17 8 30 -2 9 -8 25 -14 36 -14 11 0 22 -7 24 -15 4 -12 3 -12 -5
-2 -7 11 -10 11 -15 -2 -3 -8 -14 -13 -26 -11 -10 2 -27 -3 -38 -11 -16 -13
-16 -13 0 -8 10 4 17 1 17 -6 0 -6 -4 -9 -9 -5 -5 3 -12 1 -15 -4 -4 -5 -2
-12 4 -16 5 -3 10 -11 10 -17 0 -5 -8 -2 -17 9 -10 10 -14 13 -9 6 6 -9 5 -18
-2 -25 -9 -9 -16 -8 -30 7 -16 18 -16 18 1 6 9 -8 20 -11 24 -8 9 10 -18 38
-30 30 -6 -4 -7 -1 -2 7 5 8 1 18 -10 27 -13 9 -15 13 -5 13 8 0 1 10 -16 23
-29 22 -42 47 -25 47 5 0 11 -9 14 -19 2 -10 15 -24 28 -31 24 -11 24 -11 -1
9 -14 11 -21 21 -16 21 5 0 2 8 -5 17 -12 14 -12 15 -1 9 11 -7 12 -4 3 13
-13 24 -23 28 -15 6 4 -8 1 -15 -6 -15 -6 0 -9 4 -5 9 3 5 1 12 -4 15 -5 4
-12 2 -16 -4 -3 -5 -11 -10 -17 -10 -5 0 -2 8 9 18 10 9 13 13 6 8 -24 -16
-39 10 -19 33 16 18 16 19 -11 16 -21 -2 -34 5 -47 24 -19 26 -19 26 0 10 33
-28 51 -33 19 -5 -45 38 -62 33 -28 -8 15 -18 14 -18 -7 1 -19 18 -22 25 -12
35 9 9 16 8 30 -5 21 -20 32 -22 32 -6 0 5 -4 8 -9 5 -5 -3 -15 2 -22 12 -13
16 -12 16 6 2 16 -11 17 -11 8 0 -7 8 -13 19 -13 24 0 7 3 7 8 0 5 -8 14 -3
27 15 14 19 15 22 2 13 -14 -12 -16 -11 -12 7 3 15 0 19 -8 14 -8 -4 -7 -1 1
10 8 9 11 20 8 25 -3 5 4 18 15 28 17 16 22 16 31 4 8 -12 8 -11 3 5 -3 11 -3
16 1 12 4 -4 17 1 28 10 16 14 18 14 11 3 -6 -9 -2 -7 8 3 9 11 17 15 17 10 0
-5 -6 -15 -12 -23 -11 -12 -10 -12 3 -2 9 6 20 8 24 4 5 -4 5 -1 1 5 -12 22
-15 52 -5 58 5 4 6 12 2 18 -4 7 0 6 10 -2 9 -7 14 -17 11 -22 -3 -5 0 -9 6
-9 7 0 10 7 6 18 -5 14 -4 14 9 -2 8 -11 15 -14 15 -7 0 7 5 9 13 5 6 -4 1 5
-12 19 -14 15 -27 25 -29 22 -3 -3 -16 4 -28 16 -13 12 -24 17 -28 10 -4 -5
-13 -8 -21 -5 -11 5 -12 10 -3 24 7 10 17 16 23 12 5 -3 3 5 -6 18 -19 29 -41
33 -71 12 -34 -25 -43 -23 -86 13 -37 32 -45 56 -28 83 4 6 4 12 0 12 -4 0 0
6 11 13 12 10 14 16 7 21 -7 4 -12 4 -12 0 0 -4 -10 6 -22 22 -13 16 -23 32
-23 36 0 8 -147 158 -155 158 -3 0 -29 -27 -58 -60z m93 20 c24 -25 26 -30 12
-36 -9 -3 -14 -10 -11 -16 3 -5 11 -5 19 2 10 9 23 3 55 -26 22 -20 38 -39 36
-42 -3 -3 6 -18 19 -34 25 -30 32 -48 17 -48 -4 0 -14 6 -21 13 -11 10 -11 8
0 -10 7 -12 18 -19 24 -15 7 4 7 1 0 -9 -6 -8 -10 -21 -10 -30 0 -17 59 -89
72 -89 5 0 9 -4 9 -10 1 -5 2 -14 3 -18 0 -5 8 -9 16 -9 8 0 15 4 15 9 0 4 -4
8 -10 8 -5 0 -10 5 -10 12 0 6 3 8 7 5 3 -4 14 0 23 8 22 20 58 27 66 13 4 -6
0 -14 -7 -19 -8 -5 -10 -9 -5 -9 5 0 3 -6 -3 -14 -10 -12 -8 -17 8 -25 14 -8
22 -8 26 0 5 7 15 3 29 -10 12 -12 25 -19 28 -16 3 3 11 -3 19 -12 13 -16 12
-17 -3 -4 -10 7 -18 10 -18 6 0 -4 -7 -2 -15 5 -8 7 -16 10 -16 6 -3 -13 -7
-26 -9 -31 -1 -3 -3 -9 -4 -15 -1 -12 -46 -44 -65 -47 -21 -3 -62 -46 -57 -60
3 -7 1 -15 -5 -18 -5 -4 -6 -12 -2 -18 10 -16 13 -37 4 -34 -3 1 -20 -11 -36
-26 l-30 -28 33 -30 c29 -26 32 -32 20 -46 -12 -15 -11 -15 9 -3 12 8 20 17
18 20 -2 4 2 7 10 7 11 0 12 -4 4 -14 -9 -9 -8 -17 1 -28 7 -8 9 -15 4 -15 -4
0 -3 -5 4 -12 8 -8 15 -8 25 1 12 9 14 6 12 -18 -2 -23 4 -34 22 -46 13 -9 21
-20 18 -25 -3 -5 3 -13 12 -19 10 -5 14 -13 10 -17 -5 -5 -12 -2 -17 6 -6 9
-10 10 -10 3 0 -7 8 -17 18 -22 12 -7 13 -10 3 -11 -8 0 -2 -9 13 -21 21 -17
29 -19 41 -9 8 7 15 9 15 4 0 -4 5 -3 12 4 8 8 8 15 -2 27 -11 14 -11 16 1 13
8 -2 13 4 13 14 -1 10 4 14 12 11 8 -3 21 0 29 7 8 7 15 9 15 4 0 -4 5 -3 12
4 15 15 -6 41 -30 37 -9 -1 -25 4 -34 13 -12 10 -22 12 -30 5 -12 -8 -20 -9
-45 -4 -3 0 2 10 11 20 11 12 15 25 10 33 -11 18 -13 58 -2 58 4 0 7 3 6 8 -2
4 5 18 14 31 14 20 20 22 33 11 10 -8 15 -9 16 -1 1 6 3 16 4 21 1 6 3 14 4
20 3 23 48 -40 47 -66 -1 -26 2 -28 37 -29 26 -1 41 4 44 13 5 12 7 12 15 -2
5 -9 14 -16 21 -16 8 0 7 4 -2 9 -12 8 -12 13 -3 24 10 12 9 16 -3 21 -8 3
-14 9 -13 13 4 14 -23 54 -32 48 -5 -3 -11 -1 -14 4 -4 5 -2 13 4 16 7 4 5 13
-7 23 -10 10 -27 28 -38 42 -11 14 -1 7 23 -14 23 -22 40 -42 37 -44 -7 -7 35
-57 48 -57 7 0 11 -8 9 -17 -1 -9 2 -19 8 -23 8 -5 8 -11 0 -20 -8 -9 -1 -20
27 -41 21 -16 42 -28 46 -26 4 1 10 -5 13 -13 6 -15 25 -21 23 -7 -3 16 2 23
11 17 8 -5 8 -11 1 -19 -7 -9 1 -24 29 -55 21 -23 37 -48 34 -55 -3 -7 4 -21
16 -31 11 -10 20 -15 20 -10 0 4 9 -4 21 -19 13 -16 25 -24 33 -19 22 16 51 9
51 -12 0 -11 4 -25 8 -32 4 -7 1 -10 -10 -8 -20 3 -55 -23 -48 -36 3 -4 1 -10
-5 -14 -7 -4 -7 -12 0 -25 8 -15 7 -18 -3 -14 -8 3 -19 -2 -26 -10 -7 -8 -18
-13 -24 -11 -7 3 -20 -7 -31 -21 -18 -25 -18 -26 5 -50 12 -13 19 -24 14 -24
-5 0 4 -14 20 -30 16 -17 35 -28 42 -26 7 3 15 1 19 -5 3 -6 12 -8 20 -5 32
12 20 -13 -23 -49 -39 -32 -44 -40 -31 -49 14 -8 13 -12 -5 -27 -21 -16 -23
-15 -59 25 -21 22 -44 41 -51 41 -21 1 -57 -27 -50 -39 4 -6 0 -5 -9 2 -11 9
-18 9 -23 3 -4 -7 -15 -5 -30 5 -14 9 -22 20 -19 26 3 5 -2 18 -13 30 -10 11
-16 21 -13 22 3 1 -5 14 -16 29 -18 22 -24 24 -33 13 -10 -12 -20 -6 -59 32
-26 25 -46 49 -45 53 2 4 -12 20 -30 35 -17 15 -31 32 -29 37 4 14 -39 58 -50
51 -5 -3 -29 14 -53 39 -25 24 -48 41 -52 38 -4 -3 -2 1 5 10 10 13 8 21 -9
43 -15 19 -25 24 -32 17 -15 -15 -71 27 -58 43 16 19 -53 83 -72 68 -10 -9
-21 -2 -50 33 -23 28 -33 46 -26 51 14 8 -61 86 -77 80 -7 -3 -20 6 -29 20 -9
14 -20 22 -24 19 -15 -9 -73 65 -62 78 6 8 2 21 -14 39 -20 23 -25 25 -36 12
-10 -13 -16 -10 -40 18 -24 30 -26 35 -12 50 8 9 12 22 8 27 -3 6 1 14 10 17
9 4 14 12 11 19 -3 8 6 25 19 39 13 14 20 26 14 26 -6 0 2 11 18 24 27 23 27
25 10 43 -16 19 -16 21 16 59 32 38 40 67 25 90 -4 6 9 27 32 47 21 20 40 32
42 27 2 -6 9 -1 17 11 11 19 11 21 -4 16 -9 -4 -14 -3 -10 3 10 16 19 12 50
-20z m495 -515 c14 -16 21 -27 16 -23 -5 4 -15 3 -23 -4 -8 -6 -13 -7 -12 -2
1 5 1 11 -1 14 -3 9 -10 54 -8 49 2 -2 14 -17 28 -34z m-71 -14 c2 -1 -4 -10
-14 -21 -15 -16 -15 -22 -5 -35 11 -13 8 -20 -4 -12 -2 1 -12 -6 -23 -15 -14
-13 -19 -30 -18 -62 1 -34 -2 -43 -14 -41 -9 1 -16 13 -16 28 -1 14 3 25 9 24
14 -3 15 34 2 52 -8 11 -8 13 1 8 14 -9 27 10 28 38 0 29 13 44 33 40 9 -2 19
-4 21 -4z m131 -95 c0 -2 -8 -10 -17 -17 -16 -13 -17 -12 -4 4 13 16 21 21 21
13z m231 -868 c0 -10 2 -10 6 0 2 6 10 12 16 12 5 0 7 -3 4 -7 -4 -3 0 -14 9
-24 27 -30 0 -29 -34 2 -20 18 -27 29 -17 29 8 0 15 -6 16 -12z"/>
<path d="M31920 16401 c-6 -12 -15 -19 -20 -16 -13 8 -71 -45 -63 -58 15 -24
9 -57 -13 -78 -13 -12 -21 -25 -19 -29 3 -5 -2 -11 -11 -14 -15 -6 -15 -8 1
-26 18 -20 18 -21 -5 -45 -13 -14 -20 -25 -15 -25 4 0 -4 -12 -18 -26 -15 -15
-24 -31 -20 -37 3 -5 -2 -16 -12 -24 -13 -9 -14 -13 -5 -13 9 0 7 -7 -8 -22
l-21 -23 24 -27 c20 -23 25 -25 36 -12 10 13 16 10 40 -18 18 -22 24 -37 18
-44 -11 -13 37 -77 51 -69 5 3 18 -7 29 -21 19 -24 27 -20 22 9 0 4 4 7 10 7
7 0 0 9 -15 21 -14 11 -24 25 -21 30 4 5 1 9 -4 9 -13 0 -14 -12 -3 -26 4 -5
-1 -1 -10 9 -10 11 -15 24 -11 30 3 5 2 7 -4 4 -5 -3 -10 0 -10 8 0 8 5 11 11
8 6 -4 4 2 -4 13 -14 18 -14 18 5 4 19 -14 19 -14 5 5 -14 19 -14 19 4 5 16
-13 20 -12 33 5 13 17 15 17 10 3 -9 -25 -2 -22 18 8 9 15 12 24 7 20 -7 -4
-9 1 -7 14 2 11 -2 20 -8 20 -8 0 -8 3 -2 8 13 9 18 42 7 42 -5 0 -15 -7 -22
-15 -10 -12 -10 -18 0 -30 7 -9 10 -18 7 -21 -9 -9 -29 35 -21 48 5 7 3 8 -6
3 -9 -6 -11 -4 -5 5 6 9 4 11 -6 5 -11 -7 -12 -6 -3 6 6 8 10 24 8 36 -2 12 1
25 6 28 6 4 7 -1 4 -12 -6 -16 -4 -15 10 2 10 11 15 14 11 8 -4 -9 -1 -11 11
-6 14 5 16 3 11 -11 -4 -11 -3 -15 4 -11 6 4 8 14 4 24 -5 12 -4 13 6 4 10
-10 9 -16 -2 -30 -13 -17 -13 -17 6 -3 19 14 19 14 5 -4 -9 -12 -10 -17 -3
-12 9 5 11 2 7 -8 -8 -22 10 -20 27 2 12 15 12 16 -2 5 -13 -10 -16 -10 -16 2
0 8 5 11 11 8 6 -4 4 1 -4 11 -13 17 -11 21 20 48 22 18 28 27 15 23 -14 -5
-16 -4 -7 3 11 7 11 10 -3 15 -11 5 -14 3 -10 -6 4 -6 -1 -3 -11 8 -14 17 -16
18 -10 2 3 -10 2 -15 -3 -12 -5 3 -13 0 -17 -6 -4 -8 -3 -9 5 -5 7 5 10 2 9
-6 -2 -7 3 -12 10 -10 8 1 11 -2 7 -8 -5 -8 -12 -7 -23 2 -13 11 -14 11 -7 -2
8 -13 7 -13 -8 -1 -14 11 -20 11 -34 0 -10 -7 -15 -9 -11 -5 4 5 2 16 -5 25
-11 14 -10 15 8 1 19 -14 20 -14 3 6 -10 11 -18 24 -18 28 0 5 9 -2 19 -15 16
-19 22 -22 32 -11 10 9 10 12 0 12 -7 0 -9 5 -6 10 3 6 1 10 -5 10 -7 0 -9 -7
-5 -17 5 -15 4 -16 -6 -5 -11 10 -11 14 0 25 10 10 15 8 27 -7 8 -11 14 -15
14 -10 0 6 -6 16 -12 23 -7 8 -8 11 -2 8 6 -3 11 0 11 8 0 8 -3 12 -7 10 -4
-2 -7 2 -7 10 0 8 4 12 9 9 4 -3 5 1 2 9 -9 23 16 31 34 11 16 -17 16 -17 -1
-5 -21 17 -36 6 -17 -12 10 -10 11 -9 5 3 -7 12 -6 13 7 2 12 -10 20 -8 42 9
20 16 30 19 38 11 9 -9 7 -17 -5 -30 -21 -23 -22 -36 -1 -28 10 4 13 2 8 -6
-5 -7 -3 -8 6 -3 9 5 11 4 6 -3 -5 -8 -1 -10 9 -5 13 5 14 7 3 14 -7 5 -9 9
-3 9 5 0 4 5 -2 11 -6 6 -9 18 -6 26 4 11 8 10 20 -4 13 -17 13 -16 4 3 -5 11
-17 26 -25 33 -9 8 -14 17 -11 21 3 4 -11 22 -31 39 -27 24 -39 29 -49 21 -9
-7 -16 -6 -24 4 -10 11 -9 16 2 23 12 7 11 11 -4 26 -17 18 -18 18 -29 -2z
m20 -25 c-15 -15 20 -49 35 -36 9 8 22 3 44 -16 18 -15 29 -29 26 -32 -3 -3 3
-15 12 -26 17 -20 17 -20 0 -7 -15 12 -20 11 -37 -4 -19 -17 -21 -17 -41 1
-21 19 -21 18 -39 -4 -10 -12 -17 -31 -15 -42 3 -17 -14 -32 -40 -34 -12 -1
-14 -37 -3 -52 5 -7 2 -17 -7 -24 -8 -7 -13 -23 -11 -36 3 -13 0 -26 -5 -29
-5 -4 -2 -17 7 -31 9 -13 13 -24 8 -24 -4 0 1 -6 11 -14 11 -8 22 -13 26 -11
3 2 6 -2 6 -10 0 -8 -4 -12 -8 -9 -4 2 -12 -3 -17 -13 -8 -14 -13 -15 -25 -5
-18 15 -34 -2 -33 -35 1 -26 42 -84 57 -80 6 1 13 -6 14 -17 3 -16 0 -15 -22
5 -13 13 -28 23 -31 23 -4 -1 -6 2 -4 7 1 5 -4 9 -12 9 -17 0 -29 27 -15 35 5
4 -1 20 -16 37 -14 16 -23 33 -21 37 3 4 -5 13 -16 20 -18 11 -20 11 -15 -3 9
-23 -9 -29 -32 -9 l-21 17 23 24 c12 13 21 27 20 30 -2 4 2 7 9 7 6 0 13 6 16
13 2 7 0 12 -5 11 -24 -4 -24 4 2 31 16 17 25 30 20 30 -5 0 2 11 15 25 23 25
23 25 4 47 -10 12 -13 18 -6 14 10 -6 14 0 11 20 -1 3 10 18 23 32 24 27 30
56 15 79 -8 13 40 56 54 47 5 -2 14 4 21 15 9 14 14 17 20 8 4 -6 3 -16 -2
-21z m124 -164 c3 -5 -1 -9 -9 -9 -8 0 -12 4 -9 9 3 4 7 8 9 8 2 0 6 -4 9 -8z
m-80 -80 c3 -5 -1 -9 -9 -9 -8 0 -12 4 -9 9 3 4 7 8 9 8 2 0 6 -4 9 -8z m-71
-127 c-3 -9 -8 -14 -10 -11 -3 3 -2 9 2 15 9 16 15 13 8 -4z"/>
<path d="M31919 16374 c-10 -13 -10 -17 2 -25 9 -5 10 -9 2 -9 -7 0 -17 8 -22
18 -6 10 -11 12 -11 4 0 -7 -4 -11 -9 -8 -5 3 -14 -1 -20 -8 -7 -8 -8 -17 -3
-20 16 -10 7 -55 -18 -81 -13 -14 -20 -25 -16 -25 4 0 2 -8 -3 -18 -7 -13 -6
-23 1 -30 9 -9 6 -18 -12 -37 -13 -14 -20 -25 -15 -25 5 0 -4 -14 -21 -31 -16
-17 -24 -30 -19 -29 31 6 38 0 20 -20 -10 -11 -23 -17 -29 -13 -6 3 -8 2 -3
-2 4 -5 -3 -20 -15 -34 -13 -14 -19 -23 -14 -19 5 4 15 0 23 -10 11 -15 12
-15 7 -1 -6 19 11 35 21 19 4 -6 11 -8 16 -5 5 4 9 3 10 -2 3 -30 10 -48 25
-62 9 -9 14 -11 10 -4 -10 18 23 46 39 33 9 -7 16 -6 25 5 11 14 7 19 -12 16
-7 -1 -10 8 -7 25 0 3 -6 16 -15 29 -9 13 -12 26 -7 30 5 3 8 16 5 29 -2 13 3
29 11 36 8 7 12 17 8 24 -17 27 -4 74 17 61 10 -6 20 7 25 37 3 11 14 31 26
44 l22 23 18 -22 19 -22 21 24 20 24 -27 24 c-19 16 -31 20 -39 13 -18 -15
-59 32 -43 48 7 7 9 12 6 12 -3 0 -11 -7 -19 -16z m-11 -37 c6 -5 16 -6 21 -3
5 3 14 -1 21 -9 8 -10 17 -12 24 -6 7 6 19 2 35 -10 13 -10 18 -19 12 -19 -7
0 -10 -4 -6 -9 12 -21 -19 -23 -34 -2 l-17 22 -28 -29 c-24 -26 -32 -43 -35
-75 -1 -5 -5 -6 -10 -3 -4 3 -15 -2 -24 -12 -16 -17 -17 -37 -4 -58 4 -7 0
-17 -8 -24 -8 -7 -13 -23 -11 -36 3 -13 0 -26 -5 -29 -5 -4 -2 -17 7 -31 9
-13 13 -24 10 -24 -4 0 -2 -9 4 -20 6 -11 16 -17 22 -14 7 4 8 2 4 -5 -6 -9
-11 -9 -21 -1 -10 9 -19 6 -34 -9 -21 -21 -24 -18 -24 22 0 9 -4 18 -8 18 -5
1 -13 2 -18 3 -5 0 -13 4 -17 8 -4 4 -14 2 -23 -4 -9 -7 2 7 23 30 32 33 36
42 23 47 -13 6 -14 9 -1 23 8 9 14 22 15 27 0 6 10 20 21 32 16 17 18 26 10
36 -7 7 -7 18 -2 27 5 8 7 17 4 21 -2 4 9 19 26 32 28 24 42 45 21 32 -6 -3
-8 3 -6 15 2 11 -1 22 -6 25 -5 4 -7 10 -4 15 6 9 24 8 43 -3z"/>
<path d="M31881 16324 c6 -8 8 -14 3 -14 -5 0 -1 -7 9 -14 16 -12 15 -15 -19
-41 -19 -15 -33 -29 -30 -32 3 -3 1 -14 -4 -24 -14 -26 6 -35 22 -9 7 11 19
20 26 20 7 0 11 4 7 10 -3 5 10 27 30 48 29 33 33 41 21 51 -16 14 -25 4 -21
-22 2 -9 -1 -15 -6 -11 -5 3 -7 9 -5 13 7 11 -11 34 -29 37 -13 2 -14 0 -4
-12z m64 -13 c3 -5 2 -12 -3 -15 -5 -3 -9 1 -9 9 0 17 3 19 12 6z m-56 -73
c-43 -57 -54 -68 -40 -40 6 12 8 22 4 22 -7 1 57 59 65 60 2 0 -11 -19 -29
-42z"/>
<path d="M31977 16314 c-6 -7 14 -44 25 -44 9 0 4 28 -8 40 -6 6 -13 8 -17 4z"/>
<path d="M31825 16130 c-10 -11 -15 -20 -11 -20 3 0 -1 -11 -9 -24 -12 -17
-13 -26 -5 -31 8 -5 3 -16 -15 -35 -17 -18 -23 -30 -16 -34 6 -4 11 -5 11 -1
0 3 9 1 19 -5 12 -6 18 -18 16 -30 -3 -17 -1 -18 15 -7 21 12 21 47 0 72 -7 8
-7 15 -1 19 5 4 8 16 6 28 -3 12 2 30 11 39 10 11 12 19 4 24 -5 3 -8 11 -5
16 10 16 -1 10 -20 -11z m11 -29 c-9 -9 -14 -27 -11 -39 2 -12 -1 -24 -6 -28
-6 -4 -6 -10 1 -19 16 -19 20 -54 8 -61 -6 -4 -8 -2 -4 4 8 13 -33 43 -48 35
-6 -3 2 8 17 24 18 20 25 33 18 38 -8 4 -8 13 1 28 7 12 13 25 14 30 1 4 2 10
3 13 0 3 6 2 12 -1 7 -5 5 -13 -5 -24z"/>
<path d="M31794 16008 c-4 -7 -4 -10 1 -6 4 4 14 0 22 -10 13 -15 13 -15 3 6
-12 25 -16 27 -26 10z"/>
<path d="M32012 16230 c-12 -10 -31 -17 -40 -15 -13 2 -18 -3 -18 -20 0 -13 3
-22 6 -20 4 2 22 -5 40 -17 l34 -20 -34 -29 -35 -29 21 -18 22 -19 -22 -14
c-11 -8 -28 -14 -35 -14 -16 0 -24 -52 -9 -61 4 -3 -1 -19 -13 -35 -11 -16
-24 -27 -28 -25 -11 7 -34 -10 -37 -27 -1 -8 5 -14 15 -13 9 0 15 -5 14 -11
-2 -7 8 -20 22 -29 19 -12 22 -20 15 -33 -7 -14 0 -27 35 -61 28 -28 41 -48
36 -54 -6 -7 3 -25 24 -49 19 -22 36 -34 40 -28 9 16 15 52 7 48 -4 -2 -18 7
-32 20 -16 16 -18 22 -7 17 10 -3 17 -1 17 6 0 6 -4 9 -9 5 -5 -3 -13 0 -17 6
-5 8 -3 9 7 4 12 -8 12 -6 0 8 -12 15 -11 20 4 37 24 27 11 38 -17 14 l-23
-18 22 24 c18 19 25 22 35 12 9 -9 8 -16 -5 -30 -19 -21 -22 -32 -7 -32 6 0 9
3 8 8 -2 4 5 18 15 32 9 13 17 20 17 16 0 -5 -8 -19 -17 -30 -17 -20 -17 -20
1 -6 16 12 18 12 11 1 -5 -9 -4 -12 3 -7 6 3 14 1 18 -5 5 -8 3 -9 -6 -4 -9 5
-11 4 -6 -4 4 -6 12 -8 18 -5 6 4 8 -2 3 -17 -5 -20 -4 -21 5 -9 10 13 11 12
6 -3 -4 -12 -2 -16 6 -11 6 4 8 3 4 -4 -3 -6 -2 -13 4 -17 6 -4 7 -11 4 -17
-5 -7 -2 -8 5 -3 10 5 9 2 0 -13 -12 -19 -14 -19 -25 -4 -7 9 -10 20 -8 24 2
4 0 9 -6 13 -5 3 -10 3 -11 -2 0 -4 -2 -16 -4 -25 -2 -10 15 -34 41 -58 43
-40 54 -60 33 -60 -5 0 -7 5 -3 12 5 7 3 8 -6 3 -10 -6 -7 -12 11 -26 15 -11
28 -14 35 -8 14 11 53 -29 59 -62 5 -27 54 -79 78 -83 9 -1 30 -15 47 -31 16
-16 30 -25 30 -21 0 5 7 3 15 -4 21 -17 19 -1 -2 23 -10 11 -13 18 -7 14 6 -3
11 0 11 8 0 11 -4 12 -14 3 -7 -6 -16 -8 -20 -4 -3 3 0 6 7 6 9 0 7 5 -6 14
-19 15 -18 16 9 43 15 15 27 22 27 15 0 -7 5 -10 11 -6 8 4 7 9 -2 15 -10 6
-7 8 8 6 12 0 19 -5 16 -11 -4 -5 -1 -6 7 -1 9 6 11 4 5 -5 -6 -9 -4 -11 5 -5
9 6 11 4 4 -6 -4 -8 -9 -23 -9 -34 0 -11 -4 -26 -9 -34 -7 -11 -6 -12 5 -6 11
7 11 5 -1 -11 -14 -18 -13 -18 10 1 l25 20 -19 -22 c-10 -13 -23 -20 -27 -17
-5 3 -9 0 -9 -5 0 -6 5 -11 11 -11 5 0 7 -5 3 -11 -4 -7 -9 -7 -13 -1 -3 5
-14 8 -24 6 -9 -1 -15 2 -12 7 4 5 -1 6 -9 3 -11 -4 -7 -13 19 -36 19 -16 33
-33 32 -37 -1 -4 17 -25 41 -47 35 -34 44 -39 54 -27 10 12 16 9 37 -19 14
-18 26 -36 26 -41 0 -5 9 -16 20 -24 14 -11 16 -17 7 -20 -10 -4 -8 -8 5 -18
13 -9 22 -10 30 -3 7 6 13 8 13 4 0 -4 11 1 25 10 14 9 22 20 19 25 -3 5 -1 9
5 9 5 0 12 -6 14 -12 3 -8 6 -9 6 -2 1 6 20 -7 44 -30 24 -23 41 -45 38 -51
-2 -5 3 -4 12 4 12 10 14 17 7 26 -8 10 2 24 37 56 26 23 42 39 35 35 -7 -4
-19 -3 -27 4 -9 7 -15 8 -20 1 -6 -10 -66 50 -66 66 0 4 -9 18 -21 30 l-20 22
21 27 c11 14 18 30 15 35 -3 5 -1 9 5 9 5 0 13 -5 16 -11 5 -7 13 -4 26 7 10
9 16 21 12 26 -3 6 1 14 8 19 9 6 10 9 2 9 -7 0 -1 11 13 25 14 14 29 23 33
21 4 -3 7 6 7 19 0 13 -4 21 -8 19 -5 -3 -6 -10 -3 -15 4 -5 1 -9 -4 -9 -6 0
-11 8 -11 17 0 13 -3 14 -12 5 -8 -8 -23 -1 -60 30 -28 23 -47 46 -44 54 3 7
-19 38 -49 69 -30 31 -55 52 -55 47 0 -5 -16 6 -36 24 -20 19 -40 32 -45 28
-6 -3 -16 -1 -24 6 -7 6 -16 7 -19 2 -6 -10 -66 -9 -84 1 -6 5 -10 19 -8 32 3
14 -3 30 -14 40 -17 16 -18 16 -16 -2 4 -22 -14 -35 -30 -22 -12 10 -36 -11
-41 -37 -2 -8 -5 -22 -7 -31 -2 -10 1 -24 7 -31 7 -9 5 -18 -7 -31 -18 -20 -5
-24 22 -7 8 5 20 2 30 -7 9 -8 25 -13 34 -12 9 2 24 -5 34 -16 14 -15 14 -21
4 -34 -7 -8 -16 -12 -21 -10 -4 3 -12 -3 -18 -12 -6 -10 -11 -14 -11 -9 0 5
-7 3 -15 -4 -8 -7 -12 -16 -9 -22 7 -11 -15 -40 -26 -33 -4 3 -13 -2 -19 -9
-10 -12 -16 -10 -39 12 -15 15 -27 29 -27 32 0 3 -3 10 -7 16 -4 6 -6 20 -3
32 2 14 -4 26 -20 36 -15 10 -23 23 -20 35 2 13 -1 18 -9 15 -7 -3 -19 2 -26
11 -7 8 -9 15 -5 15 4 0 2 7 -5 15 -8 10 -17 12 -24 6 -6 -6 -18 -6 -25 -2
-10 6 -9 10 5 15 15 6 13 11 -18 40 l-36 34 39 38 c26 26 35 41 29 49 -6 7 -6
15 1 22 8 8 8 13 0 17 -6 4 -11 12 -11 18 0 6 3 8 6 5 4 -4 22 7 41 23 19 17
38 28 43 25 5 -3 15 4 23 15 7 11 17 17 22 12 5 -4 5 -2 1 5 -3 6 -2 14 4 18
6 4 8 10 5 15 -3 5 -1 11 5 15 6 4 8 11 4 16 -4 7 -10 6 -18 0 -9 -7 -19 -6
-35 5 -17 13 -20 19 -10 30 6 8 8 14 4 14 -4 0 -2 7 5 15 10 12 8 13 -11 10
-28 -6 -44 -21 -44 -42 0 -22 -33 -25 -45 -3 -5 9 -6 21 -2 25 4 3 2 5 -3 3
-16 -5 -83 75 -77 91 3 9 0 12 -10 9 -8 -3 -25 2 -38 12 -23 18 -24 19 -7 38
32 35 17 44 -21 12z m13 -10 c-17 -19 -17 -21 -2 -38 10 -10 14 -22 10 -26 -4
-4 5 -5 20 -2 15 3 25 1 23 -3 -3 -4 15 -29 39 -56 25 -26 43 -51 40 -55 -5
-8 16 -20 42 -26 16 -3 36 22 29 35 -4 6 2 15 13 20 19 11 24 -1 9 -24 -3 -6
2 -20 12 -33 24 -30 24 -30 46 -12 18 14 18 14 5 -2 -7 -10 -10 -18 -5 -18 5
-1 -1 -9 -14 -20 -13 -10 -24 -22 -25 -27 -1 -4 -8 -8 -16 -10 -7 -1 -26 -14
-42 -29 -16 -15 -29 -24 -29 -20 0 5 -7 3 -15 -4 -14 -11 -13 -14 1 -25 13 -9
14 -14 5 -19 -8 -6 -9 -12 -2 -20 8 -9 0 -23 -28 -50 -30 -29 -41 -35 -47 -24
-5 7 -9 19 -9 25 0 7 -3 12 -6 10 -3 -1 -13 4 -23 12 -14 12 -20 11 -41 -9
-30 -28 -22 -49 8 -23 22 18 22 18 5 -3 -10 -11 -16 -30 -13 -44 4 -20 0 -18
-35 16 -28 28 -38 45 -35 61 2 15 -4 28 -18 38 -12 9 -23 20 -23 25 -1 6 -2
11 -4 13 -6 8 -7 36 0 32 12 -7 60 57 52 70 -13 20 -10 34 6 28 10 -4 13 -2 8
5 -4 6 7 21 24 34 l31 22 -23 18 -23 18 30 24 c16 13 33 22 37 19 5 -2 8 1 8
6 0 6 -3 11 -7 11 -5 1 -21 11 -36 24 l-29 23 28 27 c34 31 45 34 19 6z m440
-522 c-6 -28 21 -58 46 -53 10 2 19 0 19 -6 0 -5 -5 -9 -11 -9 -5 0 -7 -5 -3
-11 4 -8 11 -4 18 9 11 22 11 22 24 1 7 -11 17 -17 23 -13 6 3 4 11 -7 18 -12
9 -14 15 -5 20 6 4 14 0 17 -9 5 -11 10 -13 19 -5 9 8 21 2 46 -22 19 -18 38
-32 42 -33 5 0 29 -20 53 -45 39 -39 42 -46 29 -60 -15 -16 -11 -30 7 -30 5 0
6 6 1 13 -4 6 18 -10 49 -36 31 -27 60 -49 65 -49 13 0 4 -22 -15 -36 -9 -7
-17 -17 -17 -22 0 -4 -3 -11 -7 -15 -4 -4 -4 -13 -2 -20 3 -7 1 -16 -5 -20 -6
-3 -14 1 -17 10 -5 12 -10 13 -20 4 -8 -6 -12 -15 -9 -19 3 -4 -5 -20 -16 -34
l-21 -27 23 -25 c13 -14 23 -29 23 -32 -3 -15 64 -83 71 -72 3 5 11 7 17 4 5
-4 -6 -22 -26 -43 -20 -20 -33 -41 -29 -47 5 -5 1 -2 -8 8 -9 9 -19 15 -22 12
-3 -3 -15 8 -28 25 -12 17 -25 28 -29 26 -4 -3 -13 2 -20 10 -15 18 -34 20
-23 3 17 -28 7 -45 -27 -52 -3 -1 -10 -5 -17 -9 -6 -4 -14 -3 -17 2 -4 5 -2
12 4 16 5 3 10 11 10 17 0 6 -3 8 -6 5 -4 -3 -15 -2 -26 4 -11 6 -17 13 -14
16 3 3 -8 21 -24 41 -15 19 -26 40 -24 47 3 6 -2 12 -11 12 -9 0 -14 -6 -11
-13 10 -27 -16 -24 -49 5 -20 17 -35 33 -34 37 0 3 -12 19 -28 36 -18 19 -22
27 -10 23 9 -4 17 -12 17 -18 0 -6 6 -2 14 8 8 11 12 23 10 26 -2 4 5 14 16
24 23 21 27 40 7 32 -14 -5 -17 39 -4 60 8 12 -17 36 -42 40 -10 1 -33 -13
-51 -32 -26 -27 -31 -37 -22 -48 7 -8 9 -17 5 -20 -3 -4 2 -9 11 -13 9 -3 16
-11 16 -17 0 -6 -14 2 -30 18 -17 16 -38 30 -48 31 -9 2 -29 16 -44 33 -20 22
-26 38 -23 61 2 17 0 28 -4 25 -5 -2 -20 4 -34 15 -16 13 -28 16 -32 10 -4 -6
-11 -8 -16 -4 -7 4 -6 10 0 18 7 8 -4 24 -40 55 -28 24 -48 46 -44 49 3 3 11
-3 19 -13 13 -18 14 -18 25 4 7 13 18 20 26 17 8 -3 17 -1 20 5 4 5 11 7 16 3
5 -3 7 -9 4 -14 -3 -5 6 -17 20 -29 15 -11 25 -21 23 -23 -5 -6 29 -48 35 -42
8 8 3 -18 -6 -32 -4 -7 0 -15 9 -18 8 -3 13 -10 9 -15 -3 -6 6 -18 20 -27 13
-9 23 -20 20 -24 -9 -15 23 -19 35 -5 7 8 16 13 20 10 11 -7 41 30 38 46 -2 7
3 13 10 14 7 0 17 7 22 15 8 12 10 12 10 1 0 -8 9 -2 21 13 l21 27 -22 24
c-12 12 -29 22 -38 20 -9 -1 -25 4 -34 13 -15 13 -20 13 -35 1 -16 -13 -17
-12 -4 4 9 11 10 21 4 30 -6 6 -9 19 -7 27 2 8 5 22 6 30 6 29 20 42 31 31 13
-13 50 6 41 21 -4 6 -3 8 4 4 6 -3 9 -16 7 -28z m-307 -46 c-11 -5 -18 -3 -19
6 -1 4 -6 16 -11 27 -8 15 -5 14 13 -5 13 -14 21 -26 17 -28z m-102 -22 c7 -8
10 -20 7 -26 -3 -8 -15 -1 -33 19 -15 18 -26 35 -23 40 5 8 30 -8 49 -33z"/>
<path d="M31991 16187 c2 -1 13 -9 24 -17 19 -14 19 -14 6 3 -7 9 -18 17 -24
17 -6 0 -8 -1 -6 -3z"/>
<path d="M32055 16122 c-3 -4 -10 -7 -13 -7 -4 0 -18 -8 -31 -17 l-24 -17 23
-19 23 -19 -32 -22 c-17 -12 -29 -27 -25 -32 3 -5 -2 -12 -11 -15 -11 -5 -13
-10 -5 -19 7 -8 0 -23 -25 -52 -26 -30 -31 -43 -22 -52 6 -6 7 -11 3 -11 -5 0
3 -9 17 -20 18 -15 24 -27 21 -45 -7 -38 14 -39 51 -2 28 28 37 32 46 21 6 -8
15 -12 19 -9 11 7 33 -22 26 -34 -4 -5 -2 -12 2 -15 5 -3 23 10 41 28 22 22
29 36 21 41 -8 5 -7 11 2 23 8 9 8 13 2 9 -21 -12 -23 21 -3 39 10 9 19 14 19
10 0 -5 16 6 36 23 19 17 40 29 45 25 5 -3 9 -2 8 3 -3 17 1 33 9 31 4 -2 8 2
10 7 1 6 -2 10 -7 10 -5 0 -18 11 -29 24 l-19 25 -14 -22 c-14 -23 -36 -32
-23 -9 4 6 4 9 -1 5 -8 -8 -50 17 -50 30 0 13 -46 72 -64 82 -10 5 -22 6 -26
2z m18 -28 c-14 -10 -16 -15 -5 -25 10 -11 14 -11 25 0 10 10 9 11 -5 6 -10
-4 -18 -3 -18 2 0 18 35 10 50 -11 8 -12 14 -24 13 -28 -1 -3 14 -18 34 -34
l36 -27 17 22 16 23 18 -26 c17 -26 17 -27 -23 -62 -22 -20 -42 -34 -44 -32
-3 1 -17 -8 -31 -21 -20 -19 -23 -28 -15 -43 5 -10 6 -18 2 -17 -20 3 -30 -2
-30 -16 0 -18 14 -20 20 -2 3 8 8 9 16 1 8 -7 3 -18 -20 -40 -16 -16 -28 -22
-24 -13 3 9 -3 23 -15 34 -11 10 -20 15 -20 10 0 -4 -7 -2 -15 5 -8 7 -13 15
-11 19 2 3 -8 15 -23 25 l-26 20 20 -23 c16 -19 17 -24 5 -31 -8 -6 -11 -10
-6 -10 5 0 1 -9 -9 -20 -10 -11 -21 -17 -25 -15 -5 3 -11 -1 -14 -7 -2 -7 -3
-2 -2 12 2 16 -7 38 -26 60 l-29 35 31 28 c17 15 27 27 24 27 -4 0 -1 6 5 13
6 8 8 17 4 20 -3 4 -1 12 5 19 6 7 10 17 11 21 0 5 12 18 26 29 25 19 25 21 9
39 -14 15 -14 21 -4 34 7 8 16 13 20 10 5 -3 11 -1 15 4 3 6 12 8 21 4 12 -4
12 -7 -3 -19z"/>
<path d="M32055 16100 c-4 -6 -10 -8 -15 -5 -17 11 -22 -17 -6 -34 16 -17 15
-20 -12 -43 -26 -22 -28 -26 -13 -35 14 -10 14 -11 -4 -10 -11 1 -21 -5 -21
-13 -1 -8 -3 -18 -4 -22 -1 -5 -3 -12 -4 -16 0 -5 -14 -20 -29 -33 l-28 -24
31 -37 c17 -21 31 -40 30 -43 -1 -16 1 -16 15 -5 8 7 13 16 10 20 -3 5 0 12 5
15 8 5 6 13 -5 25 -9 10 -12 21 -7 24 5 3 15 -1 22 -9 7 -8 16 -12 21 -9 5 3
10 0 10 -5 1 -6 2 -15 3 -21 0 -5 4 -9 8 -7 3 1 18 -9 32 -22 26 -24 27 -24
44 -6 16 17 16 18 0 6 -9 -7 -21 -10 -27 -7 -13 8 -8 36 8 46 8 4 11 12 8 17
-6 10 47 68 56 61 3 -1 21 12 41 30 31 28 34 35 24 51 -11 18 -12 18 -29 -2
-17 -21 -17 -22 -38 -3 -12 11 -21 15 -21 10 0 -8 -35 37 -35 46 0 3 -4 11 -9
18 -6 10 -11 10 -22 1 -12 -10 -18 -9 -31 4 -13 13 -14 19 -3 31 7 9 10 16 7
16 -3 0 -9 -5 -12 -10z m39 -51 c9 7 17 11 17 7 1 -3 2 -9 3 -13 4 -18 39 -62
46 -58 4 2 15 -4 25 -15 17 -19 18 -19 35 2 9 12 19 17 23 12 3 -6 -9 -23 -28
-40 -28 -25 -34 -27 -43 -14 -8 12 -12 13 -23 2 -12 -11 -11 -12 4 -7 26 11
20 -8 -13 -40 -16 -15 -27 -31 -25 -35 3 -4 -2 -13 -10 -20 -8 -7 -12 -17 -8
-24 4 -7 1 -6 -9 1 -8 7 -18 11 -21 8 -4 -3 -5 -2 -2 1 7 11 -15 45 -25 39 -5
-3 -15 3 -22 15 -7 11 -16 20 -21 20 -4 0 -6 -4 -2 -9 3 -6 -4 -15 -15 -21
-11 -6 -20 -16 -20 -23 0 -8 3 -7 9 2 8 12 12 13 25 2 13 -11 14 -16 4 -29 -7
-8 -11 -17 -10 -19 2 -3 1 -7 -2 -9 -3 -2 -4 -1 -1 2 2 4 -9 23 -26 43 l-30
36 28 22 c15 13 28 27 28 31 0 5 14 20 30 35 27 23 28 26 12 33 -17 6 -16 9 8
34 23 24 24 28 10 40 -8 7 -15 17 -15 22 0 5 11 -3 24 -19 20 -24 26 -25 40
-14z m-84 -89 c0 -5 -4 -10 -10 -10 -5 0 -10 5 -10 10 0 6 5 10 10 10 6 0 10
-4 10 -10z"/>
<path d="M32095 16039 c-4 -6 -13 -8 -20 -5 -7 2 -21 -4 -30 -14 -14 -15 -15
-23 -6 -34 9 -11 5 -19 -19 -40 -18 -14 -27 -26 -21 -26 6 0 0 -10 -12 -23
-12 -13 -25 -22 -29 -20 -10 5 -20 -15 -11 -20 10 -6 45 18 43 29 -3 18 19 14
30 -6 6 -11 15 -18 20 -15 5 3 17 -6 26 -20 13 -20 19 -23 31 -14 7 7 11 14 8
17 -3 3 9 21 27 40 18 19 28 32 21 28 -18 -10 -25 10 -8 24 12 10 18 10 29 1
21 -18 28 4 7 23 -9 9 -20 14 -23 11 -3 -3 -17 10 -31 28 -14 19 -23 37 -20
41 4 3 4 6 0 6 -3 0 -9 -5 -12 -11z m-10 -19 c9 8 19 1 40 -25 25 -33 26 -38
11 -54 -11 -12 -12 -21 -6 -27 7 -7 1 -18 -19 -33 -20 -15 -28 -29 -24 -39 3
-10 -4 -5 -16 11 -13 15 -26 25 -31 22 -7 -5 -20 16 -26 42 -1 6 9 21 22 34
18 17 21 25 13 36 -9 10 -8 17 2 29 9 11 15 12 17 5 3 -8 8 -9 17 -1z m96 -67
c13 -16 12 -17 -3 -4 -17 13 -22 21 -14 21 2 0 10 -8 17 -17z"/>
<path d="M32085 16010 c-3 -5 -12 -7 -20 -3 -17 6 -20 -12 -4 -23 7 -4 2 -16
-13 -33 -30 -32 -30 -44 2 -69 l25 -20 27 23 c17 15 23 25 15 28 -8 3 -7 10 6
25 18 20 18 21 -4 51 -25 35 -26 35 -34 21z m45 -54 c0 -3 -6 -6 -14 -6 -9 0
-13 -9 -12 -25 2 -13 -4 -31 -13 -39 -14 -13 -19 -12 -40 5 -13 10 -18 19 -12
19 6 0 11 5 11 11 0 5 -6 7 -12 3 -7 -4 -2 5 11 19 27 30 46 36 37 12 -8 -22
2 -18 15 6 6 12 7 19 1 16 -5 -4 -18 0 -28 8 -16 13 -17 14 -1 9 10 -4 17 -1
17 6 0 7 9 1 20 -13 11 -14 20 -28 20 -31z"/>
<path d="M32064 15948 c-13 -20 -12 -47 2 -59 9 -7 15 -6 20 3 12 19 12 47 0
45 -6 -1 -10 4 -8 11 3 15 -5 16 -14 0z m18 -34 c2 -7 -1 -14 -6 -15 -5 -2
-10 6 -11 19 -2 22 10 19 17 -4z"/>
<path d="M31976 15831 c-4 -5 -2 -12 3 -15 5 -4 12 -2 15 3 4 5 2 12 -3 15 -5
4 -12 2 -15 -3z"/>
<path d="M31990 15720 c6 -11 13 -20 16 -20 2 0 0 9 -6 20 -6 11 -13 20 -16
20 -2 0 0 -9 6 -20z"/>
<path d="M32399 15700 c0 -3 -2 -12 -4 -20 -13 -54 -12 -59 13 -83 15 -13 34
-23 44 -22 9 2 28 -10 43 -25 l27 -28 -23 -31 c-12 -16 -26 -28 -30 -25 -4 2
-10 0 -14 -6 -4 -6 -12 -7 -18 -3 -7 4 -6 -1 2 -10 8 -10 16 -15 19 -12 9 9
52 -37 45 -49 -13 -21 -10 -44 5 -38 10 3 13 1 8 -6 -3 -6 -2 -14 4 -17 6 -4
0 -15 -15 -27 -14 -11 -24 -23 -21 -25 3 -3 -1 -15 -9 -26 -11 -15 -12 -24 -3
-34 6 -7 7 -13 3 -13 -4 0 9 -13 30 -30 44 -35 43 -35 41 -13 -1 11 6 18 19
18 13 0 19 -7 19 -18 -1 -10 13 -33 31 -52 18 -19 27 -35 21 -35 -6 0 -4 -4 4
-9 8 -6 17 -8 21 -5 15 9 20 -17 7 -34 -12 -15 -11 -16 5 -3 9 7 17 10 17 5 0
-5 7 0 15 10 10 14 12 23 4 32 -16 20 9 28 30 10 10 -9 20 -14 23 -10 3 3 15
-8 26 -23 27 -38 54 -38 88 0 16 17 22 26 13 19 -13 -10 -22 -5 -51 31 -20 23
-37 47 -38 52 0 6 -11 20 -22 32 -20 22 -20 24 -4 42 10 11 18 26 20 34 1 8 8
23 16 32 13 16 15 16 28 -2 13 -16 14 -16 9 -1 -3 10 -2 20 4 23 5 4 7 10 4
15 -3 5 3 15 13 22 10 7 22 20 27 28 4 8 5 12 0 8 -4 -4 -29 11 -56 33 -30 25
-50 36 -54 29 -5 -7 -12 -5 -20 7 -11 15 -11 21 1 34 12 13 8 21 -31 59 -25
24 -45 40 -45 36 0 -5 -17 8 -37 29 l-37 38 -28 -34 c-22 -27 -30 -31 -40 -20
-11 10 -10 11 5 6 22 -9 22 8 0 26 -9 8 -14 9 -10 2 4 -6 1 -13 -5 -16 -10 -3
-9 -9 4 -22 15 -16 19 -16 34 -4 15 12 17 12 9 0 -5 -9 -4 -12 2 -8 5 3 10 0
10 -8 0 -8 -5 -11 -10 -8 -6 4 -7 1 -3 -6 6 -9 13 -8 29 6 l22 18 -20 -25 -20
-25 21 18 c12 10 28 15 38 11 16 -6 16 -8 -1 -28 l-18 -21 23 19 c17 15 25 17
34 8 8 -8 8 -16 -3 -28 -12 -16 -12 -17 1 -9 13 8 13 7 0 -10 -13 -17 -13 -18
0 -10 13 8 13 7 0 -11 -14 -18 -14 -18 6 -1 11 9 24 17 28 17 5 0 -2 -9 -15
-19 -23 -19 -23 -21 -7 -37 15 -15 19 -15 34 -3 15 12 17 12 9 0 -6 -10 -4
-12 6 -6 8 5 11 5 7 0 -4 -4 -2 -15 5 -24 11 -14 10 -15 -7 -1 -18 13 -19 13
-11 0 6 -12 5 -13 -6 -2 -7 6 -18 12 -23 12 -6 0 -4 -5 4 -10 12 -8 10 -9 -7
-7 -12 2 -26 7 -30 12 -5 4 -1 4 7 0 13 -8 13 -7 0 11 -14 18 -14 18 5 4 19
-14 19 -14 6 2 -7 10 -17 15 -22 12 -5 -3 -6 3 -3 13 5 17 5 17 -6 1 -6 -10
-18 -22 -28 -28 -16 -11 -16 -11 1 -6 10 3 16 2 13 -3 -3 -5 1 -14 9 -21 8 -7
12 -16 9 -21 -3 -5 0 -9 5 -9 13 0 14 12 4 26 -5 5 4 -4 19 -21 14 -16 25 -37
23 -46 -2 -10 3 -25 11 -36 11 -14 13 -15 8 -2 -7 21 14 35 29 20 9 -9 8 -11
-5 -6 -22 9 -24 -8 -3 -25 8 -7 15 -17 15 -23 0 -6 -7 -2 -16 9 -8 10 -12 13
-8 5 5 -10 3 -12 -7 -7 -8 4 -6 1 4 -7 14 -12 15 -16 4 -20 -15 -5 -16 -57 -3
-88 4 -10 3 -20 -3 -24 -7 -3 -8 0 -5 9 3 9 1 16 -6 16 -6 0 -9 -4 -5 -9 11
-19 -18 -24 -32 -6 -9 14 -13 15 -13 4 0 -12 -2 -12 -9 1 -6 8 -7 18 -4 24 4
5 1 6 -7 1 -9 -5 -11 -4 -6 4 4 6 12 9 17 6 5 -4 9 -1 9 4 0 13 -12 14 -26 4
-5 -5 -1 0 9 9 11 10 23 15 28 12 5 -3 6 3 3 13 -4 14 -3 15 4 4 7 -9 12 -10
16 -2 4 6 1 11 -6 11 -9 0 -10 3 -2 8 6 4 10 15 8 25 -1 9 2 14 8 11 6 -4 2 5
-7 20 -20 30 -27 33 -18 9 5 -15 3 -15 -10 2 -13 17 -17 18 -33 5 -10 -8 -15
-10 -12 -5 4 6 -2 11 -12 11 -10 0 -16 -5 -12 -11 3 -5 -2 -3 -12 5 -16 13
-20 12 -33 -5 -14 -17 -15 -18 -9 -2 4 13 2 16 -7 11 -7 -5 -5 0 3 11 8 10 10
16 3 12 -14 -9 -11 10 6 42 10 18 10 22 0 16 -7 -5 -10 -4 -6 2 9 14 -29 9
-50 -7 -17 -14 -17 -14 -2 5 26 32 34 49 19 40 -9 -5 -11 -4 -6 3 4 8 2 10 -7
6 -8 -3 -18 -1 -22 5 -3 7 0 8 9 5 9 -3 16 -1 16 6 0 6 -4 9 -8 6 -5 -3 -9 1
-9 9 0 8 4 15 9 15 5 0 7 4 3 9 -3 5 0 13 6 17 7 4 9 3 6 -2 -11 -19 31 -12
49 7 17 19 17 20 -1 37 -18 16 -18 16 -5 -1 10 -14 11 -20 1 -30 -10 -9 -11
-8 -6 4 4 10 2 20 -4 24 -7 3 -8 0 -5 -9 4 -10 0 -14 -15 -13 -12 1 -21 5 -21
10 0 5 8 6 17 3 10 -4 14 -4 10 0 -4 4 -2 13 4 21 14 16 -3 17 -19 1 -7 -7
-13 -9 -13 -5 -1 4 -2 10 -3 15 -1 4 -5 14 -11 22 -8 13 -7 13 10 0 17 -13 16
-11 -3 16 -12 17 -18 35 -14 39 4 5 2 5 -4 2 -15 -9 -58 38 -49 53 6 9 2 9
-12 1 -14 -7 -23 -7 -31 1 -7 7 -12 10 -13 8z m31 -24 c0 4 18 -10 40 -31 22
-22 38 -45 36 -51 -2 -6 1 -17 7 -23 6 -6 7 -11 3 -11 -5 0 -2 -8 5 -17 7 -10
-2 -4 -20 12 -18 17 -40 30 -49 30 -9 0 -27 10 -39 23 -13 12 -18 22 -10 22 8
0 7 4 -3 10 -9 6 -10 10 -3 10 7 0 10 9 8 21 -4 17 -2 19 10 9 8 -7 15 -9 15
-4z m233 -94 c10 -12 22 -20 26 -18 4 3 24 -12 45 -33 32 -33 35 -39 22 -50
-14 -11 -14 -16 1 -37 11 -18 19 -22 28 -14 10 8 18 4 34 -16 12 -15 21 -23
21 -19 0 5 9 0 20 -10 20 -18 20 -19 1 -39 -11 -12 -20 -24 -20 -28 -1 -5 -4
-8 -8 -9 -15 -1 -52 -42 -47 -50 9 -16 -3 -10 -17 8 -8 10 -9 14 -2 10 18 -11
25 9 8 23 -12 10 -18 10 -30 0 -12 -10 -14 -8 -10 9 2 11 0 23 -6 26 -5 4 -13
14 -18 23 -8 15 -5 18 22 17 40 -2 51 3 38 18 -5 7 -9 14 -10 17 0 3 -3 13 -6
22 -6 16 -8 16 -22 2 -12 -11 -19 -12 -27 -4 -8 8 -5 16 13 29 16 12 20 21 12
25 -6 4 -15 5 -20 1 -6 -3 -8 5 -5 18 2 16 -4 30 -21 45 -14 12 -25 19 -25 17
0 -3 -8 -1 -18 4 -13 7 -23 6 -33 -2 -7 -7 -10 -8 -6 -3 4 5 2 15 -4 23 -9 10
-8 17 1 28 14 17 29 9 63 -33z m-149 -97 c-9 -14 -13 -25 -9 -25 4 0 2 -6 -4
-14 -10 -11 -7 -17 11 -30 22 -16 22 -16 3 -33 -13 -13 -15 -13 -7 -2 9 13 6
21 -16 42 -16 15 -32 24 -37 20 -4 -5 -5 -2 -1 5 4 7 11 10 16 7 5 -3 18 8 30
25 26 36 37 40 14 5z m51 7 c-3 -3 -11 0 -18 7 -9 10 -8 11 6 5 10 -3 15 -9
12 -12z m110 -81 c3 -5 2 -12 -3 -15 -5 -3 -9 1 -9 9 0 17 3 19 12 6z m-105
-51 c0 -5 -4 -11 -9 -14 -10 -7 -7 -58 4 -76 6 -10 11 -9 21 4 8 12 17 15 26
10 18 -11 40 -11 56 0 10 7 17 5 24 -7 5 -10 13 -15 18 -12 12 7 5 -28 -11
-52 -6 -11 -24 -28 -39 -38 l-26 -18 25 -26 c14 -14 29 -26 34 -27 4 -1 10 -2
13 -3 4 0 1 -7 -5 -15 -8 -9 -8 -16 -2 -20 6 -4 8 -13 4 -22 -4 -12 -8 -11
-20 6 -8 11 -19 18 -24 14 -5 -3 -8 -2 -7 3 1 4 -12 23 -30 42 -24 25 -30 37
-22 46 8 9 6 15 -7 20 -28 13 -37 12 -54 -2 -15 -12 -20 -10 -42 18 -21 28
-24 36 -14 53 6 12 10 24 9 28 -1 4 9 15 23 24 14 9 22 21 18 28 -11 16 -11
29 0 43 9 12 37 7 37 -7z m215 -208 c-3 -3 5 -16 17 -29 21 -22 21 -24 3 -17
-18 7 -18 6 -6 -9 7 -9 17 -15 21 -12 4 2 17 -6 29 -19 18 -19 19 -25 8 -34
-19 -16 -44 -9 -67 21 -12 15 -25 25 -30 22 -4 -3 -14 3 -21 12 -8 9 -9 14 -3
10 7 -4 16 -1 22 6 11 14 12 47 1 47 -4 0 -7 9 -6 20 1 18 2 18 19 3 10 -9 16
-19 13 -21z"/>
<path d="M32415 15646 c1 -26 24 -68 25 -46 0 13 1 13 10 0 7 -11 10 -11 10
-2 0 8 9 4 23 -10 12 -13 19 -20 15 -15 -3 5 -4 15 -2 21 5 13 -49 69 -69 72
-8 1 -13 -7 -12 -20z m75 -50 c0 -6 -5 -4 -10 4 -5 8 -20 15 -32 15 -21 0 -31
18 -20 38 5 11 62 -43 62 -57z"/>
<path d="M32433 15637 c0 -8 6 -14 14 -14 9 0 10 4 2 14 -6 7 -12 13 -14 13
-1 0 -2 -6 -2 -13z"/>
<path d="M32605 15611 c-4 -7 -2 -18 4 -24 6 -6 11 -8 11 -4 0 4 10 2 23 -4
19 -10 20 -9 7 2 -8 8 -19 20 -26 28 -8 11 -13 11 -19 2z"/>
<path d="M32708 15539 c14 -15 19 -28 13 -30 -6 -2 -2 -10 8 -16 36 -22 31 3
-7 38 -21 20 -27 23 -14 8z"/>
<path d="M32720 15450 c-8 -5 -12 -12 -9 -15 4 -3 12 1 19 10 14 17 11 19 -10
5z"/>
<path d="M32781 15416 c-9 -10 -9 -16 -1 -21 17 -10 -7 -34 -30 -30 -25 5 -34
-9 -15 -25 8 -7 12 -17 8 -24 -5 -7 -2 -7 8 1 12 10 17 8 28 -8 11 -19 14 -20
30 -5 10 9 21 14 24 11 4 -3 5 -2 2 2 -3 3 4 16 15 28 25 26 12 45 -31 45 -5
0 -8 4 -5 9 3 5 0 14 -8 20 -10 8 -16 8 -25 -3z m25 -27 c3 -37 4 -40 14 -34
6 4 8 10 5 15 -3 4 3 7 12 5 10 -2 20 -4 22 -4 3 -1 -10 -17 -29 -36 -18 -19
-37 -32 -42 -29 -4 3 -6 10 -3 15 4 5 1 10 -4 10 -6 1 -15 2 -20 3 -6 0 -16 7
-22 13 -10 10 -8 12 8 9 24 -5 61 28 43 39 -5 3 -8 11 -4 16 8 14 19 2 20 -22z"/>
<path d="M32783 15355 c-10 -10 -9 -14 3 -19 9 -3 12 -11 8 -18 -4 -7 7 0 24
16 18 17 32 32 32 34 0 3 -9 -3 -19 -12 -17 -15 -20 -15 -28 -3 -6 12 -10 13
-20 2z"/>
<path d="M32539 15368 c-6 -27 -5 -39 4 -45 7 -3 9 -3 5 2 -4 4 -3 14 3 21 7
8 7 14 -1 19 -5 3 -10 5 -11 3z"/>
<path d="M32520 15290 c-14 -11 -21 -20 -17 -20 5 0 1 -10 -7 -22 -14 -19 -13
-24 6 -50 18 -27 22 -28 37 -14 10 9 21 13 24 9 4 -3 7 -1 7 5 0 6 11 1 24
-11 15 -13 21 -26 16 -32 -5 -6 -2 -19 8 -30 22 -26 90 -84 74 -64 -9 12 -9
18 1 28 6 7 7 11 2 9 -6 -2 -24 10 -41 26 l-30 30 44 44 c42 42 43 44 27 62
-10 11 -23 16 -29 13 -16 -11 -46 -11 -52 -1 -3 5 -14 2 -24 -7 -17 -15 -19
-15 -34 6 -8 12 -13 26 -10 31 8 12 1 9 -26 -12z m70 -35 c10 9 21 12 24 7 6
-10 36 -10 53 1 6 4 16 0 23 -8 10 -12 9 -16 -4 -21 -9 -3 -14 -10 -11 -14 3
-5 -6 -18 -21 -29 -21 -17 -29 -18 -45 -8 -10 6 -19 14 -19 17 0 4 -7 15 -16
26 -8 10 -13 13 -9 6 4 -7 -4 -21 -17 -32 -23 -19 -23 -19 -40 3 -13 17 -14
26 -5 42 6 11 10 24 9 28 -1 5 2 6 8 2 5 -3 10 -1 10 6 0 6 10 0 21 -15 20
-25 23 -26 39 -11z m74 -153 l20 -26 -26 20 c-14 10 -31 27 -37 37 -10 15 -9
16 6 6 10 -6 27 -23 37 -37z"/>
<path d="M32517 15250 c-12 -18 -13 -26 -4 -41 10 -16 13 -17 28 -3 18 17 19
38 2 55 -8 8 -15 4 -26 -11z m29 -15 c1 -8 -2 -13 -7 -9 -5 3 -9 0 -9 -6 0 -6
-5 -8 -11 -4 -8 4 -7 9 2 15 8 5 10 9 6 9 -5 0 -5 5 -2 11 8 12 18 5 21 -16z"/>
<path d="M32592 15247 c-10 -11 -8 -20 9 -41 19 -25 23 -26 43 -13 11 8 22 20
22 26 1 6 2 16 3 22 0 5 6 7 13 3 7 -5 8 -3 3 6 -6 10 -12 7 -26 -11 l-19 -24
-18 23 c-16 20 -20 21 -30 9z m57 -33 c12 5 11 2 -3 -9 -14 -11 -23 -12 -33
-4 -7 6 -10 15 -7 20 3 5 0 9 -6 9 -6 0 -8 5 -5 11 5 6 13 2 22 -11 9 -13 21
-19 32 -16z"/>
<path d="M32630 15240 c0 -5 5 -10 10 -10 6 0 10 5 10 10 0 6 -4 10 -10 10 -5
0 -10 -4 -10 -10z"/>
<path d="M32774 15131 c5 -7 0 -21 -11 -33 -10 -12 -13 -18 -6 -15 6 4 22 -6
35 -22 22 -25 26 -27 36 -12 10 14 11 14 6 -1 -4 -10 -1 -18 4 -18 21 0 21 18
2 35 -11 10 -20 14 -20 10 0 -4 -9 0 -19 9 -11 10 -17 24 -15 31 3 7 0 16 -7
21 -8 5 -10 3 -5 -5z m49 -64 c4 3 7 4 7 0 0 -18 -20 -13 -41 11 l-24 27 26
-23 c14 -12 29 -19 32 -15z"/>
<path d="M32185 15610 c-3 -5 -11 -7 -18 -4 -7 2 -17 -4 -24 -15 -11 -17 -8
-23 23 -46 30 -23 33 -29 22 -43 -10 -14 -10 -15 2 -5 10 10 18 8 38 -8 19
-15 28 -16 39 -8 14 13 15 12 -40 80 -20 26 -33 49 -30 53 4 3 4 6 0 6 -3 0
-8 -4 -12 -10z m10 -22 c22 -13 75 -97 66 -103 -16 -9 -94 66 -81 79 18 18 11
30 -8 13 -21 -19 -38 -11 -21 9 10 12 26 13 44 2z"/>
<path d="M32186 15561 c-6 -9 58 -71 72 -71 4 0 0 6 -9 13 -9 7 -17 15 -17 20
-3 13 -27 47 -34 47 -4 0 -9 -4 -12 -9z m29 -21 c10 -11 16 -20 13 -20 -3 0
-13 9 -23 20 -10 11 -16 20 -13 20 3 0 13 -9 23 -20z"/>
<path d="M32601 15509 c-19 -23 -39 -38 -47 -35 -20 8 -27 -11 -12 -36 7 -13
11 -29 9 -37 -1 -9 3 -12 13 -8 24 10 38 -16 21 -41 -10 -13 -12 -23 -5 -27 6
-4 8 -9 6 -13 -2 -4 26 -7 64 -7 48 0 67 3 66 12 -3 18 -15 28 -34 28 -9 0
-16 6 -15 12 2 7 -8 20 -21 29 -22 14 -27 47 -6 41 4 -1 8 2 8 7 0 5 6 12 14
17 7 5 13 16 13 26 0 10 4 24 9 31 13 22 -2 27 -24 7 -21 -19 -42 -13 -22 7 7
7 12 16 12 20 0 18 -18 6 -49 -33z m72 -1 c-6 -7 -9 -21 -7 -32 2 -14 0 -16
-9 -7 -15 15 -30 14 -20 -1 11 -18 13 -39 3 -33 -5 3 -11 1 -15 -4 -3 -6 -13
-8 -23 -5 -9 3 1 -11 22 -30 22 -20 36 -36 31 -36 -4 0 0 -9 10 -20 10 -11 16
-21 14 -21 -23 -7 -68 -4 -66 4 1 5 -4 12 -12 15 -9 3 -11 0 -6 -8 6 -9 4 -11
-5 -5 -10 6 -10 10 2 19 8 6 17 14 19 17 7 12 -33 49 -45 42 -6 -3 -8 -3 -4 2
4 4 3 14 -4 22 -16 20 49 88 69 71 11 -9 18 -7 31 5 19 20 29 23 15 5z m32
-177 c3 -5 2 -12 -3 -15 -5 -3 -9 1 -9 9 0 17 3 19 12 6z"/>
<path d="M32585 15470 l-29 -30 31 -33 c17 -17 29 -40 28 -49 -4 -21 13 -35
39 -35 17 0 17 2 -4 19 -12 10 -17 18 -11 18 7 0 -4 14 -23 31 -21 18 -33 36
-29 45 4 10 9 12 18 4 9 -7 16 -6 24 4 8 10 9 16 1 21 -6 3 -8 10 -5 15 3 5 1
11 -3 14 -5 3 -22 -8 -37 -24z m30 11 c-3 -5 -1 -12 5 -16 6 -4 8 -11 4 -16
-4 -6 -11 -6 -19 1 -10 8 -16 7 -24 -7 -6 -10 -11 -14 -11 -9 0 6 10 20 22 33
22 24 34 30 23 14z m30 -149 c-3 -3 -11 0 -18 7 -9 10 -8 11 6 5 10 -3 15 -9
12 -12z"/>
<path d="M32274 15449 c-3 -6 0 -15 7 -20 12 -7 11 -9 -1 -9 -13 0 -13 -1 0
-10 8 -5 11 -10 6 -10 -5 0 -1 -9 9 -20 10 -11 21 -17 25 -15 5 3 11 -1 13 -7
4 -10 6 -10 6 1 1 9 6 8 19 -6 9 -10 13 -13 8 -6 -6 9 -2 21 10 36 18 20 18
21 0 7 -22 -17 -46 -22 -46 -8 0 6 -8 8 -17 4 -16 -5 -17 -4 -1 6 14 11 14 13
-8 31 -13 10 -22 23 -19 28 4 5 4 9 1 9 -3 0 -8 -5 -12 -11z m31 -38 c3 -5 2
-12 -3 -15 -5 -3 -9 1 -9 9 0 17 3 19 12 6z"/>
<path d="M32733 15225 c0 -8 4 -12 9 -9 5 3 6 10 3 15 -9 13 -12 11 -12 -6z"/>
<path d="M32720 15185 c-7 -8 -17 -12 -23 -8 -6 3 -7 1 -3 -6 4 -6 13 -9 19
-5 7 3 1 -4 -13 -16 -14 -12 -19 -19 -12 -15 6 3 15 -1 18 -9 6 -16 25 -23 23
-8 -1 4 0 9 1 12 3 7 7 70 4 70 -1 0 -7 -7 -14 -15z"/>
<path d="M32030 15635 c13 -14 26 -25 28 -25 3 0 -5 11 -18 25 -13 14 -26 25
-28 25 -3 0 5 -11 18 -25z"/>
<path d="M31898 16070 c-14 -9 -15 -17 -9 -49 1 -2 8 2 16 9 8 6 20 8 27 4 7
-4 5 2 -5 13 -9 11 -14 23 -10 26 9 10 1 8 -19 -3z m7 -19 c3 -5 2 -12 -3 -15
-5 -3 -9 1 -9 9 0 17 3 19 12 6z"/>
<path d="M32057 15713 c-2 -4 -4 -19 -2 -33 1 -17 8 -25 21 -25 25 -1 46 -14
39 -25 -3 -5 -1 -11 4 -14 15 -10 6 22 -12 42 -9 10 -17 23 -17 29 0 14 -27
36 -33 26z m27 -41 c3 -5 -1 -9 -9 -9 -8 0 -12 4 -9 9 3 4 7 8 9 8 2 0 6 -4 9
-8z"/>
<path d="M32445 15391 c-3 -6 -12 -8 -19 -5 -14 5 -43 -23 -33 -32 3 -3 13 -7
24 -8 11 -2 18 -11 18 -24 0 -22 19 -32 21 -12 1 6 3 11 4 13 1 1 3 17 5 35 2
33 -8 51 -20 33z m11 -30 c-1 -16 -5 -33 -10 -38 -5 -4 -6 -3 -3 3 4 7 0 17
-8 24 -8 7 -15 9 -15 6 0 -4 -5 -4 -10 -1 -6 4 -8 11 -4 16 4 6 14 3 27 -8 18
-16 20 -16 14 -1 -5 13 0 28 8 28 1 0 2 -13 1 -29z"/>
<path d="M32339 15876 c-1 -1 -2 -13 -3 -27 -1 -15 -8 -35 -16 -45 -14 -18
-14 -18 6 -1 11 9 25 14 29 10 5 -5 3 0 -4 10 -12 15 -11 20 3 36 14 15 14 18
1 18 -8 0 -16 -1 -16 -1z"/>
<path d="M32299 15738 c-5 -18 -6 -38 -1 -34 7 8 12 36 6 36 -2 0 -4 -1 -5 -2z"/>
<path d="M32750 14906 c0 -2 8 -10 18 -17 15 -13 16 -12 3 4 -13 16 -21 21
-21 13z"/>
<path d="M32339 15968 c-6 -20 -5 -38 1 -48 5 -7 7 0 6 19 -1 26 -4 39 -7 29z"/>
<path d="M32266 15873 c-5 -12 -9 -13 -20 -4 -17 15 -29 -1 -31 -40 -1 -23 2
-26 28 -25 32 1 67 36 63 63 -3 21 -33 26 -40 6z m29 -14 c-6 -31 -22 -46 -47
-45 -15 1 -22 8 -23 24 -2 31 8 35 33 12 17 -16 21 -17 26 -5 3 8 0 15 -7 15
-8 0 -6 4 3 10 20 13 19 13 15 -11z"/>
<path d="M32234 15841 c0 -12 7 -19 18 -18 16 1 16 3 1 19 -20 22 -19 22 -19
-1z"/>
<path d="M32445 15850 c-4 -6 -4 -14 -1 -17 3 -4 -4 -18 -16 -32 -13 -14 -15
-19 -5 -12 9 7 17 10 17 6 0 -4 6 -3 13 2 6 6 20 9 31 7 13 -2 15 1 8 8 -6 6
-8 18 -5 27 4 9 3 13 -2 9 -4 -4 -14 -3 -21 3 -8 7 -14 7 -19 -1z m25 -25 c8
-11 10 -17 6 -13 -5 4 -16 2 -25 -4 -13 -10 -14 -10 -4 1 6 7 9 21 6 30 -7 18
-4 16 17 -14z"/>
<path d="M32370 15840 c0 -5 5 -10 10 -10 6 0 10 5 10 10 0 6 -4 10 -10 10 -5
0 -10 -4 -10 -10z"/>
<path d="M32216 15768 c-11 -15 -12 -25 -5 -34 6 -7 8 -18 5 -23 -6 -9 9 -24
27 -27 4 -1 10 -2 14 -3 3 0 -2 -10 -12 -21 -21 -23 -13 -39 10 -20 14 12 19
7 16 -13 -1 -5 3 -6 8 -3 5 4 17 -4 25 -16 9 -12 19 -18 23 -14 4 4 1 11 -7
16 -9 6 -10 10 -3 10 22 0 26 -23 8 -37 -11 -7 -14 -13 -8 -13 6 0 16 7 23 15
10 12 10 18 0 30 -7 9 -19 14 -25 11 -7 -2 -19 4 -28 15 -10 11 -12 19 -6 19
7 0 1 9 -13 19 -27 21 -31 57 -8 71 11 7 11 11 1 24 -18 21 -27 20 -45 -6z
m38 3 c3 -5 -1 -14 -9 -21 -8 -7 -12 -17 -8 -24 4 -6 -1 -5 -10 3 -13 10 -14
18 -6 32 10 20 24 25 33 10z m16 -105 c0 -2 -8 -10 -17 -17 -16 -13 -17 -12
-4 4 13 16 21 21 21 13z"/>
<path d="M32226 15754 c-5 -14 -4 -15 9 -4 17 14 19 20 6 20 -5 0 -12 -7 -15
-16z"/>
<path d="M32364 15765 c-6 -13 -8 -14 -15 -3 -5 7 -9 9 -10 3 0 -5 -2 -18 -4
-28 -2 -9 1 -15 5 -12 5 3 11 1 14 -4 4 -5 2 -12 -4 -16 -11 -6 -33 -45 -27
-45 8 0 61 82 63 96 3 21 -15 28 -22 9z m6 -29 c-7 -7 -13 -7 -20 0 -6 6 -3
10 10 10 13 0 16 -4 10 -10z"/>
<path d="M32509 15768 c-7 -24 -4 -40 9 -55 18 -20 47 -25 47 -8 0 19 -51 77
-56 63z m42 -52 c9 -18 8 -19 -3 -5 -7 9 -17 16 -22 15 -5 -1 -10 7 -12 17 -2
15 0 16 12 6 8 -7 20 -22 25 -33z"/>
<path d="M32311 15557 c2 -1 13 -9 24 -17 19 -14 19 -14 6 3 -7 9 -18 17 -24
17 -6 0 -8 -1 -6 -3z"/>
<path d="M32384 15533 c-4 -10 -6 -22 -5 -26 0 -4 -6 -10 -14 -13 -19 -8 -19
-21 0 -21 8 0 12 4 9 8 -2 4 5 14 17 23 13 8 18 20 14 28 -3 7 1 4 9 -6 9 -11
16 -15 16 -10 0 11 -21 34 -31 34 -4 0 -10 -8 -15 -17z"/>
<path d="M33020 15295 c8 -11 16 -22 17 -24 5 -7 33 21 33 33 0 6 -5 3 -11 -7
-10 -18 -12 -18 -32 0 -21 18 -21 18 -7 -2z"/>
<path d="M32960 15226 c0 -2 8 -10 18 -17 15 -13 16 -12 3 4 -13 16 -21 21
-21 13z"/>
<path d="M32749 14959 c-8 -16 -8 -20 1 -14 6 4 20 -1 30 -10 11 -10 20 -12
24 -6 4 5 2 12 -4 16 -5 3 -10 3 -10 -1 0 -3 -7 -1 -15 6 -8 7 -12 16 -9 21 3
5 3 9 0 9 -3 0 -10 -10 -17 -21z"/>
<path d="M33171 15173 c7 -12 15 -20 18 -17 3 2 -3 12 -13 22 -17 16 -18 16
-5 -5z"/>
<path d="M33180 15065 c-11 -20 -16 -23 -28 -13 -17 15 -61 19 -68 6 -3 -4
-10 -6 -15 -3 -5 4 -12 -1 -15 -10 -6 -14 -9 -14 -16 -3 -8 10 -9 10 -5 -2 2
-8 -5 -28 -15 -43 -11 -15 -15 -26 -10 -25 5 2 24 -7 41 -20 24 -17 29 -27 22
-36 -8 -9 -3 -18 20 -35 29 -22 31 -22 50 -6 10 10 16 21 14 25 -3 4 2 13 10
20 12 10 13 16 3 27 -10 13 -7 20 15 39 16 13 22 24 15 24 -9 0 -9 3 2 10 10
6 11 10 3 10 -7 0 -13 5 -13 11 0 5 4 8 8 5 4 -2 8 6 8 20 0 31 -9 31 -26 -1z
m-30 -20 c8 -5 20 -10 25 -10 17 0 12 -29 -8 -52 -16 -18 -17 -26 -8 -36 9
-11 8 -17 -4 -27 -8 -7 -13 -16 -10 -20 3 -4 -2 -13 -10 -20 -11 -10 -19 -8
-40 8 -17 14 -21 22 -13 26 9 3 0 16 -24 39 l-38 34 25 33 c14 19 25 29 25 22
0 -7 5 -12 10 -12 6 0 9 3 9 8 -1 4 -1 10 0 13 2 9 44 5 61 -6z"/>
<path d="M33093 15036 c1 -6 -5 -11 -13 -11 -22 -1 -41 -15 -35 -26 4 -5 1 -9
-5 -9 -7 0 6 -15 28 -34 27 -22 37 -37 31 -43 -6 -6 -4 -14 6 -23 12 -10 19
-10 27 -2 7 7 8 12 3 12 -4 0 -1 8 9 19 15 16 15 20 1 31 -13 11 -12 14 7 30
12 9 23 25 24 34 1 10 0 15 -3 12 -4 -3 -13 0 -21 6 -18 16 -62 18 -59 4z m61
-15 c9 -7 13 -17 10 -23 -3 -5 -13 -4 -22 4 -13 11 -15 10 -9 -4 3 -10 2 -20
-4 -24 -6 -4 -4 -13 6 -24 15 -17 15 -19 -7 -34 -13 -9 -17 -16 -9 -16 8 0 12
-3 8 -6 -3 -3 -11 -3 -18 2 -9 5 -9 10 2 18 12 9 10 15 -8 33 -13 12 -23 20
-23 16 0 -3 -6 0 -14 6 -18 15 -13 47 6 43 9 -1 21 4 27 12 14 16 33 15 55 -3z"/>
<path d="M33097 15010 c-8 -13 -15 -16 -23 -9 -9 7 -12 5 -9 -8 1 -10 8 -17
14 -15 6 1 14 -5 17 -13 4 -9 16 -20 28 -26 20 -10 20 -9 2 5 -15 12 -16 19
-8 29 7 8 9 17 6 20 -3 3 -3 11 1 17 5 8 11 8 23 -2 14 -10 15 -10 5 2 -19 21
-42 21 -56 0z m17 -12 c-3 -31 -3 -30 -14 -23 -7 4 -7 13 0 26 14 25 17 24 14
-3z"/>
<path d="M32939 15318 c-11 -44 1 -62 39 -64 17 -1 20 2 12 11 -6 7 -9 19 -8
26 2 7 -1 13 -7 14 -5 0 -16 4 -22 8 -7 5 -13 7 -14 5z m17 -26 c-3 -3 2 -11
12 -19 16 -13 16 -14 -2 -5 -11 5 -21 17 -22 26 -1 9 2 13 8 10 5 -3 7 -8 4
-12z"/>
<path d="M33084 15243 c2 -10 6 -17 10 -16 15 3 16 11 2 22 -12 10 -14 9 -12
-6z"/>
<path d="M33021 15201 c-8 -14 -7 -22 3 -30 9 -8 16 -8 20 -2 4 5 2 12 -4 16
-16 10 -12 28 6 21 8 -3 12 -2 9 4 -10 15 -23 12 -34 -9z"/>
<path d="M33093 15198 c4 -11 0 -21 -10 -27 -14 -8 -15 -12 -4 -25 7 -8 18
-14 24 -13 7 1 11 -6 11 -15 -1 -11 3 -15 10 -11 6 4 14 8 18 8 20 0 15 17
-18 56 -21 24 -35 36 -31 27z m41 -60 c-3 -5 -12 -4 -20 3 -8 6 -14 8 -14 5 0
-4 -5 -4 -10 -1 -8 5 -7 11 1 21 10 13 14 12 30 -2 10 -9 16 -21 13 -26z"/>
<path d="M33094 15158 c-4 -7 -4 -10 1 -6 4 4 15 2 24 -5 14 -11 14 -10 2 6
-16 20 -18 21 -27 5z"/>
<path d="M32934 15193 c9 -16 -12 -27 -28 -14 -9 7 -16 7 -24 -1 -17 -17 -15
-31 3 -25 8 4 17 2 20 -3 3 -5 14 -7 25 -5 17 3 40 -18 61 -56 2 -4 -5 -17
-16 -30 l-20 -23 27 20 c25 17 41 43 19 29 -11 -6 -6 33 5 44 3 3 4 -3 2 -13
-1 -10 2 -21 9 -23 8 -3 11 3 8 16 -3 15 0 18 13 14 9 -3 14 -2 9 2 -4 5 -22
9 -40 10 -35 1 -60 12 -52 24 2 5 -3 17 -11 27 -9 10 -13 14 -10 7z m-23 -30
c12 -16 12 -17 -2 -6 -9 7 -20 9 -24 5 -5 -4 -5 -1 -1 6 9 16 11 15 27 -5z"/>
<path d="M33026 15082 c-3 -5 1 -9 9 -9 8 0 15 4 15 9 0 4 -4 8 -9 8 -6 0 -12
-4 -15 -8z"/>
<path d="M31565 16160 c3 -5 -1 -10 -7 -13 -10 -3 -10 -7 0 -19 10 -13 10 -17
-3 -22 -9 -3 -14 -10 -10 -15 3 -5 1 -12 -4 -15 -5 -4 -8 -14 -6 -24 2 -9 4
-19 4 -21 1 -2 10 4 22 15 12 10 24 19 28 19 3 0 4 5 2 10 -8 22 -7 61 2 73 5
6 8 12 6 13 -31 6 -38 6 -34 -1z m16 -13 c-6 -8 -7 -18 -3 -22 4 -5 1 -5 -6
-1 -10 6 -10 11 -1 22 6 8 14 14 16 14 3 0 0 -6 -6 -13z m-4 -43 c-3 -4 -1
-16 5 -28 6 -11 7 -18 3 -13 -5 4 -16 0 -26 -9 -16 -14 -17 -14 -14 3 1 10 8
17 14 16 6 -2 11 2 11 7 0 6 -6 10 -12 10 -9 0 -8 4 2 10 17 11 26 13 17 4z"/>
<path d="M31610 16066 c0 -2 8 -10 18 -17 15 -13 16 -12 3 4 -13 16 -21 21
-21 13z"/>
<path d="M32933 14875 c0 -8 4 -12 9 -9 5 3 6 10 3 15 -9 13 -12 11 -12 -6z"/>
<path d="M26795 20149 c-97 -28 -183 -110 -215 -204 -20 -62 -33 -255 -17
-255 5 0 6 -4 3 -9 -3 -5 -6 -31 -6 -57 0 -59 -1 -111 -3 -182 -1 -28 2 -52 6
-52 5 0 5 -4 2 -10 -5 -8 -6 -35 -4 -130 0 -12 0 -172 0 -245 -1 -11 0 -40 0
-65 0 -25 0 -49 0 -55 -5 -164 -4 -235 2 -235 5 0 6 -4 2 -10 -4 -7 -7 -323
-4 -592 0 -32 0 -108 -1 -125 -1 -67 1 -107 6 -114 3 -5 2 -9 -3 -9 -7 0 -9
-93 -2 -110 1 -3 1 -9 0 -14 -1 -4 -1 -135 -1 -290 0 -154 1 -290 1 -301 -1
-11 0 -40 0 -65 0 -25 0 -49 0 -55 -5 -156 -5 -235 0 -235 3 0 5 -10 2 -22 -7
-47 -8 -218 0 -218 5 0 6 -4 3 -9 -3 -5 -6 -31 -6 -57 0 -59 -1 -111 -3 -182
-1 -28 2 -52 6 -52 5 0 5 -4 2 -10 -7 -11 -8 -84 -2 -190 10 -176 131 -297
304 -306 42 -2 81 0 87 4 6 3 18 8 28 9 31 5 93 47 135 92 45 48 90 155 80
192 -3 10 -2 19 1 19 9 0 7 58 -1 66 -3 3 -2 16 3 28 4 12 4 29 -1 38 -6 10
-6 19 0 23 7 3 7 15 1 30 -6 15 -6 27 0 30 6 3 6 15 0 30 -6 15 -6 27 0 30 6
3 6 15 0 29 -5 13 -6 27 -3 30 8 8 9 126 1 126 -4 0 -3 14 2 30 5 17 5 30 0
30 -5 0 -5 13 0 30 5 17 5 30 0 30 -4 0 -5 15 0 33 4 18 3 43 -1 55 -5 12 -5
22 -1 22 4 0 7 16 7 35 0 19 -3 35 -7 35 -4 0 -3 14 2 30 5 17 5 30 0 30 -5 0
-5 13 0 30 5 17 5 30 0 30 -5 0 -5 13 0 30 5 18 5 30 0 30 -6 0 -6 10 0 25 6
15 6 27 0 30 -6 3 -6 15 0 30 6 15 6 27 0 30 -6 4 -7 13 -1 24 5 9 6 23 1 31
-4 7 -4 24 0 36 6 14 5 26 0 29 -6 3 -6 15 0 29 5 13 6 27 3 30 -6 5 -7 63 -3
84 3 11 3 126 0 137 -1 6 -2 12 0 15 5 13 2 181 -3 186 -3 3 -2 17 3 30 6 14
6 26 0 29 -6 3 -6 15 0 30 6 15 6 27 0 30 -6 4 -7 13 -1 24 6 10 6 23 1 31 -5
8 -5 21 0 30 5 9 5 22 0 30 -4 7 -4 24 0 36 6 14 5 26 0 29 -6 3 -6 15 0 30 6
15 6 27 0 30 -6 3 -6 15 0 30 6 15 6 27 0 30 -6 4 -7 13 -1 24 6 10 6 23 1 31
-5 8 -5 21 0 31 5 9 7 19 3 22 -5 6 -7 67 -3 92 3 15 3 129 0 140 -1 6 -2 12
-1 15 7 16 5 139 -1 158 -4 12 -4 22 0 22 4 0 7 16 7 35 0 19 -3 35 -7 35 -4
0 -3 14 2 30 5 17 5 30 0 30 -5 0 -5 13 0 30 5 17 5 30 0 30 -5 0 -5 13 0 30
5 18 5 30 0 30 -6 0 -6 10 0 25 6 15 6 27 0 30 -6 3 -6 15 0 30 6 15 6 27 0
30 -6 4 -7 13 -1 24 5 9 6 23 1 31 -4 7 -4 24 0 36 6 14 5 26 0 29 -6 3 -6 15
0 30 5 13 6 27 1 29 -4 3 -5 25 -1 49 3 25 3 54 -1 65 -5 12 -4 24 1 27 6 3 6
15 0 30 -6 15 -6 27 0 30 6 3 6 15 0 30 -6 15 -6 25 0 25 5 0 5 12 0 30 -5 17
-5 30 0 30 5 0 5 13 0 29 -4 16 -6 32 -3 35 8 8 9 126 1 126 -4 0 -3 14 2 30
5 17 5 30 0 30 -5 0 -5 13 0 30 5 17 6 30 2 30 -4 0 -7 33 -8 73 -1 53 -7 85
-25 122 -29 62 -99 131 -158 157 -51 22 -167 31 -216 17z"/>
<path d="M2887 18563 c-3 -3 -19 -7 -34 -8 -15 -2 -59 -6 -98 -10 -98 -9 -125
-13 -165 -20 -19 -4 -44 -8 -55 -9 -11 -2 -33 -6 -50 -10 -16 -3 -39 -8 -50
-10 -11 -3 -40 -9 -65 -15 -137 -34 -235 -63 -247 -73 -7 -6 -13 -8 -13 -5 0
3 -30 -7 -67 -22 -38 -15 -70 -28 -73 -28 -53 -8 -361 -169 -512 -269 -73 -48
-135 -90 -138 -93 -3 -3 -48 -40 -100 -82 -152 -122 -361 -339 -478 -497 -9
-12 -22 -28 -27 -35 -16 -19 -130 -190 -138 -207 -4 -8 -16 -28 -26 -45 -32
-50 -137 -265 -174 -355 -47 -115 -112 -311 -118 -357 -1 -5 -5 -18 -10 -31
-5 -12 -11 -34 -14 -49 -2 -15 -9 -49 -15 -77 -5 -28 -12 -62 -14 -76 -3 -14
-5 -25 -6 -25 -1 0 -3 -16 -5 -35 -2 -19 -6 -53 -9 -75 -26 -187 -26 -582 -2
-715 3 -14 7 -48 10 -76 3 -28 8 -57 10 -65 3 -8 7 -31 10 -51 6 -37 29 -144
40 -183 2 -5 6 -23 11 -40 32 -123 141 -417 157 -423 4 -2 8 -10 8 -17 0 -16
116 -242 131 -255 3 -3 18 -29 34 -57 15 -29 32 -53 37 -53 4 0 8 -4 8 -10 0
-8 74 -119 107 -160 99 -124 178 -213 264 -299 109 -108 300 -271 318 -271 6
0 11 -4 11 -8 0 -10 213 -152 228 -152 6 0 12 -4 14 -8 2 -5 15 -15 29 -23 68
-36 302 -151 312 -153 7 -1 28 -9 47 -18 126 -58 365 -127 560 -162 191 -34
253 -39 495 -40 280 -1 363 7 633 59 15 3 35 8 44 11 10 3 30 7 44 10 15 3 35
9 44 14 10 5 20 7 23 4 3 -3 19 2 36 10 17 9 34 16 38 16 22 1 101 27 212 71
293 117 546 268 797 474 91 75 289 275 359 362 38 49 72 90 75 93 3 3 17 21
30 40 13 19 27 37 30 40 9 8 120 179 120 186 0 3 8 18 19 32 31 45 110 200
157 312 25 58 49 114 54 125 14 33 52 148 57 174 2 14 7 29 11 35 3 6 7 16 8
21 1 6 10 42 19 80 9 39 19 81 21 95 3 14 7 33 10 42 6 19 9 35 19 103 5 28 9
57 10 65 10 59 19 167 19 227 1 40 3 73 6 73 8 0 5 174 -3 187 -4 6 -3 14 3
18 6 4 8 10 6 14 -3 4 -8 43 -11 87 -3 43 -8 95 -10 114 -2 19 -7 58 -10 85
-4 28 -8 57 -10 65 -2 8 -7 35 -10 60 -4 24 -8 47 -10 51 -2 3 -7 19 -9 35
-10 50 -14 67 -30 132 -19 73 -90 284 -110 327 -8 17 -24 55 -37 85 -70 168
-257 484 -345 582 -13 15 -24 31 -24 34 0 4 -15 23 -32 43 -18 21 -60 68 -92
105 -68 76 -266 271 -266 261 0 -2 -12 8 -27 22 -16 14 -74 60 -130 102 -247
184 -508 321 -803 421 -126 43 -186 59 -270 76 -14 3 -41 9 -60 14 -19 5 -55
12 -80 16 -25 3 -54 8 -65 10 -138 21 -152 22 -298 29 -70 3 -131 6 -135 6 -4
1 -11 0 -17 -1 -21 -4 -125 -1 -134 4 -4 3 -11 3 -14 -1z m373 -1298 c14 -3
41 -8 60 -10 48 -5 219 -51 273 -73 16 -7 30 -12 33 -12 22 0 285 -138 304
-159 3 -3 32 -24 64 -46 55 -37 229 -201 289 -272 40 -48 147 -210 147 -222 0
-6 5 -11 10 -11 6 0 10 -9 10 -20 0 -11 3 -20 8 -20 4 0 13 -15 21 -32 8 -18
24 -55 36 -83 21 -49 66 -179 81 -240 4 -16 8 -32 9 -35 0 -3 5 -27 10 -55 4
-27 10 -57 12 -65 2 -8 5 -46 7 -85 3 -38 5 -70 6 -70 1 0 2 -24 3 -53 1 -28
-1 -52 -5 -52 -4 0 -3 -11 2 -24 5 -13 6 -26 4 -29 -3 -3 -7 -29 -9 -58 -2
-30 -6 -67 -8 -84 -3 -16 -8 -46 -11 -65 -28 -178 -122 -412 -234 -584 -25
-39 -49 -73 -52 -76 -3 -3 -29 -34 -58 -70 -71 -89 -263 -270 -286 -270 -3 0
-14 -7 -23 -16 -32 -30 -156 -103 -165 -98 -4 3 -8 1 -8 -4 0 -10 -143 -77
-156 -73 -4 2 -10 -2 -13 -7 -13 -19 -229 -77 -366 -98 -64 -9 -333 -11 -405
-2 -67 9 -149 24 -204 39 -23 6 -48 12 -56 14 -100 21 -384 158 -452 219 -10
9 -21 16 -24 16 -28 0 -298 254 -310 292 -3 10 -9 18 -14 18 -9 0 -140 192
-140 205 0 4 -8 19 -18 33 -30 43 -111 242 -127 312 0 3 -4 14 -8 25 -40 122
-62 417 -44 590 7 72 48 270 57 283 2 1 3 5 4 10 16 73 137 342 158 350 4 2 8
10 8 18 0 8 4 14 10 14 5 0 9 4 7 9 -7 27 209 277 316 364 21 18 47 39 57 47
20 17 25 20 123 85 37 24 67 42 67 39 0 -3 12 3 28 14 54 39 289 131 372 146
14 2 32 7 40 10 18 6 65 14 140 22 30 4 56 8 58 9 6 5 338 -4 362 -10z"/>
<path d="M21418 18565 c-2 -2 -57 -7 -123 -10 -65 -3 -130 -7 -144 -10 -14 -2
-51 -6 -81 -9 -60 -6 -104 -13 -136 -20 -20 -4 -76 -14 -114 -21 -8 -1 -22 -5
-30 -8 -8 -3 -28 -8 -45 -12 -121 -24 -509 -163 -526 -188 -3 -5 -9 -8 -13 -7
-7 1 -125 -58 -196 -98 -54 -31 -240 -152 -256 -167 -6 -5 -22 -17 -34 -25
-153 -101 -485 -434 -590 -590 -8 -12 -19 -28 -25 -34 -61 -69 -265 -419 -265
-454 0 -6 -3 -12 -8 -14 -8 -3 -100 -230 -131 -323 -55 -168 -102 -379 -116
-515 -3 -30 -7 -71 -10 -90 -13 -95 -21 -323 -11 -339 4 -5 2 -12 -4 -16 -6
-4 -8 -11 -4 -16 3 -5 7 -48 9 -96 3 -47 7 -102 10 -122 2 -20 7 -56 10 -81 3
-25 7 -56 10 -70 3 -13 7 -40 10 -60 7 -47 13 -78 19 -98 3 -9 7 -28 10 -42
21 -102 110 -385 127 -405 5 -5 9 -16 9 -25 0 -22 181 -384 213 -425 4 -5 32
-47 61 -91 29 -45 58 -88 64 -95 6 -8 49 -61 94 -119 202 -256 512 -521 803
-687 78 -44 269 -139 330 -163 11 -4 36 -15 55 -23 19 -9 58 -23 85 -32 66
-21 69 -22 75 -23 3 0 18 -5 33 -11 40 -15 176 -52 210 -57 16 -2 32 -6 37 -9
4 -3 25 -7 46 -10 22 -3 59 -10 84 -15 115 -24 244 -34 475 -34 209 0 343 8
455 29 19 4 44 8 55 9 11 2 34 6 50 10 17 3 39 8 50 10 102 21 297 76 313 88
6 6 12 8 12 4 0 -5 49 12 130 47 14 5 30 11 37 13 21 4 328 156 333 165 3 4
17 13 30 18 27 12 44 22 103 64 22 15 43 27 47 27 4 0 11 -12 15 -27 10 -43
84 -193 95 -193 6 0 10 -6 10 -13 0 -17 93 -106 157 -151 29 -20 55 -36 57
-36 2 0 21 -8 42 -17 22 -9 42 -18 47 -19 4 -1 8 -2 10 -4 1 -1 9 -3 17 -5 8
-2 29 -6 45 -10 99 -24 300 -8 365 29 14 8 27 14 30 13 18 -6 134 76 194 136
72 73 148 201 162 272 1 6 3 12 4 15 7 20 12 55 15 120 2 41 5 75 5 75 1 0 2
15 3 33 1 17 -1 32 -5 32 -4 0 -4 10 1 23 5 12 5 31 1 42 -4 11 -5 24 -2 29 8
14 8 66 0 66 -4 0 -4 10 1 23 5 12 5 31 1 42 -4 11 -5 24 -2 29 8 14 8 66 0
66 -4 0 -4 10 1 23 5 12 5 31 1 42 -4 11 -5 24 -2 29 8 14 8 66 0 66 -4 0 -4
10 1 23 5 12 9 27 9 32 0 6 -4 20 -9 33 -5 12 -5 22 -1 22 8 0 8 57 -1 66 -3
3 -2 17 3 30 6 14 6 26 0 29 -6 3 -6 15 0 30 6 15 6 27 0 30 -6 4 -7 13 -1 24
5 9 6 23 1 31 -4 7 -4 24 0 36 6 14 5 26 0 29 -6 3 -6 15 0 30 6 15 6 27 0 30
-6 3 -6 15 0 30 6 15 6 27 0 30 -6 4 -7 13 -1 23 6 11 6 24 0 34 -6 10 -6 19
0 23 7 4 7 15 1 30 -6 15 -6 25 0 25 5 0 5 12 0 30 -5 17 -6 30 -2 30 8 0 6
145 -2 166 -3 8 -2 14 2 14 4 0 7 38 7 85 0 47 -3 85 -7 85 -4 0 -3 11 2 25 6
15 6 27 0 30 -6 3 -6 15 0 30 6 15 6 27 0 30 -6 3 -6 15 0 30 6 15 6 27 0 30
-6 4 -7 13 -1 24 5 9 6 23 1 31 -4 7 -4 24 0 36 6 14 5 26 0 29 -6 3 -6 15 0
30 6 15 6 27 0 30 -6 3 -6 15 0 30 6 15 6 27 0 30 -6 4 -7 13 -1 23 6 11 6 24
0 34 -6 10 -6 19 0 23 7 4 7 15 1 30 -6 15 -6 25 0 25 5 0 5 12 0 30 -5 17 -6
30 -2 30 8 0 6 145 -2 166 -3 8 -2 14 2 14 4 0 7 38 7 85 0 47 -3 85 -7 85 -4
0 -3 11 2 25 6 15 6 27 0 30 -6 3 -6 15 0 30 6 15 6 27 0 30 -6 3 -6 15 0 30
6 15 6 27 0 30 -6 4 -7 13 -1 24 5 9 6 23 1 30 -4 8 -4 27 0 42 5 17 5 29 0
29 -6 0 -6 10 0 25 6 15 6 27 0 30 -6 3 -6 15 0 30 6 15 6 27 0 30 -6 4 -7 13
-1 24 6 10 6 23 1 31 -5 8 -5 21 0 31 5 9 7 19 3 22 -5 5 -8 74 -3 87 5 17 4
70 -2 70 -4 0 -4 10 1 23 5 12 5 31 1 42 -4 11 -5 24 -2 29 8 14 8 66 0 66 -4
0 -4 10 1 23 5 12 5 31 1 42 -4 11 -5 24 -2 29 8 14 8 66 0 66 -4 0 -4 10 1
23 5 12 5 31 1 42 -4 11 -5 24 -2 29 8 14 8 66 0 66 -4 0 -4 10 1 23 5 12 5
31 1 42 -4 11 -5 24 -2 29 8 14 8 66 0 66 -4 0 -4 10 1 23 5 12 5 31 1 42 -4
11 -5 24 -2 29 8 14 8 66 0 66 -4 0 -4 10 1 23 5 12 5 31 1 42 -4 11 -5 24 -2
29 8 14 8 66 0 66 -4 0 -4 10 1 23 5 12 5 31 1 42 -4 11 -5 24 -2 29 8 14 8
66 0 66 -4 0 -3 11 2 24 5 13 7 26 4 29 -3 2 -6 31 -8 64 -9 139 -77 284 -180
388 -63 63 -176 145 -176 128 0 -3 -8 1 -17 9 -60 50 -303 71 -428 36 -108
-30 -200 -84 -281 -164 -62 -61 -136 -166 -135 -191 0 -4 -6 -17 -13 -28 -7
-11 -17 -35 -20 -53 -4 -17 -11 -32 -15 -32 -5 0 -26 13 -47 28 -84 60 -314
182 -444 235 -25 11 -58 25 -75 32 -49 20 -174 62 -255 85 -102 29 -111 31
-143 36 -16 2 -32 6 -37 9 -5 3 -28 8 -52 11 -24 3 -59 9 -78 14 -19 5 -64 12
-100 15 -36 4 -74 9 -85 11 -11 2 -82 6 -158 9 -76 2 -142 7 -146 9 -5 3 -10
3 -13 1z m242 -1299 c14 -3 41 -8 60 -11 37 -5 184 -41 210 -52 8 -3 20 -7 25
-8 48 -11 312 -136 325 -154 3 -4 12 -10 20 -13 61 -22 298 -233 375 -332 17
-21 36 -45 43 -52 6 -7 12 -17 12 -22 0 -6 4 -12 9 -14 14 -5 104 -154 149
-248 38 -81 94 -236 106 -297 34 -170 39 -212 40 -325 1 -54 5 -98 9 -98 5 0
5 -5 2 -11 -4 -6 -9 -40 -11 -75 -4 -56 -13 -115 -40 -258 -3 -16 -17 -61 -30
-100 -14 -39 -26 -75 -28 -81 -11 -38 -105 -236 -116 -245 -3 -3 -17 -23 -30
-45 -47 -79 -132 -185 -214 -267 -92 -91 -143 -138 -152 -138 -3 0 -12 -7 -21
-15 -58 -59 -362 -221 -448 -239 -5 -2 -41 -12 -80 -24 -130 -39 -244 -55
-407 -57 -86 -1 -181 2 -210 6 -29 5 -75 12 -103 15 -27 4 -58 10 -67 15 -9 5
-26 9 -37 9 -35 0 -220 68 -319 117 -86 43 -228 130 -258 158 -6 5 -29 24 -50
40 -51 40 -186 176 -221 222 -15 21 -34 44 -41 51 -22 24 -72 100 -72 110 0 6
-4 12 -8 14 -14 5 -98 171 -132 258 -9 25 -20 54 -25 65 -4 11 -9 25 -10 31
-2 6 -10 36 -18 65 -9 30 -20 81 -26 114 -6 33 -13 71 -16 85 -3 14 -8 80 -10
148 -3 68 -7 127 -10 133 -4 5 -3 9 2 9 4 0 8 17 9 38 4 131 34 280 90 437 29
81 112 254 131 273 7 7 13 19 13 27 0 7 3 15 8 17 4 2 20 23 37 48 16 25 32
47 35 50 3 3 18 22 33 43 31 42 162 174 222 225 50 44 148 113 205 146 62 36
227 116 240 116 6 0 29 9 50 20 22 11 40 18 40 15 0 -2 12 0 28 6 15 6 34 12
42 14 88 19 175 36 211 41 24 3 45 7 47 9 5 5 358 -3 382 -9z"/>
<path d="M13337 18554 c-2 -2 -12 -5 -23 -7 -119 -22 -230 -82 -324 -177 -41
-42 -84 -94 -95 -115 -11 -22 -23 -43 -28 -46 -16 -12 -58 -167 -63 -233 -3
-38 -7 -73 -10 -77 -2 -4 0 -10 5 -14 7 -3 7 -15 1 -30 -6 -15 -6 -27 0 -30 6
-3 6 -15 0 -30 -6 -15 -6 -27 0 -30 6 -4 7 -13 1 -23 -6 -11 -6 -24 0 -34 6
-10 6 -19 0 -23 -7 -4 -7 -15 -1 -30 6 -15 6 -25 0 -25 -5 0 -5 -12 0 -30 5
-16 6 -30 2 -30 -8 0 -6 -145 2 -166 3 -8 2 -14 -2 -14 -4 0 -7 -38 -7 -85 0
-47 3 -85 7 -85 4 0 3 -11 -2 -25 -6 -15 -6 -27 0 -30 6 -3 6 -15 0 -30 -6
-15 -6 -27 0 -30 6 -3 6 -15 0 -30 -6 -15 -6 -27 0 -30 6 -4 7 -13 1 -24 -5
-9 -6 -23 -1 -31 4 -7 4 -24 0 -36 -6 -14 -5 -26 0 -29 6 -3 6 -15 0 -30 -6
-15 -6 -27 0 -30 6 -3 6 -15 0 -30 -6 -15 -6 -27 0 -30 6 -4 7 -13 1 -23 -6
-11 -6 -24 0 -34 6 -10 6 -19 0 -23 -7 -4 -7 -15 -1 -30 6 -15 6 -25 0 -25 -5
0 -5 -12 0 -30 5 -16 6 -30 2 -30 -8 0 -6 -145 2 -166 3 -8 2 -14 -2 -14 -4 0
-7 -38 -7 -85 0 -47 3 -85 7 -85 4 0 3 -11 -2 -25 -6 -15 -6 -27 0 -30 6 -3 6
-15 0 -30 -6 -15 -6 -27 0 -30 6 -3 6 -15 0 -30 -6 -15 -6 -27 0 -30 6 -4 7
-13 1 -24 -5 -9 -6 -23 -1 -31 4 -7 4 -24 0 -36 -6 -14 -5 -26 0 -29 6 -3 6
-15 0 -30 -6 -15 -6 -27 0 -30 6 -4 7 -13 1 -23 -6 -11 -6 -24 0 -34 6 -10 6
-19 0 -23 -7 -4 -7 -15 -1 -30 6 -15 6 -25 0 -25 -5 0 -5 -12 0 -30 5 -16 6
-30 2 -30 -4 0 -7 -38 -7 -85 0 -47 4 -85 8 -85 5 0 5 -5 1 -11 -5 -9 -9 -158
-3 -185 1 -5 0 -11 -1 -14 -5 -15 -4 -70 2 -70 4 0 4 -10 -1 -22 -5 -13 -5
-32 -1 -43 4 -11 5 -24 2 -29 -8 -14 -8 -66 0 -66 4 0 4 -10 -1 -22 -5 -13 -5
-32 -1 -43 4 -11 5 -24 2 -29 -8 -14 -8 -66 0 -66 4 0 4 -10 -1 -22 -5 -13 -5
-32 -1 -43 4 -11 5 -24 2 -29 -8 -14 -8 -66 0 -66 4 0 4 -10 -1 -22 -5 -13 -5
-32 -1 -43 4 -11 5 -24 2 -29 -8 -14 -8 -66 0 -66 4 0 4 -10 -1 -22 -5 -13 -5
-32 -1 -43 4 -11 5 -24 2 -29 -8 -14 -8 -66 0 -66 4 0 4 -10 -1 -22 -5 -13 -5
-32 -1 -43 4 -11 5 -24 2 -29 -8 -14 -8 -66 0 -66 4 0 4 -10 -1 -22 -5 -13 -5
-32 -1 -43 4 -11 5 -24 2 -29 -8 -14 -8 -66 0 -66 4 0 4 -10 -1 -22 -5 -13 -5
-32 -1 -43 4 -11 5 -24 2 -29 -8 -14 -8 -66 0 -66 4 0 4 -10 -1 -22 -5 -13 -5
-32 -1 -43 4 -11 5 -24 2 -29 -8 -14 -8 -66 0 -66 4 0 4 -10 -1 -22 -5 -13 -5
-32 -1 -43 4 -11 5 -24 2 -29 -8 -14 -8 -66 0 -66 4 0 4 -10 -1 -22 -5 -13 -5
-32 -1 -43 4 -11 5 -24 2 -29 -8 -14 -8 -66 0 -66 4 0 3 -11 -2 -24 -5 -13 -7
-26 -4 -29 3 -2 6 -31 8 -64 5 -81 21 -133 69 -233 32 -67 57 -101 116 -160
97 -95 182 -142 326 -178 30 -8 216 -8 250 0 101 23 212 74 272 126 17 15 39
34 50 43 43 38 120 148 129 187 4 12 10 22 15 22 5 0 9 8 9 18 0 9 7 36 15 60
8 23 18 77 21 120 3 42 7 79 9 81 2 1 0 13 -5 25 -4 13 -5 28 -1 34 4 7 4 35
1 62 -4 28 -4 50 -1 50 3 0 5 24 3 52 -4 62 -4 58 0 126 2 28 0 52 -3 52 -4 0
-3 17 1 38 3 20 3 49 -1 64 -4 16 -4 30 0 32 4 3 5 28 1 55 -3 28 -3 56 1 62
3 6 3 26 -1 45 -4 19 -5 34 -1 34 3 0 5 24 3 52 -1 29 -3 59 -3 66 0 6 0 59 0
117 0 58 0 112 0 120 0 8 0 62 0 120 0 58 0 111 0 118 0 6 2 36 3 65 2 28 0
52 -3 52 -4 0 -4 15 0 33 4 17 4 46 0 64 -3 18 -4 35 -1 38 3 3 4 26 3 53 -1
26 -1 54 -1 62 1 139 0 194 -4 197 -2 2 0 20 4 39 4 19 4 36 0 39 -5 3 -5 18
0 34 4 15 4 34 0 41 -5 7 -5 23 0 34 4 12 4 30 0 41 -4 11 -4 29 0 40 4 11 4
29 0 40 -4 11 -4 32 0 46 4 15 4 32 0 39 -5 7 -5 23 0 34 4 12 4 30 0 41 -4
11 -4 29 0 40 4 11 4 29 0 40 -4 11 -4 27 0 35 4 8 4 26 0 40 -3 14 -3 40 1
58 4 17 3 34 -1 37 -5 3 -5 18 0 34 4 15 4 34 0 41 -5 7 -5 23 0 34 4 12 4 30
0 41 -4 11 -4 29 0 40 4 11 4 29 0 40 -4 11 -4 32 0 46 4 15 4 32 0 39 -5 7
-5 23 0 34 4 12 4 30 0 41 -4 11 -4 29 0 40 4 11 4 29 0 40 -4 11 -5 24 -2 30
3 5 5 21 4 35 -1 16 11 47 30 75 56 84 285 305 316 305 6 0 12 4 14 8 5 13
122 80 211 122 134 62 313 117 437 135 25 3 70 10 100 14 61 9 328 6 375 -4
52 -11 119 -26 135 -31 8 -2 36 -10 63 -16 26 -7 47 -16 47 -20 0 -5 7 -8 15
-8 22 0 195 -82 195 -92 0 -4 5 -8 11 -8 37 0 260 -189 329 -278 14 -18 30
-38 37 -46 72 -81 182 -324 209 -460 19 -97 26 -148 29 -217 2 -43 7 -84 11
-91 4 -6 3 -9 -2 -5 -10 6 -11 -54 -1 -69 3 -6 2 -16 -3 -24 -5 -8 -5 -21 0
-30 5 -9 5 -22 0 -30 -5 -8 -5 -21 1 -31 6 -11 5 -20 -1 -24 -6 -4 -6 -15 0
-30 5 -14 6 -25 2 -25 -4 0 -7 -38 -7 -85 0 -47 3 -85 7 -85 4 0 3 -11 -2 -25
-6 -15 -6 -27 0 -30 6 -3 6 -15 0 -30 -6 -15 -6 -27 0 -30 6 -4 7 -13 1 -24
-6 -10 -6 -23 -1 -31 5 -8 5 -21 0 -30 -5 -9 -4 -23 1 -32 6 -10 6 -19 0 -23
-7 -4 -7 -15 -1 -30 5 -14 6 -25 2 -25 -4 0 -7 -38 -7 -85 0 -47 3 -85 7 -85
4 0 3 -11 -2 -25 -6 -15 -6 -27 0 -30 6 -3 6 -15 0 -30 -6 -15 -6 -27 0 -30 6
-4 7 -13 1 -24 -6 -10 -6 -23 -1 -31 5 -8 5 -21 0 -30 -5 -9 -4 -23 1 -32 6
-10 6 -19 0 -23 -7 -4 -7 -15 -1 -30 5 -14 6 -25 2 -25 -4 0 -7 -38 -7 -85 0
-47 3 -85 7 -85 4 0 3 -11 -2 -25 -6 -15 -6 -27 0 -30 6 -3 6 -15 0 -30 -6
-15 -6 -27 0 -30 6 -4 7 -13 1 -24 -5 -9 -6 -23 -1 -31 4 -7 6 -18 4 -24 -8
-21 -10 -106 -2 -106 4 0 3 -11 -2 -25 -6 -15 -6 -27 0 -30 6 -3 6 -15 0 -30
-6 -15 -6 -27 0 -30 7 -4 7 -13 0 -24 -5 -10 -7 -21 -3 -24 5 -5 8 -74 3 -87
-5 -17 -4 -70 2 -70 4 0 4 -10 -1 -22 -5 -13 -5 -32 -1 -43 4 -11 5 -24 2 -29
-8 -14 -8 -66 0 -66 4 0 4 -10 -1 -22 -5 -13 -5 -32 -1 -43 4 -11 5 -24 2 -29
-8 -14 -8 -66 0 -66 4 0 4 -10 -1 -22 -5 -13 -5 -32 -1 -43 4 -11 5 -24 2 -29
-8 -14 -8 -66 0 -66 4 0 3 -11 -2 -24 -5 -13 -7 -26 -4 -29 3 -2 6 -31 8 -64
5 -81 21 -133 69 -233 32 -67 57 -101 116 -160 97 -95 182 -142 326 -178 30
-8 216 -8 250 0 101 23 212 74 272 126 17 15 39 34 50 43 35 30 130 159 117
159 -4 0 0 8 8 18 43 48 89 319 62 363 -3 5 -2 9 3 9 9 0 9 97 0 106 -3 3 -2
17 2 32 4 15 4 44 1 64 -4 21 -5 38 -1 38 7 0 6 99 -2 106 -3 3 -2 17 2 32 4
15 4 44 1 64 -4 21 -5 38 -1 38 7 0 6 99 -2 106 -3 3 -2 17 2 32 4 15 4 44 1
64 -4 21 -5 38 -1 38 7 0 6 99 -2 106 -3 3 -2 17 2 32 4 15 4 44 1 64 -4 21
-5 38 -1 38 7 0 6 99 -2 106 -3 3 -2 17 2 32 4 15 4 44 1 64 -4 21 -5 38 -1
38 7 0 6 99 -2 106 -3 3 -2 17 2 32 4 15 4 44 1 64 -4 21 -5 38 -1 38 7 0 6
99 -2 106 -3 3 -2 17 2 32 4 15 4 44 1 64 -4 21 -5 38 -1 38 3 0 5 24 3 52 -1
29 -3 60 -3 68 0 8 1 34 1 56 1 23 0 46 -1 50 -1 5 0 14 1 19 1 6 1 30 1 55
-2 51 -2 59 -1 116 1 23 0 46 -1 50 -1 5 0 14 1 19 1 6 1 30 1 55 -2 51 -2 59
-1 116 1 23 0 46 -1 50 -1 5 0 14 1 19 1 6 1 30 1 55 -2 55 -2 44 -2 170 0
120 1 135 2 153 1 12 -11 240 -16 302 -3 41 -18 140 -30 195 -3 14 -7 34 -9
45 -33 164 -85 315 -166 480 -61 125 -86 170 -107 193 -7 7 -13 18 -13 23 0 5
-4 15 -10 22 -5 7 -40 50 -77 97 -110 140 -313 333 -429 407 -219 140 -335
201 -529 278 -11 5 -22 9 -25 9 -3 1 -9 4 -15 7 -8 5 -105 37 -135 44 -3 0
-32 9 -65 19 -33 10 -67 20 -75 21 -8 2 -15 4 -15 5 0 1 -11 3 -25 4 -14 2
-35 6 -47 10 -20 7 -36 10 -93 21 -14 3 -36 7 -50 10 -14 3 -41 7 -60 10 -19
2 -51 6 -70 9 -150 22 -261 30 -460 30 -208 0 -284 -8 -450 -49 -36 -9 -75
-18 -88 -21 -43 -9 -238 -82 -327 -122 -127 -58 -326 -161 -336 -175 -3 -5
-12 -9 -20 -10 -8 -2 -35 -17 -61 -35 -26 -17 -50 -32 -55 -32 -4 1 -27 40
-50 88 -48 100 -117 182 -208 247 -34 25 -65 45 -68 45 -2 0 -22 8 -43 17 -22
9 -42 18 -46 19 -5 1 -9 2 -10 3 -2 2 -14 5 -28 8 -40 8 -55 11 -55 13 0 4
-214 8 -218 4z"/>
<path d="M31856 16511 c-4 -5 -2 -12 3 -15 5 -4 12 -2 15 3 4 5 2 12 -3 15 -5
4 -12 2 -15 -3z"/>
<path d="M31775 16430 c-3 -5 -5 -10 -3 -11 33 -8 38 -7 27 7 -14 17 -16 17
-24 4z"/>
<path d="M31672 16327 c-16 -17 -19 -26 -11 -34 15 -15 1 -37 -14 -24 -8 6
-20 3 -36 -10 -13 -10 -19 -19 -15 -19 9 -1 -25 -24 -36 -25 -11 -1 -50 -30
-50 -37 0 -10 26 -3 45 12 9 8 24 15 34 17 9 1 25 13 36 27 15 19 24 23 35 16
8 -5 11 -10 5 -10 -5 0 -1 -7 9 -15 25 -19 53 -1 35 21 -9 11 -8 15 4 20 18 6
17 25 -3 50 -8 9 -13 19 -12 21 2 3 2 7 0 9 -3 2 -14 -6 -26 -19z m25 6 c-4
-3 -1 -14 7 -22 10 -11 12 -21 6 -31 -8 -13 -10 -13 -10 -1 0 8 -3 11 -7 8 -3
-4 -12 -2 -20 5 -11 9 -11 14 3 29 10 11 19 19 22 19 3 0 2 -3 -1 -7z m-73
-88 c-9 -14 -18 -25 -21 -25 -5 0 5 18 20 38 17 22 18 13 1 -13z m80 -17 c-3
-4 -12 -4 -20 -1 -13 5 -13 7 -2 14 10 7 11 9 0 9 -7 0 -10 5 -7 11 5 6 12 4
20 -8 7 -10 11 -21 9 -25z m-144 -22 c0 -2 -8 -10 -17 -17 -16 -13 -17 -12 -4
4 13 16 21 21 21 13z"/>
<path d="M31675 16310 c-3 -5 -5 -10 -3 -11 33 -8 38 -7 27 7 -14 17 -16 17
-24 4z"/>
<path d="M32206 16178 c3 -5 10 -6 15 -3 13 9 11 12 -6 12 -8 0 -12 -4 -9 -9z"/>
<path d="M31675 16170 c-3 -5 -14 -7 -23 -5 -21 4 -48 -30 -32 -40 6 -4 8 -11
5 -16 -3 -5 1 -6 9 -3 9 3 16 11 16 16 0 6 6 8 14 5 13 -5 46 21 46 35 0 11
-29 17 -35 8z m14 -26 c-8 -10 -16 -11 -22 -5 -12 12 -39 2 -30 -12 4 -6 1 -7
-7 -2 -10 6 -9 11 5 21 10 7 21 11 26 9 4 -3 10 -1 14 5 4 6 11 8 16 4 6 -4 5
-11 -2 -20z"/>
<path d="M31474 16144 c-10 -8 -13 -13 -6 -9 7 4 19 2 27 -5 10 -9 13 -8 11 4
-3 24 -11 27 -32 10z"/>
<path d="M31596 16032 c-3 -5 1 -9 9 -9 8 0 12 4 9 9 -3 4 -7 8 -9 8 -2 0 -6
-4 -9 -8z"/>
<path d="M31616 15993 c-6 -14 -5 -15 5 -6 7 7 10 15 7 18 -3 3 -9 -2 -12 -12z"/>
<path d="M32982 14863 c2 -7 -10 -24 -27 -37 -28 -23 -29 -26 -13 -42 14 -15
20 -15 33 -4 9 7 14 19 11 26 -3 8 3 18 12 23 16 9 16 11 -1 28 -10 10 -17 12
-15 6z m6 -30 c-9 -10 -13 -23 -11 -30 6 -16 -17 -27 -30 -14 -9 9 -4 18 18
36 36 29 44 32 23 8z"/>
<path d="M32950 14800 c0 -5 5 -10 10 -10 6 0 10 5 10 10 0 6 -4 10 -10 10 -5
0 -10 -4 -10 -10z"/>
<path d="M32880 14831 c8 -5 17 -8 20 -6 3 2 7 -6 7 -17 2 -20 1 -20 -12 -2
-7 11 -17 15 -21 11 -11 -11 -14 -38 -4 -32 5 3 12 1 15 -5 11 -17 35 9 31 33
-2 13 -12 22 -27 24 -18 2 -20 1 -9 -6z m11 -38 c13 -16 12 -17 -3 -4 -17 13
-22 21 -14 21 2 0 10 -8 17 -17z"/>
<path d="M33027 14791 c6 -7 9 -20 6 -27 -3 -9 2 -14 16 -14 12 0 21 5 21 11
0 6 -7 8 -16 5 -8 -3 -13 -2 -10 3 3 5 -2 15 -12 22 -14 11 -15 11 -5 0z"/>
</g>
</svg>
